SplineFontDB: 3.0
FontName: BZLoipa
FullName: BZ Loipa
FamilyName: BZ Loipa
Weight: Book
Version: 0.00 March 30, 2006
ItalicAngle: 0
UnderlinePosition: 0
UnderlineWidth: 0
Ascent: 1638
Descent: 410
sfntRevision: 0x00000000
LayerCount: 2
Layer: 0 1 "Back"  1
Layer: 1 1 "Fore"  0
XUID: [1021 761 1329040319 13015494]
FSType: 0
OS2Version: 0
OS2_WeightWidthSlopeOnly: 0
OS2_UseTypoMetrics: 1
CreationTime: -2082844800
ModificationTime: 1231601828
PfmFamily: 17
TTFWeight: 400
TTFWidth: 5
LineGap: 0
VLineGap: 0
Panose: 2 11 6 3 5 3 2 2 2 4
OS2TypoAscent: 2519
OS2TypoAOffset: 1
OS2TypoDescent: 660
OS2TypoDOffset: 1
OS2TypoLinegap: 0
OS2WinAscent: 7
OS2WinAOffset: 1
OS2WinDescent: 330
OS2WinDOffset: 1
HheadAscent: 7
HheadAOffset: 1
HheadDescent: -330
HheadDOffset: 1
OS2SubXSize: 0
OS2SubYSize: 0
OS2SubXOff: 0
OS2SubYOff: 0
OS2SupXSize: 0
OS2SupYSize: 0
OS2SupXOff: 0
OS2SupYOff: 0
OS2StrikeYSize: 0
OS2StrikeYPos: 0
OS2UnicodeRanges: 00000000.00000000.00000000.00000000
DEI: 91125
ShortTable: maxp 16
  1
  0
  110
  212
  6
  0
  0
  1
  0
  16
  0
  0
  0
  0
  0
  0
EndShort
LangName: 1033 "" "" "Regular" "BZ Loipa:Version 0.00" "" "Version 0.00 March 30, 2006" 
Encoding: UnicodeFull
UnicodeInterp: none
NameList: Adobe Glyph List
DisplaySize: -96
AntiAlias: 1
FitToEm: 1
WinInfo: 64 8 2
BeginChars: 1114112 110

StartChar: .notdef
Encoding: 711 711 0
AltUni2: 0002db.ffffffff.0 0002dd.ffffffff.0 0000b8.ffffffff.0 0002da.ffffffff.0 0002d9.ffffffff.0 0002d8.ffffffff.0 0000af.ffffffff.0 0002dc.ffffffff.0 0002c6.ffffffff.0 000131.ffffffff.0 0000d9.ffffffff.0 0000db.ffffffff.0 0000da.ffffffff.0 0000d2.ffffffff.0 00e01e.ffffffff.0 0000d4.ffffffff.0 0000d3.ffffffff.0 0000cc.ffffffff.0 0000cf.ffffffff.0 0000ce.ffffffff.0 0000cd.ffffffff.0 0000c8.ffffffff.0 0000cb.ffffffff.0 0000c1.ffffffff.0 0000ca.ffffffff.0 0000c2.ffffffff.0 002030.ffffffff.0 00201e.ffffffff.0 00201a.ffffffff.0 0000b7.ffffffff.0 002021.ffffffff.0 00fb02.ffffffff.0 00fb01.ffffffff.0 00203a.ffffffff.0 002039.ffffffff.0 0020ac.ffffffff.0 002044.ffffffff.0 000178.ffffffff.0 0000ff.ffffffff.0 0025ca.ffffffff.0 002019.ffffffff.0 002018.ffffffff.0 00201d.ffffffff.0 00201c.ffffffff.0 002014.ffffffff.0 002013.ffffffff.0 000153.ffffffff.0 000152.ffffffff.0 0000d5.ffffffff.0 0000c3.ffffffff.0 0000c0.ffffffff.0 002026.ffffffff.0 0000bb.ffffffff.0 0000ab.ffffffff.0 000394.ffffffff.0 002248.ffffffff.0 000192.ffffffff.0 00221a.ffffffff.0 0000ac.ffffffff.0 0000a1.ffffffff.0 0000bf.ffffffff.0 0000f8.ffffffff.0 0000e6.ffffffff.0 0003a9.ffffffff.0 0000ba.ffffffff.0 0000aa.ffffffff.0 00222b.ffffffff.0 0003c0.ffffffff.0 00220f.ffffffff.0 002211.ffffffff.0 002202.ffffffff.0 0000b5.ffffffff.0 0000a5.ffffffff.0 002265.ffffffff.0 002264.ffffffff.0 0000b1.ffffffff.0 00221e.ffffffff.0 0000d8.ffffffff.0 0000c6.ffffffff.0 002260.ffffffff.0 0000a9.ffffffff.0 002020.ffffffff.0 0000fc.ffffffff.0 0000fb.ffffffff.0 0000f9.ffffffff.0 0000fa.ffffffff.0 0000f5.ffffffff.0 0000f6.ffffffff.0 0000f4.ffffffff.0 0000f2.ffffffff.0 0000f3.ffffffff.0 0000f1.ffffffff.0 0000ef.ffffffff.0 0000ee.ffffffff.0 0000ec.ffffffff.0 0000ed.ffffffff.0 0000eb.ffffffff.0 0000ea.ffffffff.0 0000e8.ffffffff.0 0000e9.ffffffff.0 0000e7.ffffffff.0 0000e5.ffffffff.0 0000e3.ffffffff.0 0000e4.ffffffff.0 0000e2.ffffffff.0 0000e0.ffffffff.0 0000e1.ffffffff.0 0000dc.ffffffff.0 0000d6.ffffffff.0 0000d1.ffffffff.0 0000c9.ffffffff.0 0000c7.ffffffff.0 0000c5.ffffffff.0 0000c4.ffffffff.0 00007f.ffffffff.0 00001f.ffffffff.0 00001e.ffffffff.0 00001c.ffffffff.0 00001b.ffffffff.0 00001a.ffffffff.0 000019.ffffffff.0 000018.ffffffff.0 000017.ffffffff.0 000016.ffffffff.0 000015.ffffffff.0 000014.ffffffff.0 000013.ffffffff.0 000012.ffffffff.0 000011.ffffffff.0 000010.ffffffff.0 00000f.ffffffff.0 00000e.ffffffff.0 00000c.ffffffff.0 00000b.ffffffff.0 00000a.ffffffff.0 000007.ffffffff.0 000006.ffffffff.0 000005.ffffffff.0 000004.ffffffff.0 000003.ffffffff.0 000002.ffffffff.0 000001.ffffffff.0
Width: 379
Flags: W
LayerCount: 2
Fore
SplineSet
-430 1940 m 1,0,1
 -428 1940 -428 1940 -428 1938 c 256,2,3
 -428 1936 -428 1936 -430 1936 c 1,4,5
 -430 1936 -430 1936 -430.5 1936.5 c 128,-1,6
 -431 1937 -431 1937 -431 1938 c 2,7,8
 -431 1938 -431 1938 -430.5 1939 c 128,-1,9
 -430 1940 -430 1940 -430 1940 c 1,0,1
EndSplineSet
EndChar

StartChar: exclam
Encoding: 33 33 4
Width: 38
Flags: W
LayerCount: 2
Fore
SplineSet
-952 3284 m 1,0,1
 -801 3285 -801 3285 -648.5 3286 c 128,-1,2
 -496 3287 -496 3287 -346 3289 c 1,3,4
 -335 3275 -335 3275 -337.5 3252 c 128,-1,5
 -340 3229 -340 3229 -345 3214 c 1,6,7
 -375 3207 -375 3207 -546 3207.5 c 128,-1,8
 -717 3208 -717 3208 -843 3208 c 1,9,10
 -843 3102 -843 3102 -838.5 2990.5 c 128,-1,11
 -834 2879 -834 2879 -846 2877 c 1,12,13
 -877 2877 -877 2877 -912.5 2872.5 c 128,-1,14
 -948 2868 -948 2868 -975 2877 c 0,15,16
 -978 2877 -978 2877 -978 2898 c 0,17,18
 -978 2899 -978 2899 -976.5 2900 c 128,-1,19
 -975 2901 -975 2901 -975 2903 c 0,20,21
 -975 3011 -975 3011 -973.5 3078 c 128,-1,22
 -972 3145 -972 3145 -972 3253 c 0,23,24
 -972 3281 -972 3281 -952 3284 c 1,0,1
35 1940 m 1,25,26
 37 1940 37 1940 37 1938 c 256,27,28
 37 1936 37 1936 35 1936 c 1,29,30
 35 1936 35 1936 34.5 1936.5 c 128,-1,31
 34 1937 34 1937 34 1938 c 2,32,33
 34 1938 34 1938 34.5 1939 c 128,-1,34
 35 1940 35 1940 35 1940 c 1,25,26
-158 3241 m 2,35,-1
 -70 3241 l 2,36,37
 -63 3241 -63 3241 -46.5 3240.5 c 128,-1,38
 -30 3240 -30 3240 -26 3236 c 0,39,40
 -20 3230 -20 3230 -27.5 3229.5 c 128,-1,41
 -35 3229 -35 3229 -41 3196 c 1,42,-1
 -50 3127 l 2,43,44
 -55 3082 -55 3082 -92 3082 c 2,45,-1
 -178 3082 l 2,46,47
 -186 3082 -186 3082 -205 3083 c 128,-1,48
 -224 3084 -224 3084 -225 3092 c 1,49,50
 -225 3101 -225 3101 -218 3103.5 c 128,-1,51
 -211 3106 -211 3106 -209 3127 c 2,52,-1
 -200 3196 l 1,53,54
 -192 3241 -192 3241 -158 3241 c 2,35,-1
EndSplineSet
EndChar

StartChar: quotedbl
Encoding: 34 34 5
Width: 2948
Flags: W
LayerCount: 2
Fore
SplineSet
994 2789 m 1,0,1
 1055 2789 1055 2789 1122.5 2787 c 128,-1,2
 1190 2785 1190 2785 1244 2776 c 1,3,4
 1282 2776 1282 2776 1325.5 2644.5 c 128,-1,5
 1369 2513 1369 2513 1427 2389 c 1,6,7
 1443 2347 1443 2347 1466 2340 c 0,8,9
 1481 2335 1481 2335 1490.5 2319.5 c 128,-1,10
 1500 2304 1500 2304 1473 2292 c 1,11,12
 1411 2280 1411 2280 1347 2281.5 c 128,-1,13
 1283 2283 1283 2283 1226 2292 c 1,14,15
 1172 2317 1172 2317 1141.5 2409.5 c 128,-1,16
 1111 2502 1111 2502 1048 2680 c 1,17,18
 1042 2690 1042 2690 1025.5 2711.5 c 128,-1,19
 1009 2733 1009 2733 987 2737 c 0,20,21
 958 2743 958 2743 954.5 2765.5 c 128,-1,22
 951 2788 951 2788 994 2789 c 1,0,1
1802 2361 m 1,23,24
 1880 2390 1880 2390 2065 2358 c 1,25,26
 2173 2331 2173 2331 2256.5 2286 c 128,-1,27
 2340 2241 2340 2241 2385 2128 c 1,28,29
 2415 2019 2415 2019 2405 1954.5 c 128,-1,30
 2395 1890 2395 1890 2333 1805 c 1,31,32
 2274 1734 2274 1734 2195 1697 c 128,-1,33
 2116 1660 2116 1660 2001 1636 c 1,34,35
 1887 1614 1887 1614 1815 1614.5 c 128,-1,36
 1743 1615 1743 1615 1660 1618 c 1,37,38
 1578 1622 1578 1622 1507.5 1631.5 c 128,-1,39
 1437 1641 1437 1641 1337 1672 c 1,40,41
 1171 1718 1171 1718 1009 1797 c 0,42,43
 918 1842 918 1842 816.5 1894 c 128,-1,44
 715 1946 715 1946 590 2017 c 1,45,46
 532 2052 532 2052 464.5 2091.5 c 128,-1,47
 397 2131 397 2131 318 2172 c 1,48,49
 258 2209 258 2209 200.5 2246.5 c 128,-1,50
 143 2284 143 2284 152 2322 c 128,-1,51
 161 2360 161 2360 196 2358 c 128,-1,52
 231 2356 231 2356 415.5 2360 c 128,-1,53
 600 2364 600 2364 738 2361 c 1,54,55
 793 2321 793 2321 736.5 2303 c 128,-1,56
 680 2285 680 2285 653 2258 c 0,57,58
 602 2205 602 2205 607.5 2174 c 128,-1,59
 613 2143 613 2143 624 2125.5 c 128,-1,60
 635 2108 635 2108 657.5 2088 c 128,-1,61
 680 2068 680 2068 769 2007 c 128,-1,62
 858 1946 858 1946 990 1878 c 1,63,64
 1108 1826 1108 1826 1176 1793.5 c 128,-1,65
 1244 1761 1244 1761 1396 1720 c 1,66,67
 1509 1698 1509 1698 1625.5 1693 c 128,-1,68
 1742 1688 1742 1688 1862 1727 c 1,69,70
 1946 1764 1946 1764 1980.5 1790 c 128,-1,71
 2015 1816 2015 1816 2057 1880 c 1,72,73
 2094 1942 2094 1942 2099.5 1984.5 c 128,-1,74
 2105 2027 2105 2027 2101 2083 c 1,75,76
 2098 2140 2098 2140 2087 2165.5 c 128,-1,77
 2076 2191 2076 2191 2058 2217.5 c 128,-1,78
 2040 2244 2040 2244 2012.5 2265.5 c 128,-1,79
 1985 2287 1985 2287 1928 2296 c 128,-1,80
 1871 2305 1871 2305 1815 2311 c 1,81,82
 1791 2316 1791 2316 1784.5 2331.5 c 128,-1,83
 1778 2347 1778 2347 1802 2361 c 1,23,24
2772 3844 m 1,84,85
 2805 3838 2805 3838 2801 3810 c 128,-1,86
 2797 3782 2797 3782 2759 3779 c 1,87,88
 2717 3764 2717 3764 2690.5 3670.5 c 128,-1,89
 2664 3577 2664 3577 2634 3473 c 0,90,91
 2565 3229 2565 3229 2507.5 3077.5 c 128,-1,92
 2450 2926 2450 2926 2398.5 2865 c 128,-1,93
 2347 2804 2347 2804 2275 2773 c 0,94,95
 2164 2725 2164 2725 2056.5 2702 c 128,-1,96
 1949 2679 1949 2679 1870 2679 c 1,97,98
 1909 2586 1909 2586 2001 2550.5 c 128,-1,99
 2093 2515 2093 2515 2054 2473 c 1,100,101
 2031 2450 2031 2450 1912 2532.5 c 128,-1,102
 1793 2615 1793 2615 1749 2695 c 1,103,104
 1749 2746 1749 2746 1790.5 2737.5 c 128,-1,105
 1832 2729 1832 2729 1880 2726 c 256,106,107
 1928 2723 1928 2723 1978 2731 c 128,-1,108
 2028 2739 2028 2739 2112 2782 c 0,109,110
 2153 2803 2153 2803 2189.5 2875.5 c 128,-1,111
 2226 2948 2226 2948 2255.5 3036.5 c 128,-1,112
 2285 3125 2285 3125 2305.5 3212 c 128,-1,113
 2326 3299 2326 3299 2359.5 3462.5 c 128,-1,114
 2393 3626 2393 3626 2417 3681.5 c 128,-1,115
 2441 3737 2441 3737 2485 3771.5 c 128,-1,116
 2529 3806 2529 3806 2569 3816 c 128,-1,117
 2609 3826 2609 3826 2658 3831 c 128,-1,118
 2707 3836 2707 3836 2772 3844 c 1,84,85
962 3844 m 1,119,120
 995 3838 995 3838 991 3810 c 128,-1,121
 987 3782 987 3782 949 3779 c 1,122,123
 907 3764 907 3764 880.5 3670.5 c 128,-1,124
 854 3577 854 3577 824 3473 c 0,125,126
 755 3229 755 3229 697.5 3077.5 c 128,-1,127
 640 2926 640 2926 588.5 2865 c 128,-1,128
 537 2804 537 2804 465 2773 c 0,129,130
 354 2725 354 2725 246.5 2702 c 128,-1,131
 139 2679 139 2679 60 2679 c 1,132,133
 99 2586 99 2586 191 2550.5 c 128,-1,134
 283 2515 283 2515 244 2473 c 1,135,136
 221 2450 221 2450 102 2532.5 c 128,-1,137
 -17 2615 -17 2615 -61 2695 c 1,138,139
 -61 2746 -61 2746 -19.5 2737.5 c 128,-1,140
 22 2729 22 2729 70 2726 c 256,141,142
 118 2723 118 2723 168 2731 c 128,-1,143
 218 2739 218 2739 302 2782 c 0,144,145
 343 2803 343 2803 379.5 2875.5 c 128,-1,146
 416 2948 416 2948 445.5 3036.5 c 128,-1,147
 475 3125 475 3125 495.5 3212 c 128,-1,148
 516 3299 516 3299 549.5 3462.5 c 128,-1,149
 583 3626 583 3626 607 3681.5 c 128,-1,150
 631 3737 631 3737 675 3771.5 c 128,-1,151
 719 3806 719 3806 759 3816 c 128,-1,152
 799 3826 799 3826 848 3831 c 128,-1,153
 897 3836 897 3836 962 3844 c 1,119,120
1977 4102 m 1,154,155
 2008 4097 2008 4097 2004 4073.5 c 128,-1,156
 2000 4050 2000 4050 1965 4047 c 1,157,158
 1926 4035 1926 4035 1901.5 3956 c 128,-1,159
 1877 3877 1877 3877 1850 3789 c 0,160,161
 1786 3583 1786 3583 1732.5 3455 c 128,-1,162
 1679 3327 1679 3327 1631.5 3276 c 128,-1,163
 1584 3225 1584 3225 1518 3199 c 0,164,165
 1415 3158 1415 3158 1315.5 3139 c 128,-1,166
 1216 3120 1216 3120 1143 3120 c 1,167,168
 1179 3041 1179 3041 1264 3011 c 128,-1,169
 1349 2981 1349 2981 1313 2946 c 1,170,171
 1292 2927 1292 2927 1182 2996.5 c 128,-1,172
 1072 3066 1072 3066 1031 3133 c 1,173,174
 1031 3176 1031 3176 1069.5 3169 c 128,-1,175
 1108 3162 1108 3162 1152 3159 c 1,176,177
 1197 3157 1197 3157 1243 3163.5 c 128,-1,178
 1289 3170 1289 3170 1367 3206 c 0,179,180
 1405 3224 1405 3224 1438.5 3285 c 128,-1,181
 1472 3346 1472 3346 1499.5 3421 c 128,-1,182
 1527 3496 1527 3496 1546 3569 c 128,-1,183
 1565 3642 1565 3642 1595.5 3780 c 128,-1,184
 1626 3918 1626 3918 1648.5 3965 c 128,-1,185
 1671 4012 1671 4012 1711.5 4041 c 128,-1,186
 1752 4070 1752 4070 1789 4078.5 c 128,-1,187
 1826 4087 1826 4087 1871.5 4091 c 128,-1,188
 1917 4095 1917 4095 1977 4102 c 1,154,155
EndSplineSet
EndChar

StartChar: numbersign
Encoding: 35 35 6
Width: 0
Flags: W
LayerCount: 2
Fore
SplineSet
-527 3294 m 1,0,1
 -526 3365 -526 3365 -524.5 3430.5 c 128,-1,2
 -523 3496 -523 3496 -523 3576 c 0,3,4
 -523 3601 -523 3601 -503 3604 c 1,5,6
 -352 3605 -352 3605 -199.5 3606 c 128,-1,7
 -47 3607 -47 3607 102 3609 c 1,8,9
 112 3596 112 3596 109.5 3575 c 128,-1,10
 107 3554 107 3554 103 3540 c 1,11,12
 72 3533 72 3533 -98 3533.5 c 128,-1,13
 -268 3534 -268 3534 -394 3534 c 1,14,15
 -394 3435 -394 3435 -390 3334 c 128,-1,16
 -386 3233 -386 3233 -398 3233 c 1,17,18
 -415 3230 -415 3230 -431 3226.5 c 128,-1,19
 -447 3223 -447 3223 -525 3226 c 1,20,21
 -607 3224 -607 3224 -714 3221.5 c 128,-1,22
 -821 3219 -821 3219 -901 3219 c 1,23,24
 -901 3121 -901 3121 -898 3019.5 c 128,-1,25
 -895 2918 -895 2918 -907 2917 c 1,26,27
 -937 2917 -937 2917 -973 2912.5 c 128,-1,28
 -1009 2908 -1009 2908 -1036 2917 c 0,29,30
 -1039 2917 -1039 2917 -1039 2936 c 1,31,32
 -1039 2936 -1039 2936 -1037.5 2937 c 128,-1,33
 -1036 2938 -1036 2938 -1036 2940 c 0,34,35
 -1035 3040 -1035 3040 -1032.5 3100.5 c 128,-1,36
 -1030 3161 -1030 3161 -1030 3262 c 0,37,38
 -1030 3287 -1030 3287 -1011 3290 c 1,39,40
 -891 3291 -891 3291 -769 3291.5 c 128,-1,41
 -647 3292 -647 3292 -527 3294 c 1,0,1
-1287 3211 m 2,42,-1
 -1199 3211 l 2,43,44
 -1192 3211 -1192 3211 -1175.5 3210.5 c 128,-1,45
 -1159 3210 -1159 3210 -1155 3206 c 0,46,47
 -1149 3200 -1149 3200 -1157 3199.5 c 128,-1,48
 -1165 3199 -1165 3199 -1170 3166 c 2,49,-1
 -1179 3096 l 2,50,51
 -1184 3051 -1184 3051 -1221 3051 c 2,52,-1
 -1308 3051 l 2,53,54
 -1315 3051 -1315 3051 -1334 3052 c 128,-1,55
 -1353 3053 -1353 3053 -1354 3061 c 1,56,57
 -1354 3070 -1354 3070 -1347 3072.5 c 128,-1,58
 -1340 3075 -1340 3075 -1338 3096 c 2,59,-1
 -1329 3166 l 1,60,61
 -1321 3211 -1321 3211 -1287 3211 c 2,42,-1
8 1970 m 0,62,63
 10 1970 10 1970 10 1967 c 0,64,65
 10 1965 10 1965 8 1965 c 0,66,67
 5 1965 5 1965 5 1967 c 0,68,69
 5 1970 5 1970 8 1970 c 0,62,63
EndSplineSet
EndChar

StartChar: dollar
Encoding: 36 36 7
Width: 0
Flags: W
LayerCount: 2
Fore
SplineSet
-527 3294 m 1,0,1
 -526 3365 -526 3365 -524.5 3430.5 c 128,-1,2
 -523 3496 -523 3496 -523 3576 c 0,3,4
 -523 3601 -523 3601 -503 3604 c 1,5,6
 -352 3605 -352 3605 -199.5 3606 c 128,-1,7
 -47 3607 -47 3607 102 3609 c 1,8,9
 112 3596 112 3596 109.5 3575 c 128,-1,10
 107 3554 107 3554 103 3540 c 1,11,12
 72 3533 72 3533 -98 3533.5 c 128,-1,13
 -268 3534 -268 3534 -394 3534 c 1,14,15
 -394 3435 -394 3435 -390 3334 c 128,-1,16
 -386 3233 -386 3233 -398 3233 c 1,17,18
 -415 3230 -415 3230 -431 3226.5 c 128,-1,19
 -447 3223 -447 3223 -525 3226 c 1,20,21
 -607 3224 -607 3224 -714 3221.5 c 128,-1,22
 -821 3219 -821 3219 -901 3219 c 1,23,24
 -901 3121 -901 3121 -898 3019.5 c 128,-1,25
 -895 2918 -895 2918 -907 2917 c 1,26,27
 -937 2917 -937 2917 -973 2912.5 c 128,-1,28
 -1009 2908 -1009 2908 -1036 2917 c 0,29,30
 -1039 2917 -1039 2917 -1039 2936 c 1,31,32
 -1039 2936 -1039 2936 -1037.5 2937 c 128,-1,33
 -1036 2938 -1036 2938 -1036 2940 c 0,34,35
 -1035 3040 -1035 3040 -1032.5 3100.5 c 128,-1,36
 -1030 3161 -1030 3161 -1030 3262 c 0,37,38
 -1030 3287 -1030 3287 -1011 3290 c 1,39,40
 -891 3291 -891 3291 -769 3291.5 c 128,-1,41
 -647 3292 -647 3292 -527 3294 c 1,0,1
-824 3587 m 2,42,-1
 -737 3587 l 2,43,44
 -729 3587 -729 3587 -713 3586.5 c 128,-1,45
 -697 3586 -697 3586 -692 3582 c 0,46,47
 -686 3576 -686 3576 -694 3575.5 c 128,-1,48
 -702 3575 -702 3575 -707 3542 c 2,49,-1
 -717 3473 l 1,50,51
 -722 3428 -722 3428 -759 3428 c 2,52,-1
 -845 3428 l 2,53,54
 -852 3428 -852 3428 -871.5 3429 c 128,-1,55
 -891 3430 -891 3430 -892 3438 c 0,56,57
 -892 3446 -892 3446 -885 3449 c 128,-1,58
 -878 3452 -878 3452 -876 3473 c 1,59,-1
 -866 3542 l 2,60,61
 -860 3587 -860 3587 -824 3587 c 2,42,-1
EndSplineSet
EndChar

StartChar: percent
Encoding: 37 37 8
Width: 0
Flags: W
LayerCount: 2
Fore
SplineSet
-527 3294 m 1,0,1
 -526 3365 -526 3365 -524.5 3430.5 c 128,-1,2
 -523 3496 -523 3496 -523 3576 c 0,3,4
 -523 3601 -523 3601 -503 3604 c 1,5,6
 -352 3605 -352 3605 -199.5 3606 c 128,-1,7
 -47 3607 -47 3607 102 3609 c 1,8,9
 112 3596 112 3596 109.5 3575 c 128,-1,10
 107 3554 107 3554 103 3540 c 1,11,12
 72 3533 72 3533 -98 3533.5 c 128,-1,13
 -268 3534 -268 3534 -394 3534 c 1,14,15
 -394 3435 -394 3435 -390 3334 c 128,-1,16
 -386 3233 -386 3233 -398 3233 c 1,17,18
 -415 3230 -415 3230 -431 3226.5 c 128,-1,19
 -447 3223 -447 3223 -525 3226 c 1,20,21
 -607 3224 -607 3224 -714 3221.5 c 128,-1,22
 -821 3219 -821 3219 -901 3219 c 1,23,24
 -901 3121 -901 3121 -898 3019.5 c 128,-1,25
 -895 2918 -895 2918 -907 2917 c 1,26,27
 -937 2917 -937 2917 -973 2912.5 c 128,-1,28
 -1009 2908 -1009 2908 -1036 2917 c 0,29,30
 -1039 2917 -1039 2917 -1039 2936 c 1,31,32
 -1039 2936 -1039 2936 -1037.5 2937 c 128,-1,33
 -1036 2938 -1036 2938 -1036 2940 c 0,34,35
 -1035 3040 -1035 3040 -1032.5 3100.5 c 128,-1,36
 -1030 3161 -1030 3161 -1030 3262 c 0,37,38
 -1030 3287 -1030 3287 -1011 3290 c 1,39,40
 -891 3291 -891 3291 -769 3291.5 c 128,-1,41
 -647 3292 -647 3292 -527 3294 c 1,0,1
291 3567 m 2,42,-1
 378 3567 l 2,43,44
 385 3567 385 3567 401 3566.5 c 128,-1,45
 417 3566 417 3566 423 3562 c 1,46,47
 428 3556 428 3556 420 3555.5 c 128,-1,48
 412 3555 412 3555 408 3522 c 2,49,-1
 399 3452 l 1,50,51
 391 3407 391 3407 356 3407 c 2,52,-1
 270 3407 l 2,53,54
 262 3407 262 3407 243 3408 c 128,-1,55
 224 3409 224 3409 224 3417 c 1,56,57
 222 3426 222 3426 229.5 3428.5 c 128,-1,58
 237 3431 237 3431 240 3452 c 2,59,-1
 249 3522 l 2,60,61
 254 3567 254 3567 291 3567 c 2,42,-1
EndSplineSet
EndChar

StartChar: ampersand
Encoding: 38 38 9
Width: 1
Flags: W
LayerCount: 2
Fore
SplineSet
-554 3408 m 0,0,1
 -554 3434 -554 3434 -535 3438 c 1,2,3
 -415 3438 -415 3438 -293 3439 c 128,-1,4
 -171 3440 -171 3440 -51 3441 c 1,5,6
 -50 3515 -50 3515 -49.5 3538 c 128,-1,7
 -49 3561 -49 3561 -49 3643 c 0,8,9
 -49 3670 -49 3670 -30 3673 c 1,10,11
 120 3674 120 3674 272.5 3674.5 c 128,-1,12
 425 3675 425 3675 576 3678 c 1,13,14
 592 3654 592 3654 576 3606 c 1,15,16
 545 3599 545 3599 374 3599.5 c 128,-1,17
 203 3600 203 3600 78 3600 c 1,18,19
 78 3498 78 3498 83 3438.5 c 128,-1,20
 88 3379 88 3379 76 3378 c 1,21,22
 59 3375 59 3375 44 3371.5 c 128,-1,23
 29 3368 29 3368 -49 3371 c 1,24,25
 -131 3369 -131 3369 -238 3366.5 c 128,-1,26
 -345 3364 -345 3364 -425 3364 c 1,27,28
 -426 3350 -426 3350 -425 3338 c 1,29,-1
 -425 3338 l 1,30,31
 -423 3143 -423 3143 -428 3143 c 1,32,33
 -444 3139 -444 3139 -459.5 3136 c 128,-1,34
 -475 3133 -475 3133 -554 3136 c 1,35,36
 -636 3134 -636 3134 -742.5 3131.5 c 128,-1,37
 -849 3129 -849 3129 -930 3129 c 1,38,39
 -931 2909 -931 2909 -935 2909 c 0,40,41
 -966 2909 -966 2909 -1002 2904.5 c 128,-1,42
 -1038 2900 -1038 2900 -1064 2909 c 0,43,44
 -1067 2909 -1067 2909 -1067 2929 c 0,45,46
 -1067 2930 -1067 2930 -1065.5 2931 c 128,-1,47
 -1064 2932 -1064 2932 -1064 2934 c 0,48,49
 -1063 3037 -1063 3037 -1061 3052.5 c 128,-1,50
 -1059 3068 -1059 3068 -1059 3173 c 0,51,52
 -1059 3199 -1059 3199 -1040 3202 c 1,53,54
 -920 3203 -920 3203 -798 3204 c 128,-1,55
 -676 3205 -676 3205 -556 3206 c 1,56,57
 -555 3257 -555 3257 -554.5 3307 c 128,-1,58
 -554 3357 -554 3357 -554 3408 c 0,0,1
-1290 3132 m 2,59,-1
 -1203 3132 l 2,60,61
 -1195 3132 -1195 3132 -1179 3131 c 128,-1,62
 -1163 3130 -1163 3130 -1158 3126 c 0,63,64
 -1152 3120 -1152 3120 -1160 3119.5 c 128,-1,65
 -1168 3119 -1168 3119 -1173 3086 c 2,66,-1
 -1183 3017 l 1,67,68
 -1188 2972 -1188 2972 -1225 2972 c 2,69,-1
 -1311 2972 l 2,70,71
 -1318 2972 -1318 2972 -1337.5 2973 c 128,-1,72
 -1357 2974 -1357 2974 -1357 2982 c 0,73,74
 -1358 2991 -1358 2991 -1351 2993.5 c 128,-1,75
 -1344 2996 -1344 2996 -1341 3017 c 2,76,-1
 -1332 3086 l 2,77,78
 -1326 3132 -1326 3132 -1290 3132 c 2,59,-1
EndSplineSet
EndChar

StartChar: quotesingle
Encoding: 39 39 10
Width: 3236
Flags: W
LayerCount: 2
Fore
SplineSet
1345 2768 m 1,0,1
 1406 2768 1406 2768 1473.5 2766 c 128,-1,2
 1541 2764 1541 2764 1595 2754 c 1,3,4
 1633 2754 1633 2754 1676 2623 c 128,-1,5
 1719 2492 1719 2492 1777 2367 c 0,6,7
 1796 2324 1796 2324 1816 2319 c 1,8,9
 1832 2313 1832 2313 1841 2297.5 c 128,-1,10
 1850 2282 1850 2282 1824 2270 c 1,11,12
 1762 2258 1762 2258 1698 2260 c 128,-1,13
 1634 2262 1634 2262 1577 2270 c 1,14,15
 1523 2295 1523 2295 1492.5 2388 c 128,-1,16
 1462 2481 1462 2481 1399 2658 c 1,17,18
 1393 2668 1393 2668 1376 2689.5 c 128,-1,19
 1359 2711 1359 2711 1338 2716 c 1,20,21
 1309 2721 1309 2721 1305.5 2743.5 c 128,-1,22
 1302 2766 1302 2766 1345 2768 c 1,0,1
173.5 2127.5 m 128,-1,24
 184 2144 184 2144 197 2145.5 c 128,-1,25
 210 2147 210 2147 225 2138 c 128,-1,26
 240 2129 240 2129 262 2118 c 128,-1,27
 284 2107 284 2107 319 2100 c 128,-1,28
 354 2093 354 2093 417 2093 c 2,29,-1
 2514 2093 l 1,30,31
 2572 2094 2572 2094 2619 2084 c 128,-1,32
 2666 2074 2666 2074 2705 2053.5 c 128,-1,33
 2744 2033 2744 2033 2765.5 2016.5 c 128,-1,34
 2787 2000 2787 2000 2824.5 1961 c 128,-1,35
 2862 1922 2862 1922 2889 1884.5 c 128,-1,36
 2916 1847 2916 1847 2900 1812 c 1,37,38
 2884 1788 2884 1788 2862.5 1802 c 128,-1,39
 2841 1816 2841 1816 2812 1826.5 c 128,-1,40
 2783 1837 2783 1837 2749 1841 c 128,-1,41
 2715 1845 2715 1845 2644 1845 c 2,42,-1
 577 1845 l 1,43,44
 529 1846 529 1846 491 1852 c 128,-1,45
 453 1858 453 1858 431 1865 c 128,-1,46
 409 1872 409 1872 385 1884 c 128,-1,47
 361 1896 361 1896 333.5 1914 c 128,-1,48
 306 1932 306 1932 275 1963.5 c 128,-1,49
 244 1995 244 1995 212 2036.5 c 128,-1,50
 180 2078 180 2078 171.5 2094.5 c 128,-1,23
 163 2111 163 2111 173.5 2127.5 c 128,-1,24
3043 3724 m 1,51,52
 3076 3718 3076 3718 3072 3690 c 128,-1,53
 3068 3662 3068 3662 3030 3659 c 1,54,55
 2988 3644 2988 3644 2961.5 3550.5 c 128,-1,56
 2935 3457 2935 3457 2905 3353 c 0,57,58
 2836 3109 2836 3109 2778.5 2957.5 c 128,-1,59
 2721 2806 2721 2806 2669.5 2745 c 128,-1,60
 2618 2684 2618 2684 2546 2653 c 0,61,62
 2435 2605 2435 2605 2327.5 2582 c 128,-1,63
 2220 2559 2220 2559 2141 2559 c 1,64,65
 2180 2466 2180 2466 2272 2430.5 c 128,-1,66
 2364 2395 2364 2395 2325 2353 c 1,67,68
 2302 2330 2302 2330 2183 2412.5 c 128,-1,69
 2064 2495 2064 2495 2020 2575 c 1,70,71
 2020 2626 2020 2626 2061.5 2617.5 c 128,-1,72
 2103 2609 2103 2609 2151 2606 c 256,73,74
 2199 2603 2199 2603 2249 2611 c 128,-1,75
 2299 2619 2299 2619 2383 2662 c 0,76,77
 2424 2683 2424 2683 2460.5 2755.5 c 128,-1,78
 2497 2828 2497 2828 2526.5 2916.5 c 128,-1,79
 2556 3005 2556 3005 2576.5 3092 c 128,-1,80
 2597 3179 2597 3179 2630.5 3342.5 c 128,-1,81
 2664 3506 2664 3506 2688 3561.5 c 128,-1,82
 2712 3617 2712 3617 2756 3651.5 c 128,-1,83
 2800 3686 2800 3686 2840 3696 c 128,-1,84
 2880 3706 2880 3706 2929 3711 c 128,-1,85
 2978 3716 2978 3716 3043 3724 c 1,51,52
1143 3724 m 1,86,87
 1176 3718 1176 3718 1172 3690 c 128,-1,88
 1168 3662 1168 3662 1130 3659 c 1,89,90
 1088 3644 1088 3644 1061.5 3550.5 c 128,-1,91
 1035 3457 1035 3457 1005 3353 c 0,92,93
 936 3109 936 3109 878.5 2957.5 c 128,-1,94
 821 2806 821 2806 769.5 2745 c 128,-1,95
 718 2684 718 2684 646 2653 c 0,96,97
 535 2605 535 2605 427.5 2582 c 128,-1,98
 320 2559 320 2559 241 2559 c 1,99,100
 280 2466 280 2466 372 2430.5 c 128,-1,101
 464 2395 464 2395 425 2353 c 1,102,103
 402 2330 402 2330 283 2412.5 c 128,-1,104
 164 2495 164 2495 120 2575 c 1,105,106
 120 2626 120 2626 161.5 2617.5 c 128,-1,107
 203 2609 203 2609 251 2606 c 256,108,109
 299 2603 299 2603 349 2611 c 128,-1,110
 399 2619 399 2619 483 2662 c 0,111,112
 524 2683 524 2683 560.5 2755.5 c 128,-1,113
 597 2828 597 2828 626.5 2916.5 c 128,-1,114
 656 3005 656 3005 676.5 3092 c 128,-1,115
 697 3179 697 3179 730.5 3342.5 c 128,-1,116
 764 3506 764 3506 788 3561.5 c 128,-1,117
 812 3617 812 3617 856 3651.5 c 128,-1,118
 900 3686 900 3686 940 3696 c 128,-1,119
 980 3706 980 3706 1029 3711 c 128,-1,120
 1078 3716 1078 3716 1143 3724 c 1,86,87
2178 4082 m 1,121,122
 2209 4077 2209 4077 2205 4053.5 c 128,-1,123
 2201 4030 2201 4030 2166 4027 c 1,124,125
 2127 4015 2127 4015 2102.5 3936 c 128,-1,126
 2078 3857 2078 3857 2051 3769 c 0,127,128
 1987 3563 1987 3563 1933.5 3435 c 128,-1,129
 1880 3307 1880 3307 1832.5 3256 c 128,-1,130
 1785 3205 1785 3205 1719 3179 c 0,131,132
 1616 3138 1616 3138 1516.5 3119 c 128,-1,133
 1417 3100 1417 3100 1344 3100 c 1,134,135
 1380 3021 1380 3021 1465 2991 c 128,-1,136
 1550 2961 1550 2961 1514 2926 c 1,137,138
 1493 2907 1493 2907 1383 2976.5 c 128,-1,139
 1273 3046 1273 3046 1232 3113 c 1,140,141
 1232 3156 1232 3156 1270.5 3149 c 128,-1,142
 1309 3142 1309 3142 1353 3139 c 1,143,144
 1398 3137 1398 3137 1444 3143.5 c 128,-1,145
 1490 3150 1490 3150 1568 3186 c 0,146,147
 1606 3204 1606 3204 1639.5 3265 c 128,-1,148
 1673 3326 1673 3326 1700.5 3401 c 128,-1,149
 1728 3476 1728 3476 1747 3549 c 128,-1,150
 1766 3622 1766 3622 1796.5 3760 c 128,-1,151
 1827 3898 1827 3898 1849.5 3945 c 128,-1,152
 1872 3992 1872 3992 1912.5 4021 c 128,-1,153
 1953 4050 1953 4050 1990 4058.5 c 128,-1,154
 2027 4067 2027 4067 2072.5 4071 c 128,-1,155
 2118 4075 2118 4075 2178 4082 c 1,121,122
EndSplineSet
EndChar

StartChar: parenleft
Encoding: 40 40 11
Width: 0
Flags: W
LayerCount: 2
Fore
SplineSet
-555 3408 m 0,0,1
 -555 3434 -555 3434 -536 3438 c 1,2,3
 -416 3438 -416 3438 -294 3439 c 128,-1,4
 -172 3440 -172 3440 -52 3441 c 1,5,6
 -51 3515 -51 3515 -50.5 3538 c 128,-1,7
 -50 3561 -50 3561 -50 3643 c 0,8,9
 -50 3670 -50 3670 -31 3673 c 1,10,11
 119 3674 119 3674 271.5 3674.5 c 128,-1,12
 424 3675 424 3675 575 3678 c 1,13,14
 591 3654 591 3654 575 3606 c 1,15,16
 544 3599 544 3599 373 3599.5 c 128,-1,17
 202 3600 202 3600 77 3600 c 1,18,19
 77 3498 77 3498 82 3438.5 c 128,-1,20
 87 3379 87 3379 75 3378 c 1,21,22
 58 3375 58 3375 43 3371.5 c 128,-1,23
 28 3368 28 3368 -50 3371 c 1,24,25
 -132 3369 -132 3369 -239 3366.5 c 128,-1,26
 -346 3364 -346 3364 -426 3364 c 1,27,28
 -427 3350 -427 3350 -426 3338 c 1,29,-1
 -426 3338 l 1,30,31
 -424 3143 -424 3143 -429 3143 c 1,32,33
 -445 3139 -445 3139 -460.5 3136 c 128,-1,34
 -476 3133 -476 3133 -555 3136 c 1,35,36
 -637 3134 -637 3134 -743.5 3131.5 c 128,-1,37
 -850 3129 -850 3129 -931 3129 c 1,38,39
 -932 2909 -932 2909 -936 2909 c 0,40,41
 -967 2909 -967 2909 -1003 2904.5 c 128,-1,42
 -1039 2900 -1039 2900 -1065 2909 c 0,43,44
 -1068 2909 -1068 2909 -1068 2929 c 0,45,46
 -1068 2930 -1068 2930 -1066.5 2931 c 128,-1,47
 -1065 2932 -1065 2932 -1065 2934 c 0,48,49
 -1064 3037 -1064 3037 -1062 3052.5 c 128,-1,50
 -1060 3068 -1060 3068 -1060 3173 c 0,51,52
 -1060 3199 -1060 3199 -1041 3202 c 1,53,54
 -921 3203 -921 3203 -799 3204 c 128,-1,55
 -677 3205 -677 3205 -557 3206 c 1,56,57
 -556 3257 -556 3257 -555.5 3307 c 128,-1,58
 -555 3357 -555 3357 -555 3408 c 0,0,1
731 3623 m 2,59,-1
 818 3623 l 2,60,61
 825 3623 825 3623 841 3622.5 c 128,-1,62
 857 3622 857 3622 863 3617 c 1,63,64
 868 3611 868 3611 860 3610.5 c 128,-1,65
 852 3610 852 3610 848 3577 c 2,66,-1
 838 3508 l 2,67,68
 832 3463 832 3463 796 3463 c 2,69,-1
 710 3463 l 2,70,71
 702 3463 702 3463 682.5 3464 c 128,-1,72
 663 3465 663 3465 663 3473 c 0,73,74
 662 3482 662 3482 669 3484.5 c 128,-1,75
 676 3487 676 3487 679 3508 c 2,76,-1
 689 3577 l 1,77,78
 694 3623 694 3623 731 3623 c 2,59,-1
EndSplineSet
EndChar

StartChar: parenright
Encoding: 41 41 12
Width: 3103
Flags: W
LayerCount: 2
Fore
SplineSet
1417 2315 m 1,0,1
 1393 2333 1393 2333 1413.5 2348.5 c 128,-1,2
 1434 2364 1434 2364 1464 2364 c 0,3,4
 1497 2364 1497 2364 1557.5 2424 c 128,-1,5
 1618 2484 1618 2484 1637 2573 c 0,6,7
 1668 2723 1668 2723 1480 2818 c 1,8,9
 1409 2852 1409 2852 1300 2879.5 c 128,-1,10
 1191 2907 1191 2907 1085 2927.5 c 128,-1,11
 979 2948 979 2948 897.5 2960.5 c 128,-1,12
 816 2973 816 2973 802 2979 c 0,13,14
 774 2990 774 2990 780 3009 c 128,-1,15
 786 3028 786 3028 810 3028 c 1,16,17
 822 3027 822 3027 901.5 3018 c 128,-1,18
 981 3009 981 3009 1092.5 2990.5 c 128,-1,19
 1204 2972 1204 2972 1328 2943 c 128,-1,20
 1452 2914 1452 2914 1553 2875 c 1,21,22
 1673 2827 1673 2827 1745 2779.5 c 128,-1,23
 1817 2732 1817 2732 1877 2653 c 1,24,25
 1937 2572 1937 2572 1927.5 2492 c 128,-1,26
 1918 2412 1918 2412 1858 2368 c 0,27,28
 1803 2327 1803 2327 1732 2313 c 128,-1,29
 1661 2299 1661 2299 1597 2299 c 0,30,31
 1532 2299 1532 2299 1506.5 2299.5 c 128,-1,32
 1481 2300 1481 2300 1417 2315 c 1,0,1
177.5 2127.5 m 128,-1,34
 188 2144 188 2144 201 2145.5 c 128,-1,35
 214 2147 214 2147 229 2138 c 128,-1,36
 244 2129 244 2129 266 2118 c 128,-1,37
 288 2107 288 2107 323 2100 c 128,-1,38
 358 2093 358 2093 421 2093 c 2,39,-1
 2518 2093 l 1,40,41
 2576 2094 2576 2094 2623 2084 c 128,-1,42
 2670 2074 2670 2074 2709 2053.5 c 128,-1,43
 2748 2033 2748 2033 2769.5 2016.5 c 128,-1,44
 2791 2000 2791 2000 2828.5 1961 c 128,-1,45
 2866 1922 2866 1922 2893 1884.5 c 128,-1,46
 2920 1847 2920 1847 2904 1812 c 1,47,48
 2888 1788 2888 1788 2866.5 1802 c 128,-1,49
 2845 1816 2845 1816 2816 1826.5 c 128,-1,50
 2787 1837 2787 1837 2753 1841 c 128,-1,51
 2719 1845 2719 1845 2648 1845 c 2,52,-1
 581 1845 l 1,53,54
 533 1846 533 1846 495 1852 c 128,-1,55
 457 1858 457 1858 435 1865 c 128,-1,56
 413 1872 413 1872 389 1884 c 128,-1,57
 365 1896 365 1896 337.5 1914 c 128,-1,58
 310 1932 310 1932 279 1963.5 c 128,-1,59
 248 1995 248 1995 216 2036.5 c 128,-1,60
 184 2078 184 2078 175.5 2094.5 c 128,-1,33
 167 2111 167 2111 177.5 2127.5 c 128,-1,34
EndSplineSet
EndChar

StartChar: asterisk
Encoding: 42 42 13
Width: 0
Flags: W
LayerCount: 2
Fore
SplineSet
-555 3408 m 0,0,1
 -555 3434 -555 3434 -536 3438 c 1,2,3
 -416 3438 -416 3438 -294 3439 c 128,-1,4
 -172 3440 -172 3440 -52 3441 c 1,5,6
 -51 3515 -51 3515 -50.5 3538 c 128,-1,7
 -50 3561 -50 3561 -50 3643 c 0,8,9
 -50 3670 -50 3670 -31 3673 c 1,10,11
 119 3674 119 3674 271.5 3674.5 c 128,-1,12
 424 3675 424 3675 575 3678 c 1,13,14
 591 3654 591 3654 575 3606 c 1,15,16
 544 3599 544 3599 373 3599.5 c 128,-1,17
 202 3600 202 3600 77 3600 c 1,18,19
 77 3498 77 3498 82 3438.5 c 128,-1,20
 87 3379 87 3379 75 3378 c 1,21,22
 58 3375 58 3375 43 3371.5 c 128,-1,23
 28 3368 28 3368 -50 3371 c 1,24,25
 -132 3369 -132 3369 -239 3366.5 c 128,-1,26
 -346 3364 -346 3364 -426 3364 c 1,27,28
 -427 3350 -427 3350 -426 3338 c 1,29,-1
 -426 3338 l 1,30,31
 -424 3143 -424 3143 -429 3143 c 1,32,33
 -445 3139 -445 3139 -460.5 3136 c 128,-1,34
 -476 3133 -476 3133 -555 3136 c 1,35,36
 -637 3134 -637 3134 -743.5 3131.5 c 128,-1,37
 -850 3129 -850 3129 -931 3129 c 1,38,39
 -932 2909 -932 2909 -936 2909 c 0,40,41
 -967 2909 -967 2909 -1003 2904.5 c 128,-1,42
 -1039 2900 -1039 2900 -1065 2909 c 0,43,44
 -1068 2909 -1068 2909 -1068 2929 c 0,45,46
 -1068 2930 -1068 2930 -1066.5 2931 c 128,-1,47
 -1065 2932 -1065 2932 -1065 2934 c 0,48,49
 -1064 3037 -1064 3037 -1062 3052.5 c 128,-1,50
 -1060 3068 -1060 3068 -1060 3173 c 0,51,52
 -1060 3199 -1060 3199 -1041 3202 c 1,53,54
 -921 3203 -921 3203 -799 3204 c 128,-1,55
 -677 3205 -677 3205 -557 3206 c 1,56,57
 -556 3257 -556 3257 -555.5 3307 c 128,-1,58
 -555 3357 -555 3357 -555 3408 c 0,0,1
-354 3730 m 2,59,-1
 -266 3730 l 2,60,61
 -259 3730 -259 3730 -242.5 3729.5 c 128,-1,62
 -226 3729 -226 3729 -222 3724 c 0,63,64
 -216 3718 -216 3718 -224 3718 c 128,-1,65
 -232 3718 -232 3718 -237 3685 c 2,66,-1
 -246 3615 l 2,67,68
 -251 3570 -251 3570 -288 3570 c 2,69,-1
 -375 3570 l 2,70,71
 -382 3570 -382 3570 -401 3571 c 128,-1,72
 -420 3572 -420 3572 -421 3580 c 1,73,74
 -421 3589 -421 3589 -414 3591.5 c 128,-1,75
 -407 3594 -407 3594 -405 3615 c 2,76,-1
 -396 3685 l 1,77,78
 -388 3730 -388 3730 -354 3730 c 2,59,-1
EndSplineSet
EndChar

StartChar: plus
Encoding: 43 43 14
Width: 3104
Flags: W
LayerCount: 2
Fore
SplineSet
2030 2427 m 1,0,-1
 2048 2350 l 2,1,2
 2050 2341 2050 2341 2070.5 2309.5 c 128,-1,3
 2091 2278 2091 2278 2091 2270 c 256,4,5
 2091 2262 2091 2262 2057 2255.5 c 128,-1,6
 2023 2249 2023 2249 2011 2249 c 2,7,-1
 1887 2249 l 2,8,9
 1863 2249 1863 2249 1841 2284 c 128,-1,10
 1819 2319 1819 2319 1813 2350 c 1,11,-1
 1795 2428 l 1,12,13
 1556 2428 1556 2428 1356 2447 c 128,-1,14
 1156 2466 1156 2466 1072 2480 c 1,15,16
 916 2504 916 2504 814.5 2566 c 128,-1,17
 713 2628 713 2628 680 2706 c 0,18,19
 663 2745 663 2745 620.5 2821.5 c 128,-1,20
 578 2898 578 2898 531 2976 c 128,-1,21
 484 3054 484 3054 441.5 3115 c 128,-1,22
 399 3176 399 3176 383 3184 c 1,23,24
 300 3213 300 3213 345 3247 c 1,25,26
 449 3256 449 3256 543 3258 c 128,-1,27
 637 3260 637 3260 736 3252 c 1,28,29
 834 3246 834 3246 876.5 3140 c 128,-1,30
 919 3034 919 3034 961 2861 c 256,31,32
 1003 2688 1003 2688 1066.5 2626 c 128,-1,33
 1130 2564 1130 2564 1283 2524 c 1,34,35
 1368 2500 1368 2500 1490.5 2493 c 128,-1,36
 1613 2486 1613 2486 1789 2489 c 1,37,-1
 1763 2630 l 2,38,39
 1761 2640 1761 2640 1742.5 2657 c 128,-1,40
 1724 2674 1724 2674 1724 2683 c 0,41,42
 1724 2695 1724 2695 1757.5 2699.5 c 128,-1,43
 1791 2704 1791 2704 1804 2704 c 2,44,-1
 1929 2704 l 2,45,46
 1951 2704 1951 2704 1973 2672 c 128,-1,47
 1995 2640 1995 2640 2002 2604 c 2,48,-1
 2024 2490 l 1,49,50
 2161 2492 2161 2492 2210.5 2499.5 c 128,-1,51
 2260 2507 2260 2507 2317 2515 c 1,52,53
 2339 2512 2339 2512 2344 2494 c 128,-1,54
 2349 2476 2349 2476 2335 2461 c 1,55,56
 2315 2444 2315 2444 2251.5 2435.5 c 128,-1,57
 2188 2427 2188 2427 2030 2427 c 1,0,-1
177.5 2127.5 m 128,-1,59
 188 2144 188 2144 201 2145.5 c 128,-1,60
 214 2147 214 2147 229 2138 c 128,-1,61
 244 2129 244 2129 266 2118 c 128,-1,62
 288 2107 288 2107 323 2100 c 128,-1,63
 358 2093 358 2093 421 2093 c 2,64,-1
 2518 2093 l 1,65,66
 2576 2094 2576 2094 2623 2084 c 128,-1,67
 2670 2074 2670 2074 2709 2053.5 c 128,-1,68
 2748 2033 2748 2033 2769.5 2016.5 c 128,-1,69
 2791 2000 2791 2000 2828.5 1961 c 128,-1,70
 2866 1922 2866 1922 2893 1884.5 c 128,-1,71
 2920 1847 2920 1847 2904 1812 c 1,72,73
 2888 1788 2888 1788 2866.5 1802 c 128,-1,74
 2845 1816 2845 1816 2816 1826.5 c 128,-1,75
 2787 1837 2787 1837 2753 1841 c 128,-1,76
 2719 1845 2719 1845 2648 1845 c 2,77,-1
 581 1845 l 1,78,79
 533 1846 533 1846 495 1852 c 128,-1,80
 457 1858 457 1858 435 1865 c 128,-1,81
 413 1872 413 1872 389 1884 c 128,-1,82
 365 1896 365 1896 337.5 1914 c 128,-1,83
 310 1932 310 1932 279 1963.5 c 128,-1,84
 248 1995 248 1995 216 2036.5 c 128,-1,85
 184 2078 184 2078 175.5 2094.5 c 128,-1,58
 167 2111 167 2111 177.5 2127.5 c 128,-1,59
EndSplineSet
EndChar

StartChar: comma
Encoding: 44 44 15
Width: 2405
Flags: W
LayerCount: 2
Fore
SplineSet
1842 2797 m 1,0,-1
 1860 2719 l 1,1,2
 1861 2710 1861 2710 1882 2679 c 128,-1,3
 1903 2648 1903 2648 1903 2640 c 0,4,5
 1903 2631 1903 2631 1868.5 2624.5 c 128,-1,6
 1834 2618 1834 2618 1823 2618 c 2,7,-1
 1698 2618 l 2,8,9
 1674 2618 1674 2618 1652 2653 c 128,-1,10
 1630 2688 1630 2688 1624 2719 c 2,11,-1
 1607 2797 l 1,12,13
 1367 2798 1367 2798 1167 2816.5 c 128,-1,14
 967 2835 967 2835 883 2849 c 1,15,16
 727 2873 727 2873 626 2935 c 128,-1,17
 525 2997 525 2997 492 3075 c 0,18,19
 475 3114 475 3114 432.5 3190.5 c 128,-1,20
 390 3267 390 3267 342.5 3345 c 128,-1,21
 295 3423 295 3423 253 3484.5 c 128,-1,22
 211 3546 211 3546 195 3554 c 1,23,24
 110 3582 110 3582 157 3616 c 1,25,26
 260 3625 260 3625 354.5 3627 c 128,-1,27
 449 3629 449 3629 547 3621 c 1,28,29
 645 3615 645 3615 687.5 3509 c 128,-1,30
 730 3403 730 3403 773 3231 c 1,31,32
 815 3057 815 3057 878 2995 c 128,-1,33
 941 2933 941 2933 1094 2893 c 1,34,35
 1249 2851 1249 2851 1600 2858 c 1,36,-1
 1575 2999 l 1,37,38
 1572 3009 1572 3009 1554 3026.5 c 128,-1,39
 1536 3044 1536 3044 1536 3053 c 0,40,41
 1536 3065 1536 3065 1569 3069.5 c 128,-1,42
 1602 3074 1602 3074 1615 3074 c 2,43,-1
 1740 3074 l 2,44,45
 1763 3074 1763 3074 1784.5 3042 c 128,-1,46
 1806 3010 1806 3010 1814 2973 c 1,47,-1
 1835 2859 l 1,48,49
 1972 2861 1972 2861 2021.5 2868.5 c 128,-1,50
 2071 2876 2071 2876 2129 2884 c 1,51,52
 2151 2881 2151 2881 2155.5 2863 c 128,-1,53
 2160 2845 2160 2845 2146 2830 c 1,54,55
 2126 2813 2126 2813 2062.5 2804.5 c 128,-1,56
 1999 2796 1999 2796 1842 2797 c 1,0,-1
1842 1936 m 1,57,-1
 1860 1858 l 1,58,59
 1861 1849 1861 1849 1882 1817.5 c 128,-1,60
 1903 1786 1903 1786 1903 1778 c 256,61,62
 1903 1770 1903 1770 1868.5 1763.5 c 128,-1,63
 1834 1757 1834 1757 1823 1757 c 2,64,-1
 1698 1757 l 2,65,66
 1674 1757 1674 1757 1652 1792 c 128,-1,67
 1630 1827 1630 1827 1624 1858 c 2,68,-1
 1607 1936 l 1,69,70
 1367 1936 1367 1936 1167 1955 c 128,-1,71
 967 1974 967 1974 883 1988 c 1,72,73
 727 2012 727 2012 626 2074 c 128,-1,74
 525 2136 525 2136 492 2214 c 0,75,76
 475 2253 475 2253 432.5 2329.5 c 128,-1,77
 390 2406 390 2406 342.5 2484 c 128,-1,78
 295 2562 295 2562 253 2623 c 128,-1,79
 211 2684 211 2684 195 2692 c 1,80,81
 111 2721 111 2721 157 2755 c 1,82,83
 260 2764 260 2764 354.5 2766 c 128,-1,84
 449 2768 449 2768 547 2760 c 1,85,86
 645 2754 645 2754 687.5 2648 c 128,-1,87
 730 2542 730 2542 773 2369 c 0,88,89
 815 2196 815 2196 878 2134 c 128,-1,90
 941 2072 941 2072 1094 2032 c 1,91,92
 1249 1990 1249 1990 1600 1997 c 1,93,-1
 1575 2138 l 1,94,95
 1572 2148 1572 2148 1554 2165 c 128,-1,96
 1536 2182 1536 2182 1536 2191 c 0,97,98
 1536 2203 1536 2203 1569 2207.5 c 128,-1,99
 1602 2212 1602 2212 1615 2212 c 2,100,-1
 1740 2212 l 2,101,102
 1763 2212 1763 2212 1784.5 2180 c 128,-1,103
 1806 2148 1806 2148 1814 2112 c 1,104,-1
 1835 1998 l 1,105,106
 1972 2000 1972 2000 2021.5 2007.5 c 128,-1,107
 2071 2015 2071 2015 2129 2023 c 1,108,109
 2151 2020 2151 2020 2155.5 2002 c 128,-1,110
 2160 1984 2160 1984 2146 1969 c 1,111,112
 2126 1952 2126 1952 2062.5 1943.5 c 128,-1,113
 1999 1935 1999 1935 1842 1936 c 1,57,-1
819 1144 m 1,114,115
 749 1118 749 1118 584 1147 c 1,116,117
 487 1171 487 1171 412.5 1211.5 c 128,-1,118
 338 1252 338 1252 298 1353 c 1,119,120
 271 1450 271 1450 280 1507.5 c 128,-1,121
 289 1565 289 1565 344 1641 c 1,122,123
 397 1705 397 1705 467.5 1738 c 128,-1,124
 538 1771 538 1771 641 1792 c 0,125,126
 743 1812 743 1812 807 1811.5 c 128,-1,127
 871 1811 871 1811 945 1808 c 256,128,129
 1019 1805 1019 1805 1082 1796.5 c 128,-1,130
 1145 1788 1145 1788 1234 1760 c 1,131,132
 1383 1719 1383 1719 1527 1648 c 0,133,134
 1609 1608 1609 1608 1699.5 1561.5 c 128,-1,135
 1790 1515 1790 1515 1902 1452 c 1,136,137
 1954 1421 1954 1421 2014 1385.5 c 128,-1,138
 2074 1350 2074 1350 2145 1313 c 1,139,140
 2198 1280 2198 1280 2249.5 1246.5 c 128,-1,141
 2301 1213 2301 1213 2293 1179 c 128,-1,142
 2285 1145 2285 1145 2254 1147 c 128,-1,143
 2223 1149 2223 1149 2058 1145.5 c 128,-1,144
 1893 1142 1893 1142 1769 1144 c 1,145,146
 1720 1180 1720 1180 1770.5 1196 c 128,-1,147
 1821 1212 1821 1212 1845 1236 c 0,148,149
 1891 1284 1891 1284 1886 1311.5 c 128,-1,150
 1881 1339 1881 1339 1871.5 1354.5 c 128,-1,151
 1862 1370 1862 1370 1841.5 1388 c 128,-1,152
 1821 1406 1821 1406 1741.5 1460.5 c 128,-1,153
 1662 1515 1662 1515 1544 1576 c 1,154,155
 1439 1623 1439 1623 1378 1652 c 128,-1,156
 1317 1681 1317 1681 1181 1717 c 1,157,158
 1080 1737 1080 1737 976 1741.5 c 128,-1,159
 872 1746 872 1746 765 1711 c 1,160,161
 690 1678 690 1678 659 1654.5 c 128,-1,162
 628 1631 628 1631 591 1574 c 1,163,164
 558 1519 558 1519 553 1481 c 128,-1,165
 548 1443 548 1443 551 1393 c 0,166,167
 554 1342 554 1342 564 1319 c 128,-1,168
 574 1296 574 1296 590 1272.5 c 128,-1,169
 606 1249 606 1249 630.5 1230 c 128,-1,170
 655 1211 655 1211 706 1202.5 c 128,-1,171
 757 1194 757 1194 807 1189 c 1,172,173
 828 1185 828 1185 834 1171 c 128,-1,174
 840 1157 840 1157 819 1144 c 1,114,115
1208 943 m 1,175,176
 1187 960 1187 960 1204.5 974 c 128,-1,177
 1222 988 1222 988 1247 988 c 0,178,179
 1276 988 1276 988 1327 1042 c 128,-1,180
 1378 1096 1378 1096 1395 1176 c 1,181,182
 1421 1311 1421 1311 1261 1397 c 1,183,184
 1201 1427 1201 1427 1108 1452 c 128,-1,185
 1015 1477 1015 1477 925 1495.5 c 128,-1,186
 835 1514 835 1514 765.5 1525 c 128,-1,187
 696 1536 696 1536 684 1542 c 0,188,189
 661 1552 661 1552 666 1569 c 128,-1,190
 671 1586 671 1586 691 1586 c 1,191,192
 701 1585 701 1585 769 1577 c 128,-1,193
 837 1569 837 1569 931.5 1552.5 c 128,-1,194
 1026 1536 1026 1536 1131.5 1509.5 c 128,-1,195
 1237 1483 1237 1483 1323 1448 c 1,196,197
 1425 1405 1425 1405 1486.5 1362 c 128,-1,198
 1548 1319 1548 1319 1599 1248 c 1,199,200
 1650 1175 1650 1175 1642 1103 c 128,-1,201
 1634 1031 1634 1031 1583 991 c 0,202,203
 1536 954 1536 954 1475.5 941.5 c 128,-1,204
 1415 929 1415 929 1361 929 c 0,205,206
 1305 929 1305 929 1283.5 929.5 c 128,-1,207
 1262 930 1262 930 1208 943 c 1,175,176
EndSplineSet
EndChar

StartChar: hyphen
Encoding: 45 45 16
Width: 3111
Flags: W
LayerCount: 2
Fore
SplineSet
177.5 2127.5 m 128,-1,1
 188 2144 188 2144 201 2145.5 c 128,-1,2
 214 2147 214 2147 229 2138 c 128,-1,3
 244 2129 244 2129 266 2118 c 128,-1,4
 288 2107 288 2107 323 2100 c 128,-1,5
 358 2093 358 2093 421 2093 c 2,6,-1
 2518 2093 l 1,7,8
 2576 2094 2576 2094 2623 2084 c 128,-1,9
 2670 2074 2670 2074 2709 2053.5 c 128,-1,10
 2748 2033 2748 2033 2769.5 2016.5 c 128,-1,11
 2791 2000 2791 2000 2828.5 1961 c 128,-1,12
 2866 1922 2866 1922 2893 1884.5 c 128,-1,13
 2920 1847 2920 1847 2904 1812 c 1,14,15
 2888 1788 2888 1788 2866.5 1802 c 128,-1,16
 2845 1816 2845 1816 2816 1826.5 c 128,-1,17
 2787 1837 2787 1837 2753 1841 c 128,-1,18
 2719 1845 2719 1845 2648 1845 c 2,19,-1
 581 1845 l 1,20,21
 533 1846 533 1846 495 1852 c 128,-1,22
 457 1858 457 1858 435 1865 c 128,-1,23
 413 1872 413 1872 389 1884 c 128,-1,24
 365 1896 365 1896 337.5 1914 c 128,-1,25
 310 1932 310 1932 279 1963.5 c 128,-1,26
 248 1995 248 1995 216 2036.5 c 128,-1,27
 184 2078 184 2078 175.5 2094.5 c 128,-1,0
 167 2111 167 2111 177.5 2127.5 c 128,-1,1
891 2369 m 1,28,29
 813 2340 813 2340 628 2372 c 1,30,31
 520 2399 520 2399 436.5 2444 c 128,-1,32
 353 2489 353 2489 308 2602 c 1,33,34
 278 2711 278 2711 288 2775.5 c 128,-1,35
 298 2840 298 2840 360 2925 c 1,36,37
 419 2996 419 2996 498 3033 c 128,-1,38
 577 3070 577 3070 692 3094 c 1,39,40
 806 3116 806 3116 878 3115.5 c 128,-1,41
 950 3115 950 3115 1033 3112 c 1,42,43
 1115 3108 1115 3108 1185.5 3098.5 c 128,-1,44
 1256 3089 1256 3089 1356 3058 c 1,45,46
 1522 3012 1522 3012 1684 2933 c 0,47,48
 1775 2888 1775 2888 1876.5 2836 c 128,-1,49
 1978 2784 1978 2784 2103 2713 c 1,50,51
 2161 2678 2161 2678 2228.5 2638.5 c 128,-1,52
 2296 2599 2296 2599 2375 2558 c 1,53,54
 2435 2521 2435 2521 2492.5 2483.5 c 128,-1,55
 2550 2446 2550 2446 2541 2408 c 128,-1,56
 2532 2370 2532 2370 2497 2372 c 128,-1,57
 2462 2374 2462 2374 2277.5 2370 c 128,-1,58
 2093 2366 2093 2366 1955 2369 c 1,59,60
 1900 2409 1900 2409 1956.5 2427 c 128,-1,61
 2013 2445 2013 2445 2040 2472 c 0,62,63
 2091 2525 2091 2525 2085.5 2556 c 128,-1,64
 2080 2587 2080 2587 2069 2604.5 c 128,-1,65
 2058 2622 2058 2622 2035.5 2642 c 128,-1,66
 2013 2662 2013 2662 1924 2723 c 128,-1,67
 1835 2784 1835 2784 1703 2852 c 1,68,69
 1585 2904 1585 2904 1517 2936.5 c 128,-1,70
 1449 2969 1449 2969 1297 3010 c 1,71,72
 1184 3032 1184 3032 1067.5 3037 c 128,-1,73
 951 3042 951 3042 831 3003 c 1,74,75
 747 2966 747 2966 712.5 2940 c 128,-1,76
 678 2914 678 2914 636 2850 c 1,77,78
 599 2788 599 2788 593.5 2745.5 c 128,-1,79
 588 2703 588 2703 592 2647 c 1,80,81
 595 2590 595 2590 606 2564.5 c 128,-1,82
 617 2539 617 2539 635 2512.5 c 128,-1,83
 653 2486 653 2486 680.5 2464.5 c 128,-1,84
 708 2443 708 2443 765 2434 c 128,-1,85
 822 2425 822 2425 878 2419 c 1,86,87
 902 2414 902 2414 908.5 2398.5 c 128,-1,88
 915 2383 915 2383 891 2369 c 1,28,29
EndSplineSet
EndChar

StartChar: period
Encoding: 46 46 17
Width: 2061
Flags: W
LayerCount: 2
Fore
SplineSet
1649 3150 m 1,0,-1
 1666 3083 l 2,1,2
 1668 3076 1668 3076 1686 3049 c 128,-1,3
 1704 3022 1704 3022 1704 3016 c 0,4,5
 1704 3009 1704 3009 1673 3003 c 128,-1,6
 1642 2997 1642 2997 1633 2997 c 2,7,-1
 1521 2997 l 2,8,9
 1500 2997 1500 2997 1479.5 3026.5 c 128,-1,10
 1459 3056 1459 3056 1454 3083 c 1,11,-1
 1438 3150 l 1,12,13
 1222 3150 1222 3150 1042.5 3166 c 128,-1,14
 863 3182 863 3182 787 3194 c 0,15,16
 500 3238 500 3238 434 3388 c 0,17,18
 419 3421 419 3421 381 3486.5 c 128,-1,19
 343 3552 343 3552 300.5 3618.5 c 128,-1,20
 258 3685 258 3685 220 3737.5 c 128,-1,21
 182 3790 182 3790 167 3797 c 1,22,23
 92 3822 92 3822 133 3850 c 1,24,25
 327 3867 327 3867 484 3855 c 1,26,27
 572 3850 572 3850 610.5 3759 c 128,-1,28
 649 3668 649 3668 688 3521 c 1,29,30
 725 3373 725 3373 782 3319.5 c 128,-1,31
 839 3266 839 3266 977 3232 c 1,32,33
 1113 3197 1113 3197 1432 3202 c 1,34,-1
 1409 3323 l 2,35,36
 1407 3332 1407 3332 1390.5 3346.5 c 128,-1,37
 1374 3361 1374 3361 1374 3368 c 0,38,39
 1374 3379 1374 3379 1404 3383 c 128,-1,40
 1434 3387 1434 3387 1446 3387 c 2,41,-1
 1558 3387 l 2,42,43
 1579 3387 1579 3387 1598.5 3359.5 c 128,-1,44
 1618 3332 1618 3332 1625 3301 c 2,45,-1
 1644 3203 l 1,46,47
 1767 3205 1767 3205 1811.5 3211.5 c 128,-1,48
 1856 3218 1856 3218 1908 3225 c 1,49,50
 1962 3218 1962 3218 1924 3178 c 1,51,52
 1906 3163 1906 3163 1848.5 3156 c 128,-1,53
 1791 3149 1791 3149 1649 3150 c 1,0,-1
1649 2475 m 1,54,-1
 1666 2408 l 2,55,56
 1668 2400 1668 2400 1686 2373.5 c 128,-1,57
 1704 2347 1704 2347 1704 2341 c 0,58,59
 1704 2334 1704 2334 1673 2328.5 c 128,-1,60
 1642 2323 1642 2323 1633 2323 c 2,61,-1
 1521 2323 l 2,62,63
 1500 2323 1500 2323 1479.5 2352 c 128,-1,64
 1459 2381 1459 2381 1454 2408 c 1,65,-1
 1438 2475 l 1,66,67
 1222 2476 1222 2476 1042.5 2492 c 128,-1,68
 863 2508 863 2508 787 2520 c 0,69,70
 501 2562 501 2562 434 2713 c 0,71,72
 419 2746 419 2746 381 2811.5 c 128,-1,73
 343 2877 343 2877 300.5 2943.5 c 128,-1,74
 258 3010 258 3010 220 3062.5 c 128,-1,75
 182 3115 182 3115 167 3122 c 1,76,77
 92 3147 92 3147 133 3175 c 1,78,79
 327 3192 327 3192 484 3180 c 1,80,81
 572 3175 572 3175 610.5 3084 c 128,-1,82
 649 2993 649 2993 688 2846 c 1,83,84
 725 2698 725 2698 782 2644.5 c 128,-1,85
 839 2591 839 2591 977 2557 c 0,86,87
 1120 2522 1120 2522 1432 2528 c 1,88,-1
 1409 2648 l 2,89,90
 1407 2657 1407 2657 1390.5 2671.5 c 128,-1,91
 1374 2686 1374 2686 1374 2694 c 0,92,93
 1374 2704 1374 2704 1404 2708 c 128,-1,94
 1434 2712 1434 2712 1446 2712 c 2,95,-1
 1558 2712 l 2,96,97
 1579 2712 1579 2712 1598.5 2684.5 c 128,-1,98
 1618 2657 1618 2657 1625 2625 c 2,99,-1
 1644 2528 l 1,100,101
 1767 2530 1767 2530 1811.5 2536.5 c 128,-1,102
 1856 2543 1856 2543 1908 2550 c 1,103,104
 1963 2543 1963 2543 1924 2504 c 1,105,106
 1906 2489 1906 2489 1848.5 2481.5 c 128,-1,107
 1791 2474 1791 2474 1649 2475 c 1,54,-1
1649 1801 m 1,108,-1
 1666 1734 l 2,109,110
 1668 1726 1668 1726 1686 1699.5 c 128,-1,111
 1704 1673 1704 1673 1704 1666 c 256,112,113
 1704 1659 1704 1659 1673 1653.5 c 128,-1,114
 1642 1648 1642 1648 1633 1648 c 2,115,-1
 1521 1648 l 2,116,117
 1500 1648 1500 1648 1479.5 1677.5 c 128,-1,118
 1459 1707 1459 1707 1454 1734 c 1,119,-1
 1438 1801 l 1,120,121
 1222 1801 1222 1801 1042.5 1817.5 c 128,-1,122
 863 1834 863 1834 787 1846 c 0,123,124
 501 1888 501 1888 434 2039 c 0,125,126
 419 2072 419 2072 381 2137 c 128,-1,127
 343 2202 343 2202 300.5 2269 c 128,-1,128
 258 2336 258 2336 220 2388 c 128,-1,129
 182 2440 182 2440 167 2447 c 1,130,131
 93 2472 93 2472 133 2501 c 1,132,133
 226 2508 226 2508 311 2509.5 c 128,-1,134
 396 2511 396 2511 484 2505 c 0,135,136
 572 2500 572 2500 610.5 2409.5 c 128,-1,137
 649 2319 649 2319 688 2172 c 1,138,139
 725 2023 725 2023 782 1970 c 128,-1,140
 839 1917 839 1917 977 1883 c 1,141,142
 1113 1848 1113 1848 1432 1853 c 1,143,-1
 1409 1974 l 2,144,145
 1407 1983 1407 1983 1390.5 1997.5 c 128,-1,146
 1374 2012 1374 2012 1374 2020 c 0,147,148
 1374 2030 1374 2030 1404 2033.5 c 128,-1,149
 1434 2037 1434 2037 1446 2037 c 2,150,-1
 1558 2037 l 2,151,152
 1579 2037 1579 2037 1598.5 2010 c 128,-1,153
 1618 1983 1618 1983 1625 1951 c 2,154,-1
 1644 1854 l 1,155,156
 1767 1855 1767 1855 1811.5 1862 c 128,-1,157
 1856 1869 1856 1869 1908 1875 c 1,158,159
 1928 1873 1928 1873 1932 1857.5 c 128,-1,160
 1936 1842 1936 1842 1924 1830 c 1,161,162
 1906 1815 1906 1815 1848.5 1807.5 c 128,-1,163
 1791 1800 1791 1800 1649 1801 c 1,108,-1
EndSplineSet
EndChar

StartChar: slash
Encoding: 47 47 18
Width: 3009
Flags: W
LayerCount: 2
Fore
SplineSet
1546 2694 m 1,0,1
 1616 2694 1616 2694 1693 2692.5 c 128,-1,2
 1770 2691 1770 2691 1832 2683 c 1,3,4
 1875 2683 1875 2683 1914 2578.5 c 128,-1,5
 1953 2474 1953 2474 2024 2369 c 0,6,7
 2048 2333 2048 2333 2068 2330 c 1,8,9
 2087 2325 2087 2325 2097 2312.5 c 128,-1,10
 2107 2300 2107 2300 2077 2290 c 1,11,12
 2006 2280 2006 2280 1933.5 2281.5 c 128,-1,13
 1861 2283 1861 2283 1795 2290 c 1,14,15
 1732 2311 1732 2311 1706 2385 c 128,-1,16
 1680 2459 1680 2459 1607 2605 c 1,17,18
 1586 2637 1586 2637 1538 2646 c 1,19,20
 1505 2650 1505 2650 1501 2671.5 c 128,-1,21
 1497 2693 1497 2693 1546 2694 c 1,0,1
1037 2697 m 1,22,23
 1098 2697 1098 2697 1165.5 2695.5 c 128,-1,24
 1233 2694 1233 2694 1287 2685 c 1,25,26
 1325 2685 1325 2685 1368 2577.5 c 128,-1,27
 1411 2470 1411 2470 1469 2367 c 0,28,29
 1489 2331 1489 2331 1508 2327 c 0,30,31
 1524 2323 1524 2323 1533 2310 c 128,-1,32
 1542 2297 1542 2297 1516 2287 c 1,33,34
 1453 2277 1453 2277 1389.5 2279 c 128,-1,35
 1326 2281 1326 2281 1269 2287 c 1,36,37
 1215 2308 1215 2308 1184.5 2384 c 128,-1,38
 1154 2460 1154 2460 1091 2607 c 1,39,40
 1085 2615 1085 2615 1068.5 2632.5 c 128,-1,41
 1052 2650 1052 2650 1030 2654 c 0,42,43
 1001 2658 1001 2658 997.5 2676.5 c 128,-1,44
 994 2695 994 2695 1037 2697 c 1,22,23
1818 3176 m 1,45,46
 1818 3247 1818 3247 1820 3313 c 128,-1,47
 1822 3379 1822 3379 1822 3459 c 0,48,49
 1822 3484 1822 3484 1841 3487 c 1,50,51
 1992 3488 1992 3488 2144.5 3488.5 c 128,-1,52
 2297 3489 2297 3489 2448 3492 c 1,53,54
 2465 3471 2465 3471 2448 3422 c 1,55,56
 2417 3416 2417 3416 2246.5 3416.5 c 128,-1,57
 2076 3417 2076 3417 1951 3417 c 1,58,59
 1950 3318 1950 3318 1954 3217 c 128,-1,60
 1958 3116 1958 3116 1946 3116 c 1,61,62
 1929 3112 1929 3112 1913.5 3109 c 128,-1,63
 1898 3106 1898 3106 1820 3109 c 1,64,65
 1737 3107 1737 3107 1630 3104.5 c 128,-1,66
 1523 3102 1523 3102 1443 3102 c 1,67,68
 1442 3004 1442 3004 1445.5 2902 c 128,-1,69
 1449 2800 1449 2800 1438 2799 c 1,70,71
 1406 2799 1406 2799 1370.5 2795 c 128,-1,72
 1335 2791 1335 2791 1309 2799 c 0,73,74
 1306 2799 1306 2799 1306 2819 c 1,75,76
 1306 2819 1306 2819 1307.5 2820.5 c 128,-1,77
 1309 2822 1309 2822 1309 2823 c 0,78,79
 1309 2923 1309 2923 1312 2983 c 128,-1,80
 1315 3043 1315 3043 1315 3145 c 0,81,82
 1315 3170 1315 3170 1334 3173 c 1,83,84
 1454 3174 1454 3174 1575.5 3174.5 c 128,-1,85
 1697 3175 1697 3175 1818 3176 c 1,45,46
177.5 2127.5 m 128,-1,87
 188 2144 188 2144 201 2145.5 c 128,-1,88
 214 2147 214 2147 229 2138 c 128,-1,89
 244 2129 244 2129 266 2118 c 128,-1,90
 288 2107 288 2107 323 2100 c 128,-1,91
 358 2093 358 2093 421 2093 c 2,92,-1
 2468 2093 l 1,93,94
 2526 2094 2526 2094 2573 2084 c 128,-1,95
 2620 2074 2620 2074 2659 2053.5 c 128,-1,96
 2698 2033 2698 2033 2719.5 2016.5 c 128,-1,97
 2741 2000 2741 2000 2778.5 1961 c 128,-1,98
 2816 1922 2816 1922 2843 1884.5 c 128,-1,99
 2870 1847 2870 1847 2854 1812 c 1,100,101
 2838 1788 2838 1788 2816.5 1802 c 128,-1,102
 2795 1816 2795 1816 2766 1826.5 c 128,-1,103
 2737 1837 2737 1837 2703 1841 c 128,-1,104
 2669 1845 2669 1845 2598 1845 c 2,105,-1
 581 1845 l 1,106,107
 533 1846 533 1846 495 1852 c 128,-1,108
 457 1858 457 1858 435 1865 c 128,-1,109
 413 1872 413 1872 389 1884 c 128,-1,110
 365 1896 365 1896 337.5 1914 c 128,-1,111
 310 1932 310 1932 279 1963.5 c 128,-1,112
 248 1995 248 1995 216 2036.5 c 128,-1,113
 184 2078 184 2078 175.5 2094.5 c 128,-1,86
 167 2111 167 2111 177.5 2127.5 c 128,-1,87
EndSplineSet
EndChar

StartChar: zero
Encoding: 48 48 19
Width: 3104
Flags: W
LayerCount: 2
Fore
SplineSet
177.5 2127.5 m 128,-1,1
 188 2144 188 2144 201 2145.5 c 128,-1,2
 214 2147 214 2147 229 2138 c 128,-1,3
 244 2129 244 2129 266 2118 c 128,-1,4
 288 2107 288 2107 323 2100 c 128,-1,5
 358 2093 358 2093 421 2093 c 2,6,-1
 2518 2093 l 1,7,8
 2576 2094 2576 2094 2623 2084 c 128,-1,9
 2670 2074 2670 2074 2709 2053.5 c 128,-1,10
 2748 2033 2748 2033 2769.5 2016.5 c 128,-1,11
 2791 2000 2791 2000 2828.5 1961 c 128,-1,12
 2866 1922 2866 1922 2893 1884.5 c 128,-1,13
 2920 1847 2920 1847 2904 1812 c 1,14,15
 2888 1788 2888 1788 2866.5 1802 c 128,-1,16
 2845 1816 2845 1816 2816 1826.5 c 128,-1,17
 2787 1837 2787 1837 2753 1841 c 128,-1,18
 2719 1845 2719 1845 2648 1845 c 2,19,-1
 581 1845 l 1,20,21
 533 1846 533 1846 495 1852 c 128,-1,22
 457 1858 457 1858 435 1865 c 128,-1,23
 413 1872 413 1872 389 1884 c 128,-1,24
 365 1896 365 1896 337.5 1914 c 128,-1,25
 310 1932 310 1932 279 1963.5 c 128,-1,26
 248 1995 248 1995 216 2036.5 c 128,-1,27
 184 2078 184 2078 175.5 2094.5 c 128,-1,0
 167 2111 167 2111 177.5 2127.5 c 128,-1,1
268 2709 m 1,28,29
 200 2850 200 2850 231.5 2951 c 128,-1,30
 263 3052 263 3052 344 3059 c 0,31,32
 397 3063 397 3063 424.5 3050 c 128,-1,33
 452 3037 452 3037 473 3023.5 c 128,-1,34
 494 3010 494 3010 513 2994.5 c 128,-1,35
 532 2979 532 2979 548.5 2962.5 c 128,-1,36
 565 2946 565 2946 571.5 2933 c 128,-1,37
 578 2920 578 2920 577.5 2909 c 128,-1,38
 577 2898 577 2898 570.5 2893 c 128,-1,39
 564 2888 564 2888 532 2874 c 128,-1,40
 500 2860 500 2860 450 2828 c 128,-1,41
 400 2796 400 2796 402 2721 c 1,42,43
 403 2643 403 2643 545 2574.5 c 128,-1,44
 687 2506 687 2506 967 2519 c 1,45,-1
 2288 2557 l 1,46,47
 2347 2557 2347 2557 2382.5 2548 c 128,-1,48
 2418 2539 2418 2539 2446.5 2525 c 128,-1,49
 2475 2511 2475 2511 2495 2497 c 128,-1,50
 2515 2483 2515 2483 2542 2455.5 c 128,-1,51
 2569 2428 2569 2428 2604.5 2385 c 128,-1,52
 2640 2342 2640 2342 2651 2321.5 c 128,-1,53
 2662 2301 2662 2301 2662 2282 c 128,-1,54
 2662 2263 2662 2263 2651 2256.5 c 128,-1,55
 2640 2250 2640 2250 2627 2250 c 128,-1,56
 2614 2250 2614 2250 2599.5 2256.5 c 128,-1,57
 2585 2263 2585 2263 2564.5 2270.5 c 128,-1,58
 2544 2278 2544 2278 2518.5 2286.5 c 128,-1,59
 2493 2295 2493 2295 2472 2299 c 128,-1,60
 2451 2303 2451 2303 2413 2305 c 1,61,-1
 1702 2317 l 1,62,63
 1536 2317 1536 2317 1353.5 2332.5 c 128,-1,64
 1171 2348 1171 2348 1009.5 2372.5 c 128,-1,65
 848 2397 848 2397 725.5 2426 c 128,-1,66
 603 2455 603 2455 557 2474 c 1,67,68
 479 2511 479 2511 420 2547 c 128,-1,69
 361 2583 361 2583 268 2709 c 1,28,29
EndSplineSet
EndChar

StartChar: one
Encoding: 49 49 20
Width: 38
Flags: W
LayerCount: 2
Fore
SplineSet
-1626 2973 m 1,0,1
 -1475 2974 -1475 2974 -1322.5 2974.5 c 128,-1,2
 -1170 2975 -1170 2975 -1020 2978 c 1,3,4
 -1009 2964 -1009 2964 -1011.5 2941 c 128,-1,5
 -1014 2918 -1014 2918 -1019 2903 c 1,6,7
 -1049 2896 -1049 2896 -1220 2896 c 128,-1,8
 -1391 2896 -1391 2896 -1517 2896 c 1,9,10
 -1517 2791 -1517 2791 -1512.5 2657.5 c 128,-1,11
 -1508 2524 -1508 2524 -1520 2524 c 0,12,13
 -1551 2524 -1551 2524 -1586.5 2519.5 c 128,-1,14
 -1622 2515 -1622 2515 -1648 2524 c 1,15,16
 -1652 2524 -1652 2524 -1652 2544 c 0,17,18
 -1652 2545 -1652 2545 -1650 2546 c 128,-1,19
 -1648 2547 -1648 2547 -1648 2548 c 0,20,21
 -1648 2656 -1648 2656 -1647 2744.5 c 128,-1,22
 -1646 2833 -1646 2833 -1646 2942 c 0,23,24
 -1646 2969 -1646 2969 -1626 2973 c 1,0,1
35 1940 m 1,25,26
 37 1940 37 1940 37 1938 c 256,27,28
 37 1936 37 1936 35 1936 c 1,29,30
 35 1936 35 1936 34.5 1936.5 c 128,-1,31
 34 1937 34 1937 34 1938 c 2,32,33
 34 1938 34 1938 34.5 1939 c 128,-1,34
 35 1940 35 1940 35 1940 c 1,25,26
-831 2930 m 2,35,-1
 -744 2930 l 2,36,37
 -736 2930 -736 2930 -720 2929.5 c 128,-1,38
 -704 2929 -704 2929 -699 2925 c 0,39,40
 -693 2919 -693 2919 -701 2918.5 c 128,-1,41
 -709 2918 -709 2918 -714 2885 c 2,42,-1
 -723 2815 l 1,43,44
 -730 2771 -730 2771 -766 2771 c 2,45,-1
 -852 2771 l 2,46,47
 -859 2771 -859 2771 -878 2772 c 128,-1,48
 -897 2773 -897 2773 -898 2780 c 0,49,50
 -899 2789 -899 2789 -892 2791.5 c 128,-1,51
 -885 2794 -885 2794 -882 2815 c 2,52,-1
 -873 2885 l 2,53,54
 -867 2930 -867 2930 -831 2930 c 2,35,-1
EndSplineSet
EndChar

StartChar: two
Encoding: 50 50 21
Width: 10
Flags: W
LayerCount: 2
Fore
SplineSet
-1148 2923 m 1,0,1
 -1147 2999 -1147 2999 -1145.5 3070 c 128,-1,2
 -1144 3141 -1144 3141 -1144 3227 c 0,3,4
 -1144 3255 -1144 3255 -1125 3258 c 1,5,6
 -973 3259 -973 3259 -820.5 3259.5 c 128,-1,7
 -668 3260 -668 3260 -518 3263 c 1,8,9
 -500 3238 -500 3238 -517 3188 c 1,10,11
 -547 3180 -547 3180 -718 3180.5 c 128,-1,12
 -889 3181 -889 3181 -1015 3181 c 1,13,14
 -1015 3076 -1015 3076 -1011.5 2967 c 128,-1,15
 -1008 2858 -1008 2858 -1020 2857 c 1,16,17
 -1036 2854 -1036 2854 -1051.5 2850 c 128,-1,18
 -1067 2846 -1067 2846 -1146 2849 c 1,19,20
 -1228 2848 -1228 2848 -1335 2845 c 128,-1,21
 -1442 2842 -1442 2842 -1522 2842 c 1,22,23
 -1522 2737 -1522 2737 -1519 2627 c 128,-1,24
 -1516 2517 -1516 2517 -1528 2516 c 1,25,26
 -1559 2516 -1559 2516 -1594.5 2511.5 c 128,-1,27
 -1630 2507 -1630 2507 -1656 2516 c 1,28,29
 -1660 2516 -1660 2516 -1660 2537 c 0,30,31
 -1660 2538 -1660 2538 -1658 2539 c 128,-1,32
 -1656 2540 -1656 2540 -1656 2541 c 0,33,34
 -1656 2649 -1656 2649 -1653.5 2714 c 128,-1,35
 -1651 2779 -1651 2779 -1651 2888 c 0,36,37
 -1651 2916 -1651 2916 -1632 2919 c 1,38,39
 -1512 2919 -1512 2919 -1390 2920 c 128,-1,40
 -1268 2921 -1268 2921 -1148 2923 c 1,0,1
8 1970 m 0,41,42
 10 1970 10 1970 10 1967 c 0,43,44
 10 1965 10 1965 8 1965 c 0,45,46
 5 1965 5 1965 5 1967 c 0,47,48
 5 1970 5 1970 8 1970 c 0,41,42
EndSplineSet
EndChar

StartChar: three
Encoding: 51 51 22
Width: 6
Flags: W
LayerCount: 2
Fore
SplineSet
-1148 2923 m 1,0,1
 -1147 2999 -1147 2999 -1145.5 3070 c 128,-1,2
 -1144 3141 -1144 3141 -1144 3227 c 0,3,4
 -1144 3255 -1144 3255 -1125 3258 c 1,5,6
 -973 3259 -973 3259 -820.5 3259.5 c 128,-1,7
 -668 3260 -668 3260 -518 3263 c 1,8,9
 -500 3238 -500 3238 -517 3188 c 1,10,11
 -547 3180 -547 3180 -718 3180.5 c 128,-1,12
 -889 3181 -889 3181 -1015 3181 c 1,13,14
 -1015 3076 -1015 3076 -1011.5 2967 c 128,-1,15
 -1008 2858 -1008 2858 -1020 2857 c 1,16,17
 -1036 2854 -1036 2854 -1051.5 2850 c 128,-1,18
 -1067 2846 -1067 2846 -1146 2849 c 1,19,20
 -1228 2848 -1228 2848 -1335 2845 c 128,-1,21
 -1442 2842 -1442 2842 -1522 2842 c 1,22,23
 -1522 2737 -1522 2737 -1519 2627 c 128,-1,24
 -1516 2517 -1516 2517 -1528 2516 c 1,25,26
 -1559 2516 -1559 2516 -1594.5 2511.5 c 128,-1,27
 -1630 2507 -1630 2507 -1656 2516 c 1,28,29
 -1660 2516 -1660 2516 -1660 2537 c 0,30,31
 -1660 2538 -1660 2538 -1658 2539 c 128,-1,32
 -1656 2540 -1656 2540 -1656 2541 c 0,33,34
 -1656 2649 -1656 2649 -1653.5 2714 c 128,-1,35
 -1651 2779 -1651 2779 -1651 2888 c 0,36,37
 -1651 2916 -1651 2916 -1632 2919 c 1,38,39
 -1512 2919 -1512 2919 -1390 2920 c 128,-1,40
 -1268 2921 -1268 2921 -1148 2923 c 1,0,1
8 1970 m 0,41,42
 10 1970 10 1970 10 1967 c 0,43,44
 10 1965 10 1965 8 1965 c 0,45,46
 5 1965 5 1965 5 1967 c 0,47,48
 5 1970 5 1970 8 1970 c 0,41,42
-1925 2853 m 2,49,-1
 -1838 2853 l 2,50,51
 -1830 2853 -1830 2853 -1813.5 2852 c 128,-1,52
 -1797 2851 -1797 2851 -1793 2847 c 0,53,54
 -1787 2841 -1787 2841 -1795 2840.5 c 128,-1,55
 -1803 2840 -1803 2840 -1808 2807 c 2,56,-1
 -1817 2738 l 2,57,58
 -1822 2693 -1822 2693 -1859 2693 c 2,59,-1
 -1946 2693 l 2,60,61
 -1953 2693 -1953 2693 -1972 2694 c 128,-1,62
 -1991 2695 -1991 2695 -1992 2703 c 1,63,64
 -1992 2712 -1992 2712 -1985 2714.5 c 128,-1,65
 -1978 2717 -1978 2717 -1976 2738 c 2,66,-1
 -1967 2807 l 1,67,68
 -1959 2853 -1959 2853 -1925 2853 c 2,49,-1
EndSplineSet
EndChar

StartChar: four
Encoding: 52 52 23
Width: 10
Flags: W
LayerCount: 2
Fore
SplineSet
-1148 2923 m 1,0,1
 -1147 2999 -1147 2999 -1145.5 3070 c 128,-1,2
 -1144 3141 -1144 3141 -1144 3227 c 0,3,4
 -1144 3255 -1144 3255 -1125 3258 c 1,5,6
 -973 3259 -973 3259 -820.5 3259.5 c 128,-1,7
 -668 3260 -668 3260 -518 3263 c 1,8,9
 -500 3238 -500 3238 -517 3188 c 1,10,11
 -547 3180 -547 3180 -718 3180.5 c 128,-1,12
 -889 3181 -889 3181 -1015 3181 c 1,13,14
 -1015 3076 -1015 3076 -1011.5 2967 c 128,-1,15
 -1008 2858 -1008 2858 -1020 2857 c 1,16,17
 -1036 2854 -1036 2854 -1051.5 2850 c 128,-1,18
 -1067 2846 -1067 2846 -1146 2849 c 1,19,20
 -1228 2848 -1228 2848 -1335 2845 c 128,-1,21
 -1442 2842 -1442 2842 -1522 2842 c 1,22,23
 -1522 2737 -1522 2737 -1519 2627 c 128,-1,24
 -1516 2517 -1516 2517 -1528 2516 c 1,25,26
 -1559 2516 -1559 2516 -1594.5 2511.5 c 128,-1,27
 -1630 2507 -1630 2507 -1656 2516 c 1,28,29
 -1660 2516 -1660 2516 -1660 2537 c 0,30,31
 -1660 2538 -1660 2538 -1658 2539 c 128,-1,32
 -1656 2540 -1656 2540 -1656 2541 c 0,33,34
 -1656 2649 -1656 2649 -1653.5 2714 c 128,-1,35
 -1651 2779 -1651 2779 -1651 2888 c 0,36,37
 -1651 2916 -1651 2916 -1632 2919 c 1,38,39
 -1512 2919 -1512 2919 -1390 2920 c 128,-1,40
 -1268 2921 -1268 2921 -1148 2923 c 1,0,1
8 1970 m 0,41,42
 10 1970 10 1970 10 1967 c 0,43,44
 10 1965 10 1965 8 1965 c 0,45,46
 5 1965 5 1965 5 1967 c 0,47,48
 5 1970 5 1970 8 1970 c 0,41,42
-1446 3211 m 2,49,-1
 -1358 3211 l 2,50,51
 -1351 3211 -1351 3211 -1334.5 3210.5 c 128,-1,52
 -1318 3210 -1318 3210 -1314 3206 c 0,53,54
 -1308 3200 -1308 3200 -1316 3199.5 c 128,-1,55
 -1324 3199 -1324 3199 -1329 3166 c 2,56,-1
 -1338 3096 l 2,57,58
 -1343 3051 -1343 3051 -1380 3051 c 2,59,-1
 -1466 3051 l 2,60,61
 -1474 3051 -1474 3051 -1493 3052 c 128,-1,62
 -1512 3053 -1512 3053 -1513 3061 c 1,63,64
 -1513 3070 -1513 3070 -1506 3072.5 c 128,-1,65
 -1499 3075 -1499 3075 -1497 3096 c 2,66,-1
 -1488 3166 l 1,67,68
 -1480 3211 -1480 3211 -1446 3211 c 2,49,-1
EndSplineSet
EndChar

StartChar: five
Encoding: 53 53 24
Width: 0
Flags: W
LayerCount: 2
Fore
SplineSet
-1148 2896 m 1,0,1
 -1147 2967 -1147 2967 -1145.5 3032.5 c 128,-1,2
 -1144 3098 -1144 3098 -1144 3178 c 0,3,4
 -1144 3203 -1144 3203 -1124 3206 c 1,5,6
 -973 3207 -973 3207 -820.5 3208 c 128,-1,7
 -668 3209 -668 3209 -519 3211 c 1,8,9
 -509 3198 -509 3198 -511.5 3177 c 128,-1,10
 -514 3156 -514 3156 -518 3142 c 1,11,12
 -549 3135 -549 3135 -719 3135.5 c 128,-1,13
 -889 3136 -889 3136 -1015 3136 c 1,14,15
 -1015 3037 -1015 3037 -1011 2936 c 128,-1,16
 -1007 2835 -1007 2835 -1019 2835 c 1,17,18
 -1036 2832 -1036 2832 -1052 2828.5 c 128,-1,19
 -1068 2825 -1068 2825 -1146 2828 c 1,20,21
 -1228 2826 -1228 2826 -1335 2823.5 c 128,-1,22
 -1442 2821 -1442 2821 -1522 2821 c 1,23,24
 -1522 2723 -1522 2723 -1519 2621.5 c 128,-1,25
 -1516 2520 -1516 2520 -1528 2519 c 1,26,27
 -1558 2519 -1558 2519 -1594 2514.5 c 128,-1,28
 -1630 2510 -1630 2510 -1657 2519 c 0,29,30
 -1660 2519 -1660 2519 -1660 2538 c 1,31,32
 -1660 2538 -1660 2538 -1658.5 2539 c 128,-1,33
 -1657 2540 -1657 2540 -1657 2542 c 0,34,35
 -1656 2642 -1656 2642 -1653.5 2702.5 c 128,-1,36
 -1651 2763 -1651 2763 -1651 2864 c 0,37,38
 -1651 2889 -1651 2889 -1632 2892 c 1,39,40
 -1512 2893 -1512 2893 -1390 2893.5 c 128,-1,41
 -1268 2894 -1268 2894 -1148 2896 c 1,0,1
-330 3169 m 2,42,-1
 -243 3169 l 2,43,44
 -236 3169 -236 3169 -220 3168.5 c 128,-1,45
 -204 3168 -204 3168 -198 3164 c 1,46,47
 -193 3158 -193 3158 -201 3157.5 c 128,-1,48
 -209 3157 -209 3157 -213 3124 c 2,49,-1
 -222 3054 l 1,50,51
 -230 3009 -230 3009 -265 3009 c 2,52,-1
 -351 3009 l 2,53,54
 -359 3009 -359 3009 -378 3010 c 128,-1,55
 -397 3011 -397 3011 -397 3019 c 1,56,57
 -399 3028 -399 3028 -391.5 3030.5 c 128,-1,58
 -384 3033 -384 3033 -381 3054 c 2,59,-1
 -372 3124 l 2,60,61
 -367 3169 -367 3169 -330 3169 c 2,42,-1
EndSplineSet
EndChar

StartChar: six
Encoding: 54 54 25
Width: 10
Flags: W
LayerCount: 2
Fore
SplineSet
-1147 3035 m 0,0,1
 -1147 3062 -1147 3062 -1127 3065 c 1,2,3
 -1007 3065 -1007 3065 -885.5 3066 c 128,-1,4
 -764 3067 -764 3067 -644 3069 c 1,5,6
 -642 3145 -642 3145 -642 3169 c 128,-1,7
 -642 3193 -642 3193 -642 3279 c 0,8,9
 -642 3306 -642 3306 -622 3310 c 1,10,11
 -471 3311 -471 3311 -318.5 3311.5 c 128,-1,12
 -166 3312 -166 3312 -16 3314 c 1,13,14
 -5 3300 -5 3300 -7.5 3277.5 c 128,-1,15
 -10 3255 -10 3255 -15 3240 c 1,16,17
 -46 3232 -46 3232 -216.5 3232.5 c 128,-1,18
 -387 3233 -387 3233 -513 3233 c 1,19,20
 -513 3128 -513 3128 -508 3066 c 128,-1,21
 -503 3004 -503 3004 -515 3003 c 1,22,23
 -532 3000 -532 3000 -547.5 2996 c 128,-1,24
 -563 2992 -563 2992 -642 2996 c 1,25,26
 -723 2994 -723 2994 -830 2991.5 c 128,-1,27
 -937 2989 -937 2989 -1018 2989 c 1,28,29
 -1018 2981 -1018 2981 -1018 2974 c 128,-1,30
 -1018 2967 -1018 2967 -1018 2961 c 1,31,-1
 -1018 2961 l 1,32,33
 -1016 2758 -1016 2758 -1020 2758 c 0,34,35
 -1037 2755 -1037 2755 -1052.5 2751.5 c 128,-1,36
 -1068 2748 -1068 2748 -1146 2751 c 1,37,38
 -1228 2749 -1228 2749 -1335 2746.5 c 128,-1,39
 -1442 2744 -1442 2744 -1523 2744 c 1,40,41
 -1524 2516 -1524 2516 -1528 2516 c 0,42,43
 -1559 2516 -1559 2516 -1594.5 2511.5 c 128,-1,44
 -1630 2507 -1630 2507 -1656 2516 c 1,45,46
 -1660 2516 -1660 2516 -1660 2537 c 0,47,48
 -1660 2538 -1660 2538 -1658 2539 c 128,-1,49
 -1656 2540 -1656 2540 -1656 2541 c 0,50,51
 -1656 2649 -1656 2649 -1654 2665 c 128,-1,52
 -1652 2681 -1652 2681 -1652 2790 c 0,53,54
 -1652 2817 -1652 2817 -1633 2821 c 1,55,56
 -1512 2821 -1512 2821 -1390.5 2822 c 128,-1,57
 -1269 2823 -1269 2823 -1149 2824 c 1,58,59
 -1148 2877 -1148 2877 -1147.5 2929 c 128,-1,60
 -1147 2981 -1147 2981 -1147 3035 c 0,0,1
8 1970 m 0,61,62
 10 1970 10 1970 10 1967 c 0,63,64
 10 1965 10 1965 8 1965 c 0,65,66
 5 1965 5 1965 5 1967 c 0,67,68
 5 1970 5 1970 8 1970 c 0,61,62
EndSplineSet
EndChar

StartChar: seven
Encoding: 55 55 26
Width: 10
Flags: W
LayerCount: 2
Fore
SplineSet
-1147 3035 m 0,0,1
 -1147 3062 -1147 3062 -1127 3065 c 1,2,3
 -1007 3065 -1007 3065 -885.5 3066 c 128,-1,4
 -764 3067 -764 3067 -644 3069 c 1,5,6
 -642 3145 -642 3145 -642 3169 c 128,-1,7
 -642 3193 -642 3193 -642 3279 c 0,8,9
 -642 3306 -642 3306 -622 3310 c 1,10,11
 -471 3311 -471 3311 -318.5 3311.5 c 128,-1,12
 -166 3312 -166 3312 -16 3314 c 1,13,14
 -5 3300 -5 3300 -7.5 3277.5 c 128,-1,15
 -10 3255 -10 3255 -15 3240 c 1,16,17
 -46 3232 -46 3232 -216.5 3232.5 c 128,-1,18
 -387 3233 -387 3233 -513 3233 c 1,19,20
 -513 3128 -513 3128 -508 3066 c 128,-1,21
 -503 3004 -503 3004 -515 3003 c 1,22,23
 -532 3000 -532 3000 -547.5 2996 c 128,-1,24
 -563 2992 -563 2992 -642 2996 c 1,25,26
 -723 2994 -723 2994 -830 2991.5 c 128,-1,27
 -937 2989 -937 2989 -1018 2989 c 1,28,29
 -1018 2981 -1018 2981 -1018 2974 c 128,-1,30
 -1018 2967 -1018 2967 -1018 2961 c 1,31,-1
 -1018 2961 l 1,32,33
 -1016 2758 -1016 2758 -1020 2758 c 0,34,35
 -1037 2755 -1037 2755 -1052.5 2751.5 c 128,-1,36
 -1068 2748 -1068 2748 -1146 2751 c 1,37,38
 -1228 2749 -1228 2749 -1335 2746.5 c 128,-1,39
 -1442 2744 -1442 2744 -1523 2744 c 1,40,41
 -1524 2516 -1524 2516 -1528 2516 c 0,42,43
 -1559 2516 -1559 2516 -1594.5 2511.5 c 128,-1,44
 -1630 2507 -1630 2507 -1656 2516 c 1,45,46
 -1660 2516 -1660 2516 -1660 2537 c 0,47,48
 -1660 2538 -1660 2538 -1658 2539 c 128,-1,49
 -1656 2540 -1656 2540 -1656 2541 c 0,50,51
 -1656 2649 -1656 2649 -1654 2665 c 128,-1,52
 -1652 2681 -1652 2681 -1652 2790 c 0,53,54
 -1652 2817 -1652 2817 -1633 2821 c 1,55,56
 -1512 2821 -1512 2821 -1390.5 2822 c 128,-1,57
 -1269 2823 -1269 2823 -1149 2824 c 1,58,59
 -1148 2877 -1148 2877 -1147.5 2929 c 128,-1,60
 -1147 2981 -1147 2981 -1147 3035 c 0,0,1
-232 1970 m 0,61,62
 -230 1970 -230 1970 -230 1967 c 0,63,64
 -230 1965 -230 1965 -232 1965 c 0,65,66
 -235 1965 -235 1965 -235 1967 c 0,67,68
 -235 1970 -235 1970 -232 1970 c 0,61,62
-1928 2773 m 2,69,-1
 -1841 2773 l 2,70,71
 -1833 2773 -1833 2773 -1817 2772.5 c 128,-1,72
 -1801 2772 -1801 2772 -1796 2768 c 0,73,74
 -1790 2762 -1790 2762 -1798 2761.5 c 128,-1,75
 -1806 2761 -1806 2761 -1811 2728 c 2,76,-1
 -1821 2658 l 1,77,78
 -1826 2613 -1826 2613 -1863 2613 c 2,79,-1
 -1949 2613 l 2,80,81
 -1956 2613 -1956 2613 -1975.5 2614 c 128,-1,82
 -1995 2615 -1995 2615 -1996 2623 c 1,83,84
 -1996 2632 -1996 2632 -1989 2634.5 c 128,-1,85
 -1982 2637 -1982 2637 -1980 2658 c 2,86,-1
 -1970 2728 l 2,87,88
 -1964 2773 -1964 2773 -1928 2773 c 2,69,-1
EndSplineSet
EndChar

StartChar: eight
Encoding: 56 56 27
Width: 10
Flags: W
LayerCount: 2
Fore
SplineSet
-1147 3035 m 0,0,1
 -1147 3062 -1147 3062 -1127 3065 c 1,2,3
 -1007 3065 -1007 3065 -885.5 3066 c 128,-1,4
 -764 3067 -764 3067 -644 3069 c 1,5,6
 -642 3145 -642 3145 -642 3169 c 128,-1,7
 -642 3193 -642 3193 -642 3279 c 0,8,9
 -642 3306 -642 3306 -622 3310 c 1,10,11
 -471 3311 -471 3311 -318.5 3311.5 c 128,-1,12
 -166 3312 -166 3312 -16 3314 c 1,13,14
 -5 3300 -5 3300 -7.5 3277.5 c 128,-1,15
 -10 3255 -10 3255 -15 3240 c 1,16,17
 -46 3232 -46 3232 -216.5 3232.5 c 128,-1,18
 -387 3233 -387 3233 -513 3233 c 1,19,20
 -513 3128 -513 3128 -508 3066 c 128,-1,21
 -503 3004 -503 3004 -515 3003 c 1,22,23
 -532 3000 -532 3000 -547.5 2996 c 128,-1,24
 -563 2992 -563 2992 -642 2996 c 1,25,26
 -723 2994 -723 2994 -830 2991.5 c 128,-1,27
 -937 2989 -937 2989 -1018 2989 c 1,28,29
 -1018 2981 -1018 2981 -1018 2974 c 128,-1,30
 -1018 2967 -1018 2967 -1018 2961 c 1,31,-1
 -1018 2961 l 1,32,33
 -1016 2758 -1016 2758 -1020 2758 c 0,34,35
 -1037 2755 -1037 2755 -1052.5 2751.5 c 128,-1,36
 -1068 2748 -1068 2748 -1146 2751 c 1,37,38
 -1228 2749 -1228 2749 -1335 2746.5 c 128,-1,39
 -1442 2744 -1442 2744 -1523 2744 c 1,40,41
 -1524 2516 -1524 2516 -1528 2516 c 0,42,43
 -1559 2516 -1559 2516 -1594.5 2511.5 c 128,-1,44
 -1630 2507 -1630 2507 -1656 2516 c 1,45,46
 -1660 2516 -1660 2516 -1660 2537 c 0,47,48
 -1660 2538 -1660 2538 -1658 2539 c 128,-1,49
 -1656 2540 -1656 2540 -1656 2541 c 0,50,51
 -1656 2649 -1656 2649 -1654 2665 c 128,-1,52
 -1652 2681 -1652 2681 -1652 2790 c 0,53,54
 -1652 2817 -1652 2817 -1633 2821 c 1,55,56
 -1512 2821 -1512 2821 -1390.5 2822 c 128,-1,57
 -1269 2823 -1269 2823 -1149 2824 c 1,58,59
 -1148 2877 -1148 2877 -1147.5 2929 c 128,-1,60
 -1147 2981 -1147 2981 -1147 3035 c 0,0,1
8 1970 m 0,61,62
 10 1970 10 1970 10 1967 c 0,63,64
 10 1965 10 1965 8 1965 c 0,65,66
 5 1965 5 1965 5 1967 c 0,67,68
 5 1970 5 1970 8 1970 c 0,61,62
-945 3357 m 2,69,-1
 -858 3357 l 2,70,71
 -850 3357 -850 3357 -834 3356.5 c 128,-1,72
 -818 3356 -818 3356 -813 3352 c 0,73,74
 -807 3346 -807 3346 -815 3345.5 c 128,-1,75
 -823 3345 -823 3345 -828 3312 c 2,76,-1
 -838 3243 l 1,77,78
 -843 3198 -843 3198 -880 3198 c 2,79,-1
 -966 3198 l 2,80,81
 -973 3198 -973 3198 -992.5 3199 c 128,-1,82
 -1012 3200 -1012 3200 -1013 3208 c 1,83,84
 -1013 3217 -1013 3217 -1006 3219.5 c 128,-1,85
 -999 3222 -999 3222 -997 3243 c 1,86,-1
 -987 3312 l 2,87,88
 -981 3357 -981 3357 -945 3357 c 2,69,-1
EndSplineSet
EndChar

StartChar: nine
Encoding: 57 57 28
Width: 0
Flags: W
LayerCount: 2
Fore
SplineSet
-1147 3035 m 0,0,1
 -1147 3062 -1147 3062 -1127 3065 c 1,2,3
 -1007 3065 -1007 3065 -885.5 3066 c 128,-1,4
 -764 3067 -764 3067 -644 3069 c 1,5,6
 -642 3145 -642 3145 -642 3169 c 128,-1,7
 -642 3193 -642 3193 -642 3279 c 0,8,9
 -642 3306 -642 3306 -622 3310 c 1,10,11
 -471 3311 -471 3311 -318.5 3311.5 c 128,-1,12
 -166 3312 -166 3312 -16 3314 c 1,13,14
 -5 3300 -5 3300 -7.5 3277.5 c 128,-1,15
 -10 3255 -10 3255 -15 3240 c 1,16,17
 -46 3232 -46 3232 -216.5 3232.5 c 128,-1,18
 -387 3233 -387 3233 -513 3233 c 1,19,20
 -513 3128 -513 3128 -508 3066 c 128,-1,21
 -503 3004 -503 3004 -515 3003 c 1,22,23
 -532 3000 -532 3000 -547.5 2996 c 128,-1,24
 -563 2992 -563 2992 -642 2996 c 1,25,26
 -723 2994 -723 2994 -830 2991.5 c 128,-1,27
 -937 2989 -937 2989 -1018 2989 c 1,28,29
 -1018 2981 -1018 2981 -1018 2974 c 128,-1,30
 -1018 2967 -1018 2967 -1018 2961 c 1,31,-1
 -1018 2961 l 1,32,33
 -1016 2758 -1016 2758 -1020 2758 c 0,34,35
 -1037 2755 -1037 2755 -1052.5 2751.5 c 128,-1,36
 -1068 2748 -1068 2748 -1146 2751 c 1,37,38
 -1228 2749 -1228 2749 -1335 2746.5 c 128,-1,39
 -1442 2744 -1442 2744 -1523 2744 c 1,40,41
 -1524 2516 -1524 2516 -1528 2516 c 0,42,43
 -1559 2516 -1559 2516 -1594.5 2511.5 c 128,-1,44
 -1630 2507 -1630 2507 -1656 2516 c 1,45,46
 -1660 2516 -1660 2516 -1660 2537 c 0,47,48
 -1660 2538 -1660 2538 -1658 2539 c 128,-1,49
 -1656 2540 -1656 2540 -1656 2541 c 0,50,51
 -1656 2649 -1656 2649 -1654 2665 c 128,-1,52
 -1652 2681 -1652 2681 -1652 2790 c 0,53,54
 -1652 2817 -1652 2817 -1633 2821 c 1,55,56
 -1512 2821 -1512 2821 -1390.5 2822 c 128,-1,57
 -1269 2823 -1269 2823 -1149 2824 c 1,58,59
 -1148 2877 -1148 2877 -1147.5 2929 c 128,-1,60
 -1147 2981 -1147 2981 -1147 3035 c 0,0,1
174 3272 m 2,61,-1
 261 3272 l 2,62,63
 268 3272 268 3272 284 3271.5 c 128,-1,64
 300 3271 300 3271 306 3267 c 1,65,66
 311 3261 311 3261 303 3260.5 c 128,-1,67
 295 3260 295 3260 290 3227 c 2,68,-1
 281 3157 l 2,69,70
 275 3113 275 3113 239 3113 c 2,71,-1
 153 3113 l 2,72,73
 145 3113 145 3113 125.5 3114 c 128,-1,74
 106 3115 106 3115 106 3122 c 0,75,76
 105 3131 105 3131 112 3133.5 c 128,-1,77
 119 3136 119 3136 122 3157 c 2,78,-1
 132 3227 l 1,79,80
 137 3272 137 3272 174 3272 c 2,61,-1
EndSplineSet
EndChar

StartChar: colon
Encoding: 58 58 29
Width: 2948
Flags: W
LayerCount: 2
Fore
SplineSet
1240 2789 m 1,0,1
 1302 2789 1302 2789 1369 2787.5 c 128,-1,2
 1436 2786 1436 2786 1490 2779 c 1,3,4
 1528 2779 1528 2779 1571.5 2678.5 c 128,-1,5
 1615 2578 1615 2578 1673 2483 c 1,6,7
 1692 2449 1692 2449 1712 2446 c 1,8,9
 1727 2442 1727 2442 1736.5 2430 c 128,-1,10
 1746 2418 1746 2418 1719 2409 c 1,11,12
 1657 2399 1657 2399 1593 2401 c 128,-1,13
 1529 2403 1529 2403 1472 2409 c 1,14,15
 1418 2428 1418 2428 1387.5 2499 c 128,-1,16
 1357 2570 1357 2570 1294 2706 c 1,17,18
 1289 2713 1289 2713 1272 2729.5 c 128,-1,19
 1255 2746 1255 2746 1234 2749 c 0,20,21
 1204 2753 1204 2753 1201 2770.5 c 128,-1,22
 1198 2788 1198 2788 1240 2789 c 1,0,1
687 2789 m 1,23,24
 748 2789 748 2789 815.5 2787.5 c 128,-1,25
 883 2786 883 2786 937 2779 c 1,26,27
 975 2779 975 2779 1018 2678.5 c 128,-1,28
 1061 2578 1061 2578 1119 2483 c 1,29,30
 1138 2449 1138 2449 1158 2446 c 1,31,32
 1174 2442 1174 2442 1183 2430 c 128,-1,33
 1192 2418 1192 2418 1166 2409 c 1,34,35
 1103 2399 1103 2399 1039.5 2401 c 128,-1,36
 976 2403 976 2403 919 2409 c 1,37,38
 865 2428 865 2428 834.5 2499 c 128,-1,39
 804 2570 804 2570 741 2706 c 1,40,41
 735 2713 735 2713 718 2729.5 c 128,-1,42
 701 2746 701 2746 680 2749 c 0,43,44
 651 2753 651 2753 647.5 2770.5 c 128,-1,45
 644 2788 644 2788 687 2789 c 1,23,24
1802 2361 m 1,46,47
 1880 2390 1880 2390 2065 2358 c 1,48,49
 2173 2331 2173 2331 2256.5 2286 c 128,-1,50
 2340 2241 2340 2241 2385 2128 c 1,51,52
 2415 2019 2415 2019 2405 1954.5 c 128,-1,53
 2395 1890 2395 1890 2333 1805 c 1,54,55
 2274 1734 2274 1734 2195 1697 c 128,-1,56
 2116 1660 2116 1660 2001 1636 c 1,57,58
 1887 1614 1887 1614 1815 1614.5 c 128,-1,59
 1743 1615 1743 1615 1660 1618 c 1,60,61
 1578 1622 1578 1622 1507.5 1631.5 c 128,-1,62
 1437 1641 1437 1641 1337 1672 c 1,63,64
 1171 1718 1171 1718 1009 1797 c 0,65,66
 918 1842 918 1842 816.5 1894 c 128,-1,67
 715 1946 715 1946 590 2017 c 1,68,69
 532 2052 532 2052 464.5 2091.5 c 128,-1,70
 397 2131 397 2131 318 2172 c 1,71,72
 258 2209 258 2209 200.5 2246.5 c 128,-1,73
 143 2284 143 2284 152 2322 c 128,-1,74
 161 2360 161 2360 196 2358 c 128,-1,75
 231 2356 231 2356 415.5 2360 c 128,-1,76
 600 2364 600 2364 738 2361 c 1,77,78
 793 2321 793 2321 736.5 2303 c 128,-1,79
 680 2285 680 2285 653 2258 c 0,80,81
 602 2205 602 2205 607.5 2174 c 128,-1,82
 613 2143 613 2143 624 2125.5 c 128,-1,83
 635 2108 635 2108 657.5 2088 c 128,-1,84
 680 2068 680 2068 769 2007 c 128,-1,85
 858 1946 858 1946 990 1878 c 1,86,87
 1108 1826 1108 1826 1176 1793.5 c 128,-1,88
 1244 1761 1244 1761 1396 1720 c 1,89,90
 1509 1698 1509 1698 1625.5 1693 c 128,-1,91
 1742 1688 1742 1688 1862 1727 c 1,92,93
 1946 1764 1946 1764 1980.5 1790 c 128,-1,94
 2015 1816 2015 1816 2057 1880 c 1,95,96
 2094 1942 2094 1942 2099.5 1984.5 c 128,-1,97
 2105 2027 2105 2027 2101 2083 c 1,98,99
 2098 2140 2098 2140 2087 2165.5 c 128,-1,100
 2076 2191 2076 2191 2058 2217.5 c 128,-1,101
 2040 2244 2040 2244 2012.5 2265.5 c 128,-1,102
 1985 2287 1985 2287 1928 2296 c 128,-1,103
 1871 2305 1871 2305 1815 2311 c 1,104,105
 1791 2316 1791 2316 1784.5 2331.5 c 128,-1,106
 1778 2347 1778 2347 1802 2361 c 1,46,47
2772 3844 m 1,107,108
 2805 3838 2805 3838 2801 3810 c 128,-1,109
 2797 3782 2797 3782 2759 3779 c 1,110,111
 2717 3764 2717 3764 2690.5 3670.5 c 128,-1,112
 2664 3577 2664 3577 2634 3473 c 0,113,114
 2565 3229 2565 3229 2507.5 3077.5 c 128,-1,115
 2450 2926 2450 2926 2398.5 2865 c 128,-1,116
 2347 2804 2347 2804 2275 2773 c 0,117,118
 2164 2725 2164 2725 2056.5 2702 c 128,-1,119
 1949 2679 1949 2679 1870 2679 c 1,120,121
 1909 2586 1909 2586 2001 2550.5 c 128,-1,122
 2093 2515 2093 2515 2054 2473 c 1,123,124
 2031 2450 2031 2450 1912 2532.5 c 128,-1,125
 1793 2615 1793 2615 1749 2695 c 1,126,127
 1749 2746 1749 2746 1790.5 2737.5 c 128,-1,128
 1832 2729 1832 2729 1880 2726 c 256,129,130
 1928 2723 1928 2723 1978 2731 c 128,-1,131
 2028 2739 2028 2739 2112 2782 c 0,132,133
 2153 2803 2153 2803 2189.5 2875.5 c 128,-1,134
 2226 2948 2226 2948 2255.5 3036.5 c 128,-1,135
 2285 3125 2285 3125 2305.5 3212 c 128,-1,136
 2326 3299 2326 3299 2359.5 3462.5 c 128,-1,137
 2393 3626 2393 3626 2417 3681.5 c 128,-1,138
 2441 3737 2441 3737 2485 3771.5 c 128,-1,139
 2529 3806 2529 3806 2569 3816 c 128,-1,140
 2609 3826 2609 3826 2658 3831 c 128,-1,141
 2707 3836 2707 3836 2772 3844 c 1,107,108
962 3844 m 1,142,143
 995 3838 995 3838 991 3810 c 128,-1,144
 987 3782 987 3782 949 3779 c 1,145,146
 907 3764 907 3764 880.5 3670.5 c 128,-1,147
 854 3577 854 3577 824 3473 c 0,148,149
 755 3229 755 3229 697.5 3077.5 c 128,-1,150
 640 2926 640 2926 588.5 2865 c 128,-1,151
 537 2804 537 2804 465 2773 c 0,152,153
 354 2725 354 2725 246.5 2702 c 128,-1,154
 139 2679 139 2679 60 2679 c 1,155,156
 99 2586 99 2586 191 2550.5 c 128,-1,157
 283 2515 283 2515 244 2473 c 1,158,159
 221 2450 221 2450 102 2532.5 c 128,-1,160
 -17 2615 -17 2615 -61 2695 c 1,161,162
 -61 2746 -61 2746 -19.5 2737.5 c 128,-1,163
 22 2729 22 2729 70 2726 c 256,164,165
 118 2723 118 2723 168 2731 c 128,-1,166
 218 2739 218 2739 302 2782 c 0,167,168
 343 2803 343 2803 379.5 2875.5 c 128,-1,169
 416 2948 416 2948 445.5 3036.5 c 128,-1,170
 475 3125 475 3125 495.5 3212 c 128,-1,171
 516 3299 516 3299 549.5 3462.5 c 128,-1,172
 583 3626 583 3626 607 3681.5 c 128,-1,173
 631 3737 631 3737 675 3771.5 c 128,-1,174
 719 3806 719 3806 759 3816 c 128,-1,175
 799 3826 799 3826 848 3831 c 128,-1,176
 897 3836 897 3836 962 3844 c 1,142,143
1857 4102 m 1,177,178
 1888 4097 1888 4097 1884 4073.5 c 128,-1,179
 1880 4050 1880 4050 1845 4047 c 1,180,181
 1806 4035 1806 4035 1781.5 3956 c 128,-1,182
 1757 3877 1757 3877 1730 3789 c 0,183,184
 1666 3583 1666 3583 1612.5 3455 c 128,-1,185
 1559 3327 1559 3327 1511.5 3276 c 128,-1,186
 1464 3225 1464 3225 1398 3199 c 0,187,188
 1295 3158 1295 3158 1195.5 3139 c 128,-1,189
 1096 3120 1096 3120 1023 3120 c 1,190,191
 1059 3041 1059 3041 1144 3011 c 128,-1,192
 1229 2981 1229 2981 1193 2946 c 1,193,194
 1172 2927 1172 2927 1062 2996.5 c 128,-1,195
 952 3066 952 3066 911 3133 c 1,196,197
 911 3176 911 3176 949.5 3169 c 128,-1,198
 988 3162 988 3162 1032 3159 c 1,199,200
 1077 3157 1077 3157 1123 3163.5 c 128,-1,201
 1169 3170 1169 3170 1247 3206 c 0,202,203
 1285 3224 1285 3224 1318.5 3285 c 128,-1,204
 1352 3346 1352 3346 1379.5 3421 c 128,-1,205
 1407 3496 1407 3496 1426 3569 c 128,-1,206
 1445 3642 1445 3642 1475.5 3780 c 128,-1,207
 1506 3918 1506 3918 1528.5 3965 c 128,-1,208
 1551 4012 1551 4012 1591.5 4041 c 128,-1,209
 1632 4070 1632 4070 1669 4078.5 c 128,-1,210
 1706 4087 1706 4087 1751.5 4091 c 128,-1,211
 1797 4095 1797 4095 1857 4102 c 1,177,178
EndSplineSet
EndChar

StartChar: semicolon
Encoding: 59 59 30
Width: 3236
Flags: W
LayerCount: 2
Fore
SplineSet
945 2768 m 1,0,1
 1006 2768 1006 2768 1073.5 2766 c 128,-1,2
 1141 2764 1141 2764 1195 2754 c 1,3,4
 1233 2754 1233 2754 1276.5 2623 c 128,-1,5
 1320 2492 1320 2492 1378 2367 c 1,6,7
 1395 2324 1395 2324 1417 2319 c 1,8,9
 1432 2313 1432 2313 1441.5 2297.5 c 128,-1,10
 1451 2282 1451 2282 1424 2270 c 1,11,12
 1362 2258 1362 2258 1298 2260 c 128,-1,13
 1234 2262 1234 2262 1177 2270 c 1,14,15
 1123 2295 1123 2295 1092.5 2388 c 128,-1,16
 1062 2481 1062 2481 999 2658 c 1,17,18
 993 2668 993 2668 976.5 2689.5 c 128,-1,19
 960 2711 960 2711 938 2716 c 1,20,21
 909 2721 909 2721 905.5 2743.5 c 128,-1,22
 902 2766 902 2766 945 2768 c 1,0,1
1498 2768 m 1,23,24
 1560 2768 1560 2768 1627.5 2766 c 128,-1,25
 1695 2764 1695 2764 1749 2754 c 1,26,27
 1787 2754 1787 2754 1830 2623 c 128,-1,28
 1873 2492 1873 2492 1931 2367 c 0,29,30
 1950 2324 1950 2324 1970 2319 c 1,31,32
 1986 2313 1986 2313 1995 2297.5 c 128,-1,33
 2004 2282 2004 2282 1978 2270 c 1,34,35
 1915 2258 1915 2258 1851.5 2260 c 128,-1,36
 1788 2262 1788 2262 1731 2270 c 1,37,38
 1676 2295 1676 2295 1646 2388 c 128,-1,39
 1616 2481 1616 2481 1552 2658 c 1,40,41
 1547 2668 1547 2668 1530 2689.5 c 128,-1,42
 1513 2711 1513 2711 1492 2716 c 1,43,44
 1463 2721 1463 2721 1459.5 2743.5 c 128,-1,45
 1456 2766 1456 2766 1498 2768 c 1,23,24
173.5 2127.5 m 128,-1,47
 184 2144 184 2144 197 2145.5 c 128,-1,48
 210 2147 210 2147 225 2138 c 128,-1,49
 240 2129 240 2129 262 2118 c 128,-1,50
 284 2107 284 2107 319 2100 c 128,-1,51
 354 2093 354 2093 417 2093 c 2,52,-1
 2514 2093 l 1,53,54
 2572 2094 2572 2094 2619 2084 c 128,-1,55
 2666 2074 2666 2074 2705 2053.5 c 128,-1,56
 2744 2033 2744 2033 2765.5 2016.5 c 128,-1,57
 2787 2000 2787 2000 2824.5 1961 c 128,-1,58
 2862 1922 2862 1922 2889 1884.5 c 128,-1,59
 2916 1847 2916 1847 2900 1812 c 1,60,61
 2884 1788 2884 1788 2862.5 1802 c 128,-1,62
 2841 1816 2841 1816 2812 1826.5 c 128,-1,63
 2783 1837 2783 1837 2749 1841 c 128,-1,64
 2715 1845 2715 1845 2644 1845 c 2,65,-1
 577 1845 l 1,66,67
 529 1846 529 1846 491 1852 c 128,-1,68
 453 1858 453 1858 431 1865 c 128,-1,69
 409 1872 409 1872 385 1884 c 128,-1,70
 361 1896 361 1896 333.5 1914 c 128,-1,71
 306 1932 306 1932 275 1963.5 c 128,-1,72
 244 1995 244 1995 212 2036.5 c 128,-1,73
 180 2078 180 2078 171.5 2094.5 c 128,-1,46
 163 2111 163 2111 173.5 2127.5 c 128,-1,47
3043 3724 m 1,74,75
 3076 3718 3076 3718 3072 3690 c 128,-1,76
 3068 3662 3068 3662 3030 3659 c 1,77,78
 2988 3644 2988 3644 2961.5 3550.5 c 128,-1,79
 2935 3457 2935 3457 2905 3353 c 0,80,81
 2836 3109 2836 3109 2778.5 2957.5 c 128,-1,82
 2721 2806 2721 2806 2669.5 2745 c 128,-1,83
 2618 2684 2618 2684 2546 2653 c 0,84,85
 2435 2605 2435 2605 2327.5 2582 c 128,-1,86
 2220 2559 2220 2559 2141 2559 c 1,87,88
 2180 2466 2180 2466 2272 2430.5 c 128,-1,89
 2364 2395 2364 2395 2325 2353 c 1,90,91
 2302 2330 2302 2330 2183 2412.5 c 128,-1,92
 2064 2495 2064 2495 2020 2575 c 1,93,94
 2020 2626 2020 2626 2061.5 2617.5 c 128,-1,95
 2103 2609 2103 2609 2151 2606 c 256,96,97
 2199 2603 2199 2603 2249 2611 c 128,-1,98
 2299 2619 2299 2619 2383 2662 c 0,99,100
 2424 2683 2424 2683 2460.5 2755.5 c 128,-1,101
 2497 2828 2497 2828 2526.5 2916.5 c 128,-1,102
 2556 3005 2556 3005 2576.5 3092 c 128,-1,103
 2597 3179 2597 3179 2630.5 3342.5 c 128,-1,104
 2664 3506 2664 3506 2688 3561.5 c 128,-1,105
 2712 3617 2712 3617 2756 3651.5 c 128,-1,106
 2800 3686 2800 3686 2840 3696 c 128,-1,107
 2880 3706 2880 3706 2929 3711 c 128,-1,108
 2978 3716 2978 3716 3043 3724 c 1,74,75
1143 3724 m 1,109,110
 1176 3718 1176 3718 1172 3690 c 128,-1,111
 1168 3662 1168 3662 1130 3659 c 1,112,113
 1088 3644 1088 3644 1061.5 3550.5 c 128,-1,114
 1035 3457 1035 3457 1005 3353 c 0,115,116
 936 3109 936 3109 878.5 2957.5 c 128,-1,117
 821 2806 821 2806 769.5 2745 c 128,-1,118
 718 2684 718 2684 646 2653 c 0,119,120
 535 2605 535 2605 427.5 2582 c 128,-1,121
 320 2559 320 2559 241 2559 c 1,122,123
 280 2466 280 2466 372 2430.5 c 128,-1,124
 464 2395 464 2395 425 2353 c 1,125,126
 402 2330 402 2330 283 2412.5 c 128,-1,127
 164 2495 164 2495 120 2575 c 1,128,129
 120 2626 120 2626 161.5 2617.5 c 128,-1,130
 203 2609 203 2609 251 2606 c 256,131,132
 299 2603 299 2603 349 2611 c 128,-1,133
 399 2619 399 2619 483 2662 c 0,134,135
 524 2683 524 2683 560.5 2755.5 c 128,-1,136
 597 2828 597 2828 626.5 2916.5 c 128,-1,137
 656 3005 656 3005 676.5 3092 c 128,-1,138
 697 3179 697 3179 730.5 3342.5 c 128,-1,139
 764 3506 764 3506 788 3561.5 c 128,-1,140
 812 3617 812 3617 856 3651.5 c 128,-1,141
 900 3686 900 3686 940 3696 c 128,-1,142
 980 3706 980 3706 1029 3711 c 128,-1,143
 1078 3716 1078 3716 1143 3724 c 1,109,110
2048 4082 m 1,144,145
 2079 4077 2079 4077 2075 4053.5 c 128,-1,146
 2071 4030 2071 4030 2036 4027 c 1,147,148
 1997 4015 1997 4015 1972.5 3936 c 128,-1,149
 1948 3857 1948 3857 1921 3769 c 0,150,151
 1857 3563 1857 3563 1803.5 3435 c 128,-1,152
 1750 3307 1750 3307 1702.5 3256 c 128,-1,153
 1655 3205 1655 3205 1589 3179 c 0,154,155
 1486 3138 1486 3138 1386.5 3119 c 128,-1,156
 1287 3100 1287 3100 1214 3100 c 1,157,158
 1250 3021 1250 3021 1335 2991 c 128,-1,159
 1420 2961 1420 2961 1384 2926 c 1,160,161
 1363 2907 1363 2907 1253 2976.5 c 128,-1,162
 1143 3046 1143 3046 1102 3113 c 1,163,164
 1102 3156 1102 3156 1140.5 3149 c 128,-1,165
 1179 3142 1179 3142 1223 3139 c 1,166,167
 1268 3137 1268 3137 1314 3143.5 c 128,-1,168
 1360 3150 1360 3150 1438 3186 c 0,169,170
 1476 3204 1476 3204 1509.5 3265 c 128,-1,171
 1543 3326 1543 3326 1570.5 3401 c 128,-1,172
 1598 3476 1598 3476 1617 3549 c 128,-1,173
 1636 3622 1636 3622 1666.5 3760 c 128,-1,174
 1697 3898 1697 3898 1719.5 3945 c 128,-1,175
 1742 3992 1742 3992 1782.5 4021 c 128,-1,176
 1823 4050 1823 4050 1860 4058.5 c 128,-1,177
 1897 4067 1897 4067 1942.5 4071 c 128,-1,178
 1988 4075 1988 4075 2048 4082 c 1,144,145
EndSplineSet
EndChar

StartChar: less
Encoding: 60 60 31
Width: 10
Flags: W
LayerCount: 2
Fore
SplineSet
-1139 2715 m 0,0,1
 -1139 2627 -1139 2627 -1234 2627 c 0,2,3
 -1331 2627 -1331 2627 -1331 2715 c 0,4,5
 -1331 2795 -1331 2795 -1234 2795 c 0,6,7
 -1139 2795 -1139 2795 -1139 2715 c 0,0,1
-665 2627 m 1,8,-1
 -725 2627 l 1,9,10
 -732 2816 -732 2816 -893 2937 c 128,-1,11
 -1054 3058 -1054 3058 -1234 3058 c 0,12,13
 -1411 3058 -1411 3058 -1573 2935.5 c 128,-1,14
 -1735 2813 -1735 2813 -1743 2627 c 1,15,-1
 -1800 2627 l 1,16,17
 -1782 2856 -1782 2856 -1632.5 3044.5 c 128,-1,18
 -1483 3233 -1483 3233 -1234 3233 c 0,19,20
 -986 3233 -986 3233 -834 3046 c 128,-1,21
 -682 2859 -682 2859 -665 2627 c 1,8,-1
8 1970 m 0,22,23
 10 1970 10 1970 10 1967 c 0,24,25
 10 1965 10 1965 8 1965 c 0,26,27
 5 1965 5 1965 5 1967 c 0,28,29
 5 1970 5 1970 8 1970 c 0,22,23
EndSplineSet
EndChar

StartChar: equal
Encoding: 61 61 32
Width: 3103
Flags: W
LayerCount: 2
Fore
SplineSet
177.5 2127.5 m 128,-1,1
 188 2144 188 2144 201 2145.5 c 128,-1,2
 214 2147 214 2147 229 2138 c 128,-1,3
 244 2129 244 2129 266 2118 c 128,-1,4
 288 2107 288 2107 323 2100 c 128,-1,5
 358 2093 358 2093 421 2093 c 2,6,-1
 2518 2093 l 1,7,8
 2576 2094 2576 2094 2623 2084 c 128,-1,9
 2670 2074 2670 2074 2709 2053.5 c 128,-1,10
 2748 2033 2748 2033 2769.5 2016.5 c 128,-1,11
 2791 2000 2791 2000 2828.5 1961 c 128,-1,12
 2866 1922 2866 1922 2893 1884.5 c 128,-1,13
 2920 1847 2920 1847 2904 1812 c 1,14,15
 2888 1788 2888 1788 2866.5 1802 c 128,-1,16
 2845 1816 2845 1816 2816 1826.5 c 128,-1,17
 2787 1837 2787 1837 2753 1841 c 128,-1,18
 2719 1845 2719 1845 2648 1845 c 2,19,-1
 581 1845 l 1,20,21
 533 1846 533 1846 495 1852 c 128,-1,22
 457 1858 457 1858 435 1865 c 128,-1,23
 413 1872 413 1872 389 1884 c 128,-1,24
 365 1896 365 1896 337.5 1914 c 128,-1,25
 310 1932 310 1932 279 1963.5 c 128,-1,26
 248 1995 248 1995 216 2036.5 c 128,-1,27
 184 2078 184 2078 175.5 2094.5 c 128,-1,0
 167 2111 167 2111 177.5 2127.5 c 128,-1,1
891 2369 m 1,28,29
 813 2340 813 2340 628 2372 c 1,30,31
 520 2399 520 2399 436.5 2444 c 128,-1,32
 353 2489 353 2489 308 2602 c 1,33,34
 278 2711 278 2711 288 2775.5 c 128,-1,35
 298 2840 298 2840 360 2925 c 1,36,37
 419 2996 419 2996 498 3033 c 128,-1,38
 577 3070 577 3070 692 3094 c 1,39,40
 806 3116 806 3116 878 3115.5 c 128,-1,41
 950 3115 950 3115 1033 3112 c 1,42,43
 1115 3108 1115 3108 1185.5 3098.5 c 128,-1,44
 1256 3089 1256 3089 1356 3058 c 1,45,46
 1522 3012 1522 3012 1684 2933 c 0,47,48
 1775 2888 1775 2888 1876.5 2836 c 128,-1,49
 1978 2784 1978 2784 2103 2713 c 1,50,51
 2161 2678 2161 2678 2228.5 2638.5 c 128,-1,52
 2296 2599 2296 2599 2375 2558 c 1,53,54
 2435 2521 2435 2521 2492.5 2483.5 c 128,-1,55
 2550 2446 2550 2446 2541 2408 c 128,-1,56
 2532 2370 2532 2370 2497 2372 c 128,-1,57
 2462 2374 2462 2374 2277.5 2370 c 128,-1,58
 2093 2366 2093 2366 1955 2369 c 1,59,60
 1900 2409 1900 2409 1956.5 2427 c 128,-1,61
 2013 2445 2013 2445 2040 2472 c 0,62,63
 2091 2525 2091 2525 2085.5 2556 c 128,-1,64
 2080 2587 2080 2587 2069 2604.5 c 128,-1,65
 2058 2622 2058 2622 2035.5 2642 c 128,-1,66
 2013 2662 2013 2662 1924 2723 c 128,-1,67
 1835 2784 1835 2784 1703 2852 c 1,68,69
 1585 2904 1585 2904 1517 2936.5 c 128,-1,70
 1449 2969 1449 2969 1297 3010 c 1,71,72
 1184 3032 1184 3032 1067.5 3037 c 128,-1,73
 951 3042 951 3042 831 3003 c 1,74,75
 747 2966 747 2966 712.5 2940 c 128,-1,76
 678 2914 678 2914 636 2850 c 1,77,78
 599 2788 599 2788 593.5 2745.5 c 128,-1,79
 588 2703 588 2703 592 2647 c 1,80,81
 595 2590 595 2590 606 2564.5 c 128,-1,82
 617 2539 617 2539 635 2512.5 c 128,-1,83
 653 2486 653 2486 680.5 2464.5 c 128,-1,84
 708 2443 708 2443 765 2434 c 128,-1,85
 822 2425 822 2425 878 2419 c 1,86,87
 902 2414 902 2414 908.5 2398.5 c 128,-1,88
 915 2383 915 2383 891 2369 c 1,28,29
1314 2262 m 1,89,90
 1295 2277 1295 2277 1311.5 2290 c 128,-1,91
 1328 2303 1328 2303 1353 2303 c 0,92,93
 1380 2303 1380 2303 1430 2352.5 c 128,-1,94
 1480 2402 1480 2402 1496 2475 c 0,95,96
 1522 2599 1522 2599 1366 2678 c 1,97,98
 1308 2706 1308 2706 1218 2728.5 c 128,-1,99
 1128 2751 1128 2751 1040.5 2768 c 128,-1,100
 953 2785 953 2785 885.5 2795.5 c 128,-1,101
 818 2806 818 2806 807 2811 c 0,102,103
 784 2820 784 2820 789 2835.5 c 128,-1,104
 794 2851 794 2851 813 2851 c 1,105,106
 823 2850 823 2850 889 2842.5 c 128,-1,107
 955 2835 955 2835 1047 2820 c 128,-1,108
 1139 2805 1139 2805 1241 2781 c 128,-1,109
 1343 2757 1343 2757 1427 2725 c 1,110,111
 1526 2685 1526 2685 1585.5 2646 c 128,-1,112
 1645 2607 1645 2607 1694 2541 c 0,113,114
 1744 2474 1744 2474 1736 2408 c 128,-1,115
 1728 2342 1728 2342 1678 2306 c 1,116,117
 1633 2272 1633 2272 1574.5 2260.5 c 128,-1,118
 1516 2249 1516 2249 1463 2249 c 0,119,120
 1409 2249 1409 2249 1388 2249.5 c 128,-1,121
 1367 2250 1367 2250 1314 2262 c 1,89,90
EndSplineSet
EndChar

StartChar: greater
Encoding: 62 62 33
Width: 0
Flags: W
LayerCount: 2
Fore
SplineSet
-604 2825 m 0,0,1
 -604 2737 -604 2737 -698 2737 c 0,2,3
 -796 2737 -796 2737 -796 2825 c 0,4,5
 -796 2905 -796 2905 -698 2905 c 0,6,7
 -604 2905 -604 2905 -604 2825 c 0,0,1
-129 2737 m 1,8,-1
 -189 2737 l 1,9,10
 -197 2926 -197 2926 -357.5 3047 c 128,-1,11
 -518 3168 -518 3168 -698 3168 c 0,12,13
 -875 3168 -875 3168 -1037 3045.5 c 128,-1,14
 -1199 2923 -1199 2923 -1208 2737 c 1,15,-1
 -1264 2737 l 1,16,17
 -1246 2966 -1246 2966 -1096.5 3154.5 c 128,-1,18
 -947 3343 -947 3343 -698 3343 c 0,19,20
 -450 3343 -450 3343 -298 3156 c 128,-1,21
 -146 2969 -146 2969 -129 2737 c 1,8,-1
8 1970 m 0,22,23
 10 1970 10 1970 10 1967 c 0,24,25
 10 1965 10 1965 8 1965 c 0,26,27
 5 1965 5 1965 5 1967 c 0,28,29
 5 1970 5 1970 8 1970 c 0,22,23
EndSplineSet
EndChar

StartChar: question
Encoding: 63 63 34
Width: 3231
Flags: W
LayerCount: 2
Fore
SplineSet
364 1169 m 1,0,1
 671 1184 671 1184 1087 1206 c 128,-1,2
 1503 1228 1503 1228 1809 1219 c 0,3,4
 2074 1211 2074 1211 2320 1186 c 128,-1,5
 2566 1161 2566 1161 2695 1133 c 1,6,7
 2826 1103 2826 1103 2935 1032 c 128,-1,8
 3044 961 3044 961 3062 889 c 1,9,10
 3078 817 3078 817 3063.5 768 c 128,-1,11
 3049 719 3049 719 2903 654 c 1,12,13
 2799 631 2799 631 2685.5 624 c 128,-1,14
 2572 617 2572 617 2488 619 c 1,15,16
 2453 632 2453 632 2482.5 648 c 128,-1,17
 2512 664 2512 664 2564.5 689.5 c 128,-1,18
 2617 715 2617 715 2672 755 c 128,-1,19
 2727 795 2727 795 2745 857 c 0,20,21
 2777 970 2777 970 2645 1029 c 128,-1,22
 2513 1088 2513 1088 2330 1114 c 128,-1,23
 2147 1140 2147 1140 1968 1143.5 c 128,-1,24
 1789 1147 1789 1147 1728 1150 c 0,25,26
 1598 1156 1598 1156 1369 1148 c 128,-1,27
 1140 1140 1140 1140 916.5 1127.5 c 128,-1,28
 693 1115 693 1115 528.5 1104 c 128,-1,29
 364 1093 364 1093 364 1093 c 1,30,31
 331 1099 331 1099 332 1132.5 c 128,-1,32
 333 1166 333 1166 364 1169 c 1,0,1
1772 1711 m 1,33,34
 1842 1711 1842 1711 1919 1709.5 c 128,-1,35
 1996 1708 1996 1708 2058 1700 c 1,36,37
 2101 1700 2101 1700 2140 1595 c 128,-1,38
 2179 1490 2179 1490 2250 1386 c 0,39,40
 2275 1350 2275 1350 2295 1346 c 1,41,42
 2313 1341 2313 1341 2323.5 1328.5 c 128,-1,43
 2334 1316 2334 1316 2304 1307 c 1,44,45
 2232 1296 2232 1296 2159.5 1298 c 128,-1,46
 2087 1300 2087 1300 2021 1307 c 1,47,48
 1959 1327 1959 1327 1932.5 1401.5 c 128,-1,49
 1906 1476 1906 1476 1834 1621 c 1,50,51
 1811 1655 1811 1655 1765 1662 c 0,52,53
 1732 1667 1732 1667 1727.5 1688.5 c 128,-1,54
 1723 1710 1723 1710 1772 1711 c 1,33,34
177.5 2127.5 m 128,-1,56
 188 2144 188 2144 201 2145.5 c 128,-1,57
 214 2147 214 2147 229 2138 c 128,-1,58
 244 2129 244 2129 266 2118 c 128,-1,59
 288 2107 288 2107 323 2100 c 128,-1,60
 358 2093 358 2093 421 2093 c 2,61,-1
 2518 2093 l 1,62,63
 2576 2094 2576 2094 2623 2084 c 128,-1,64
 2670 2074 2670 2074 2709 2053.5 c 128,-1,65
 2748 2033 2748 2033 2769.5 2016.5 c 128,-1,66
 2791 2000 2791 2000 2828.5 1961 c 128,-1,67
 2866 1922 2866 1922 2893 1884.5 c 128,-1,68
 2920 1847 2920 1847 2904 1812 c 1,69,70
 2888 1788 2888 1788 2866.5 1802 c 128,-1,71
 2845 1816 2845 1816 2816 1826.5 c 128,-1,72
 2787 1837 2787 1837 2753 1841 c 128,-1,73
 2719 1845 2719 1845 2648 1845 c 2,74,-1
 581 1845 l 1,75,76
 533 1846 533 1846 495 1852 c 128,-1,77
 457 1858 457 1858 435 1865 c 128,-1,78
 413 1872 413 1872 389 1884 c 128,-1,79
 365 1896 365 1896 337.5 1914 c 128,-1,80
 310 1932 310 1932 279 1963.5 c 128,-1,81
 248 1995 248 1995 216 2036.5 c 128,-1,82
 184 2078 184 2078 175.5 2094.5 c 128,-1,55
 167 2111 167 2111 177.5 2127.5 c 128,-1,56
EndSplineSet
EndChar

StartChar: at
Encoding: 64 64 35
Width: 117
Flags: W
LayerCount: 2
Fore
SplineSet
-527 3294 m 1,0,1
 -526 3365 -526 3365 -524.5 3430.5 c 128,-1,2
 -523 3496 -523 3496 -523 3576 c 0,3,4
 -523 3601 -523 3601 -503 3604 c 1,5,6
 -352 3605 -352 3605 -199.5 3606 c 128,-1,7
 -47 3607 -47 3607 102 3609 c 1,8,9
 112 3596 112 3596 109.5 3575 c 128,-1,10
 107 3554 107 3554 103 3540 c 1,11,12
 72 3533 72 3533 -98 3533.5 c 128,-1,13
 -268 3534 -268 3534 -394 3534 c 1,14,15
 -394 3435 -394 3435 -390 3334 c 128,-1,16
 -386 3233 -386 3233 -398 3233 c 1,17,18
 -415 3230 -415 3230 -431 3226.5 c 128,-1,19
 -447 3223 -447 3223 -525 3226 c 1,20,21
 -607 3224 -607 3224 -714 3221.5 c 128,-1,22
 -821 3219 -821 3219 -901 3219 c 1,23,24
 -901 3121 -901 3121 -898 3019.5 c 128,-1,25
 -895 2918 -895 2918 -907 2917 c 1,26,27
 -937 2917 -937 2917 -973 2912.5 c 128,-1,28
 -1009 2908 -1009 2908 -1036 2917 c 0,29,30
 -1039 2917 -1039 2917 -1039 2936 c 1,31,32
 -1039 2936 -1039 2936 -1037.5 2937 c 128,-1,33
 -1036 2938 -1036 2938 -1036 2940 c 0,34,35
 -1035 3040 -1035 3040 -1032.5 3100.5 c 128,-1,36
 -1030 3161 -1030 3161 -1030 3262 c 0,37,38
 -1030 3287 -1030 3287 -1011 3290 c 1,39,40
 -891 3291 -891 3291 -769 3291.5 c 128,-1,41
 -647 3292 -647 3292 -527 3294 c 1,0,1
8 1970 m 0,42,43
 10 1970 10 1970 10 1967 c 0,44,45
 10 1965 10 1965 8 1965 c 0,46,47
 5 1965 5 1965 5 1967 c 0,48,49
 5 1970 5 1970 8 1970 c 0,42,43
EndSplineSet
EndChar

StartChar: A
Encoding: 65 65 36
Width: 3104
Flags: W
LayerCount: 2
Fore
SplineSet
1896 2798 m 1,0,1
 1957 2798 1957 2798 2024.5 2796 c 128,-1,2
 2092 2794 2092 2794 2146 2784 c 1,3,4
 2184 2784 2184 2784 2227 2653.5 c 128,-1,5
 2270 2523 2270 2523 2329 2397 c 1,6,7
 2347 2355 2347 2355 2368 2349 c 1,8,9
 2384 2343 2384 2343 2393 2328 c 128,-1,10
 2402 2313 2402 2313 2375 2301 c 1,11,12
 2313 2288 2313 2288 2249 2290 c 128,-1,13
 2185 2292 2185 2292 2128 2301 c 1,14,15
 2074 2325 2074 2325 2043.5 2418 c 128,-1,16
 2013 2511 2013 2511 1950 2689 c 1,17,18
 1945 2699 1945 2699 1928 2720 c 128,-1,19
 1911 2741 1911 2741 1889 2746 c 0,20,21
 1860 2752 1860 2752 1856.5 2774.5 c 128,-1,22
 1853 2797 1853 2797 1896 2798 c 1,0,1
1343 2798 m 1,23,24
 1404 2798 1404 2798 1471.5 2796 c 128,-1,25
 1539 2794 1539 2794 1593 2784 c 1,26,27
 1631 2784 1631 2784 1674 2653.5 c 128,-1,28
 1717 2523 1717 2523 1775 2397 c 1,29,30
 1796 2355 1796 2355 1814 2349 c 0,31,32
 1830 2343 1830 2343 1839 2328 c 128,-1,33
 1848 2313 1848 2313 1822 2301 c 1,34,35
 1759 2288 1759 2288 1695.5 2290 c 128,-1,36
 1632 2292 1632 2292 1575 2301 c 1,37,38
 1520 2325 1520 2325 1490 2418 c 128,-1,39
 1460 2511 1460 2511 1397 2689 c 1,40,41
 1391 2699 1391 2699 1374.5 2720 c 128,-1,42
 1358 2741 1358 2741 1336 2746 c 0,43,44
 1306 2752 1306 2752 1303 2774.5 c 128,-1,45
 1300 2797 1300 2797 1343 2798 c 1,23,24
177.5 2127.5 m 128,-1,47
 188 2144 188 2144 201 2145.5 c 128,-1,48
 214 2147 214 2147 229 2138 c 128,-1,49
 244 2129 244 2129 266 2118 c 128,-1,50
 288 2107 288 2107 323 2100 c 128,-1,51
 358 2093 358 2093 421 2093 c 2,52,-1
 2518 2093 l 1,53,54
 2576 2094 2576 2094 2623 2084 c 128,-1,55
 2670 2074 2670 2074 2709 2053.5 c 128,-1,56
 2748 2033 2748 2033 2769.5 2016.5 c 128,-1,57
 2791 2000 2791 2000 2828.5 1961 c 128,-1,58
 2866 1922 2866 1922 2893 1884.5 c 128,-1,59
 2920 1847 2920 1847 2904 1812 c 1,60,61
 2888 1788 2888 1788 2866.5 1802 c 128,-1,62
 2845 1816 2845 1816 2816 1826.5 c 128,-1,63
 2787 1837 2787 1837 2753 1841 c 128,-1,64
 2719 1845 2719 1845 2648 1845 c 2,65,-1
 581 1845 l 1,66,67
 533 1846 533 1846 495 1852 c 128,-1,68
 457 1858 457 1858 435 1865 c 128,-1,69
 413 1872 413 1872 389 1884 c 128,-1,70
 365 1896 365 1896 337.5 1914 c 128,-1,71
 310 1932 310 1932 279 1963.5 c 128,-1,72
 248 1995 248 1995 216 2036.5 c 128,-1,73
 184 2078 184 2078 175.5 2094.5 c 128,-1,46
 167 2111 167 2111 177.5 2127.5 c 128,-1,47
1327 3724 m 1,74,75
 1360 3718 1360 3718 1356 3690 c 128,-1,76
 1352 3662 1352 3662 1314 3659 c 1,77,78
 1272 3644 1272 3644 1245.5 3550.5 c 128,-1,79
 1219 3457 1219 3457 1189 3353 c 0,80,81
 1120 3109 1120 3109 1062.5 2957.5 c 128,-1,82
 1005 2806 1005 2806 953.5 2745 c 128,-1,83
 902 2684 902 2684 830 2653 c 0,84,85
 719 2605 719 2605 611.5 2582 c 128,-1,86
 504 2559 504 2559 425 2559 c 1,87,88
 464 2466 464 2466 556 2430.5 c 128,-1,89
 648 2395 648 2395 609 2353 c 1,90,91
 586 2330 586 2330 467 2412.5 c 128,-1,92
 348 2495 348 2495 304 2575 c 1,93,94
 304 2626 304 2626 345.5 2617.5 c 128,-1,95
 387 2609 387 2609 435 2606 c 256,96,97
 483 2603 483 2603 533 2611 c 128,-1,98
 583 2619 583 2619 667 2662 c 0,99,100
 708 2683 708 2683 744.5 2755.5 c 128,-1,101
 781 2828 781 2828 810.5 2916.5 c 128,-1,102
 840 3005 840 3005 860.5 3092 c 128,-1,103
 881 3179 881 3179 914.5 3342.5 c 128,-1,104
 948 3506 948 3506 972 3561.5 c 128,-1,105
 996 3617 996 3617 1040 3651.5 c 128,-1,106
 1084 3686 1084 3686 1124 3696 c 128,-1,107
 1164 3706 1164 3706 1213 3711 c 128,-1,108
 1262 3716 1262 3716 1327 3724 c 1,74,75
EndSplineSet
EndChar

StartChar: B
Encoding: 66 66 37
Width: 2533
Flags: W
LayerCount: 2
Fore
SplineSet
1649 2475 m 1,0,-1
 1666 2408 l 2,1,2
 1668 2400 1668 2400 1686 2373.5 c 128,-1,3
 1704 2347 1704 2347 1704 2341 c 0,4,5
 1704 2334 1704 2334 1673 2328.5 c 128,-1,6
 1642 2323 1642 2323 1633 2323 c 2,7,-1
 1521 2323 l 2,8,9
 1500 2323 1500 2323 1479.5 2352 c 128,-1,10
 1459 2381 1459 2381 1454 2408 c 1,11,-1
 1438 2475 l 1,12,13
 1222 2476 1222 2476 1042.5 2492 c 128,-1,14
 863 2508 863 2508 787 2520 c 0,15,16
 501 2562 501 2562 434 2713 c 0,17,18
 419 2746 419 2746 381 2811.5 c 128,-1,19
 343 2877 343 2877 300.5 2943.5 c 128,-1,20
 258 3010 258 3010 220 3062.5 c 128,-1,21
 182 3115 182 3115 167 3122 c 1,22,23
 92 3147 92 3147 133 3175 c 1,24,25
 327 3192 327 3192 484 3180 c 1,26,27
 572 3175 572 3175 610.5 3084 c 128,-1,28
 649 2993 649 2993 688 2846 c 1,29,30
 725 2698 725 2698 782 2644.5 c 128,-1,31
 839 2591 839 2591 977 2557 c 0,32,33
 1120 2522 1120 2522 1432 2528 c 1,34,-1
 1409 2648 l 2,35,36
 1407 2657 1407 2657 1390.5 2671.5 c 128,-1,37
 1374 2686 1374 2686 1374 2694 c 0,38,39
 1374 2704 1374 2704 1404 2708 c 128,-1,40
 1434 2712 1434 2712 1446 2712 c 2,41,-1
 1558 2712 l 2,42,43
 1579 2712 1579 2712 1598.5 2684.5 c 128,-1,44
 1618 2657 1618 2657 1625 2625 c 2,45,-1
 1644 2528 l 1,46,47
 1767 2530 1767 2530 1811.5 2536.5 c 128,-1,48
 1856 2543 1856 2543 1908 2550 c 1,49,50
 1963 2543 1963 2543 1924 2504 c 1,51,52
 1906 2489 1906 2489 1848.5 2481.5 c 128,-1,53
 1791 2474 1791 2474 1649 2475 c 1,0,-1
1649 3150 m 1,54,-1
 1666 3083 l 2,55,56
 1668 3076 1668 3076 1686 3049 c 128,-1,57
 1704 3022 1704 3022 1704 3016 c 0,58,59
 1704 3009 1704 3009 1673 3003 c 128,-1,60
 1642 2997 1642 2997 1633 2997 c 2,61,-1
 1521 2997 l 2,62,63
 1500 2997 1500 2997 1479.5 3026.5 c 128,-1,64
 1459 3056 1459 3056 1454 3083 c 1,65,-1
 1438 3150 l 1,66,67
 1222 3150 1222 3150 1042.5 3166 c 128,-1,68
 863 3182 863 3182 787 3194 c 0,69,70
 500 3238 500 3238 434 3388 c 0,71,72
 419 3421 419 3421 381 3486.5 c 128,-1,73
 343 3552 343 3552 300.5 3618.5 c 128,-1,74
 258 3685 258 3685 220 3737.5 c 128,-1,75
 182 3790 182 3790 167 3797 c 1,76,77
 92 3822 92 3822 133 3850 c 1,78,79
 327 3867 327 3867 484 3855 c 1,80,81
 572 3850 572 3850 610.5 3759 c 128,-1,82
 649 3668 649 3668 688 3521 c 1,83,84
 725 3373 725 3373 782 3319.5 c 128,-1,85
 839 3266 839 3266 977 3232 c 1,86,87
 1113 3197 1113 3197 1432 3202 c 1,88,-1
 1409 3323 l 2,89,90
 1407 3332 1407 3332 1390.5 3346.5 c 128,-1,91
 1374 3361 1374 3361 1374 3368 c 0,92,93
 1374 3379 1374 3379 1404 3383 c 128,-1,94
 1434 3387 1434 3387 1446 3387 c 2,95,-1
 1558 3387 l 2,96,97
 1579 3387 1579 3387 1598.5 3359.5 c 128,-1,98
 1618 3332 1618 3332 1625 3301 c 2,99,-1
 1644 3203 l 1,100,101
 1767 3205 1767 3205 1811.5 3211.5 c 128,-1,102
 1856 3218 1856 3218 1908 3225 c 1,103,104
 1962 3218 1962 3218 1924 3178 c 1,105,106
 1906 3163 1906 3163 1848.5 3156 c 128,-1,107
 1791 3149 1791 3149 1649 3150 c 1,54,-1
1803 2081 m 1,108,109
 1881 2110 1881 2110 2066 2078 c 1,110,111
 2174 2051 2174 2051 2257.5 2006 c 128,-1,112
 2341 1961 2341 1961 2386 1848 c 1,113,114
 2416 1739 2416 1739 2406 1674.5 c 128,-1,115
 2396 1610 2396 1610 2334 1525 c 1,116,117
 2275 1454 2275 1454 2196 1417 c 128,-1,118
 2117 1380 2117 1380 2002 1356 c 1,119,120
 1888 1334 1888 1334 1816 1334.5 c 128,-1,121
 1744 1335 1744 1335 1661 1338 c 1,122,123
 1579 1342 1579 1342 1508.5 1351.5 c 128,-1,124
 1438 1361 1438 1361 1338 1392 c 1,125,126
 1172 1438 1172 1438 1010 1517 c 0,127,128
 919 1562 919 1562 817.5 1614 c 128,-1,129
 716 1666 716 1666 591 1737 c 1,130,131
 533 1772 533 1772 465.5 1811.5 c 128,-1,132
 398 1851 398 1851 319 1892 c 1,133,134
 259 1929 259 1929 201.5 1966.5 c 128,-1,135
 144 2004 144 2004 153 2042 c 128,-1,136
 162 2080 162 2080 197 2078 c 128,-1,137
 232 2076 232 2076 416.5 2080 c 128,-1,138
 601 2084 601 2084 739 2081 c 1,139,140
 794 2041 794 2041 737.5 2023 c 128,-1,141
 681 2005 681 2005 654 1978 c 0,142,143
 603 1925 603 1925 608.5 1894 c 128,-1,144
 614 1863 614 1863 625 1845.5 c 128,-1,145
 636 1828 636 1828 658.5 1808 c 128,-1,146
 681 1788 681 1788 770 1727 c 128,-1,147
 859 1666 859 1666 991 1598 c 1,148,149
 1109 1546 1109 1546 1177 1513.5 c 128,-1,150
 1245 1481 1245 1481 1397 1440 c 1,151,152
 1510 1418 1510 1418 1626.5 1413 c 128,-1,153
 1743 1408 1743 1408 1863 1447 c 1,154,155
 1947 1484 1947 1484 1981.5 1510 c 128,-1,156
 2016 1536 2016 1536 2058 1600 c 1,157,158
 2095 1662 2095 1662 2100.5 1704.5 c 128,-1,159
 2106 1747 2106 1747 2102 1803 c 1,160,161
 2099 1860 2099 1860 2088 1885.5 c 128,-1,162
 2077 1911 2077 1911 2059 1937.5 c 128,-1,163
 2041 1964 2041 1964 2013.5 1985.5 c 128,-1,164
 1986 2007 1986 2007 1929 2016 c 128,-1,165
 1872 2025 1872 2025 1816 2031 c 1,166,167
 1792 2036 1792 2036 1785.5 2051.5 c 128,-1,168
 1779 2067 1779 2067 1803 2081 c 1,108,109
EndSplineSet
EndChar

StartChar: C
Encoding: 67 67 38
Width: 2533
Flags: W
LayerCount: 2
Fore
SplineSet
1841 3319 m 1,0,-1
 1859 3241 l 1,1,2
 1860 3232 1860 3232 1881 3201 c 128,-1,3
 1902 3170 1902 3170 1902 3162 c 256,4,5
 1902 3154 1902 3154 1867.5 3147.5 c 128,-1,6
 1833 3141 1833 3141 1822 3141 c 2,7,-1
 1697 3141 l 2,8,9
 1673 3141 1673 3141 1651 3176 c 128,-1,10
 1629 3211 1629 3211 1623 3241 c 2,11,-1
 1606 3320 l 1,12,13
 1366 3320 1366 3320 1166 3339 c 128,-1,14
 966 3358 966 3358 882 3372 c 0,15,16
 564 3422 564 3422 491 3597 c 0,17,18
 474 3636 474 3636 431.5 3712.5 c 128,-1,19
 389 3789 389 3789 341.5 3867 c 128,-1,20
 294 3945 294 3945 252 4006.5 c 128,-1,21
 210 4068 210 4068 194 4076 c 1,22,23
 110 4105 110 4105 156 4139 c 1,24,25
 369 4157 369 4157 546 4144 c 1,26,27
 644 4138 644 4138 686.5 4032 c 128,-1,28
 729 3926 729 3926 772 3753 c 0,29,30
 814 3580 814 3580 877 3517.5 c 128,-1,31
 940 3455 940 3455 1093 3415 c 1,32,33
 1245 3374 1245 3374 1599 3381 c 1,34,-1
 1574 3522 l 1,35,36
 1571 3532 1571 3532 1553 3549 c 128,-1,37
 1535 3566 1535 3566 1535 3575 c 0,38,39
 1535 3587 1535 3587 1568 3591.5 c 128,-1,40
 1601 3596 1601 3596 1614 3596 c 2,41,-1
 1739 3596 l 2,42,43
 1762 3596 1762 3596 1783.5 3564 c 128,-1,44
 1805 3532 1805 3532 1813 3496 c 1,45,-1
 1834 3382 l 1,46,47
 1971 3383 1971 3383 2020.5 3391 c 128,-1,48
 2070 3399 2070 3399 2128 3407 c 1,49,50
 2150 3404 2150 3404 2154.5 3386 c 128,-1,51
 2159 3368 2159 3368 2145 3353 c 1,52,53
 2125 3335 2125 3335 2061.5 3326.5 c 128,-1,54
 1998 3318 1998 3318 1841 3319 c 1,0,-1
706 2489 m 1,55,56
 628 2460 628 2460 443 2492 c 1,57,58
 335 2519 335 2519 251.5 2564 c 128,-1,59
 168 2609 168 2609 123 2722 c 1,60,61
 93 2831 93 2831 103 2895.5 c 128,-1,62
 113 2960 113 2960 175 3045 c 1,63,64
 234 3116 234 3116 313 3153 c 128,-1,65
 392 3190 392 3190 507 3214 c 1,66,67
 621 3236 621 3236 693 3235.5 c 128,-1,68
 765 3235 765 3235 848 3232 c 1,69,70
 930 3228 930 3228 1000.5 3218.5 c 128,-1,71
 1071 3209 1071 3209 1171 3178 c 1,72,73
 1337 3132 1337 3132 1499 3053 c 0,74,75
 1590 3008 1590 3008 1691.5 2956 c 128,-1,76
 1793 2904 1793 2904 1918 2833 c 1,77,78
 1976 2798 1976 2798 2043.5 2758.5 c 128,-1,79
 2111 2719 2111 2719 2190 2678 c 1,80,81
 2250 2641 2250 2641 2307.5 2603.5 c 128,-1,82
 2365 2566 2365 2566 2356 2528 c 128,-1,83
 2347 2490 2347 2490 2312 2492 c 128,-1,84
 2277 2494 2277 2494 2092.5 2490 c 128,-1,85
 1908 2486 1908 2486 1770 2489 c 1,86,87
 1715 2529 1715 2529 1771.5 2547 c 128,-1,88
 1828 2565 1828 2565 1855 2592 c 0,89,90
 1906 2645 1906 2645 1900.5 2676 c 128,-1,91
 1895 2707 1895 2707 1884 2724.5 c 128,-1,92
 1873 2742 1873 2742 1850.5 2762 c 128,-1,93
 1828 2782 1828 2782 1739 2843 c 128,-1,94
 1650 2904 1650 2904 1518 2972 c 1,95,96
 1400 3024 1400 3024 1332 3056.5 c 128,-1,97
 1264 3089 1264 3089 1112 3130 c 1,98,99
 999 3152 999 3152 882.5 3157 c 128,-1,100
 766 3162 766 3162 646 3123 c 1,101,102
 562 3086 562 3086 527.5 3060 c 128,-1,103
 493 3034 493 3034 451 2970 c 1,104,105
 414 2908 414 2908 408.5 2865.5 c 128,-1,106
 403 2823 403 2823 407 2767 c 1,107,108
 410 2710 410 2710 421 2684.5 c 128,-1,109
 432 2659 432 2659 450 2632.5 c 128,-1,110
 468 2606 468 2606 495.5 2584.5 c 128,-1,111
 523 2563 523 2563 580 2554 c 128,-1,112
 637 2545 637 2545 693 2539 c 1,113,114
 717 2534 717 2534 723.5 2518.5 c 128,-1,115
 730 2503 730 2503 706 2489 c 1,55,56
1802 2361 m 1,116,117
 1880 2390 1880 2390 2065 2358 c 1,118,119
 2173 2331 2173 2331 2256.5 2286 c 128,-1,120
 2340 2241 2340 2241 2385 2128 c 1,121,122
 2415 2019 2415 2019 2405 1954.5 c 128,-1,123
 2395 1890 2395 1890 2333 1805 c 1,124,125
 2274 1734 2274 1734 2195 1697 c 128,-1,126
 2116 1660 2116 1660 2001 1636 c 1,127,128
 1887 1614 1887 1614 1815 1614.5 c 128,-1,129
 1743 1615 1743 1615 1660 1618 c 1,130,131
 1578 1622 1578 1622 1507.5 1631.5 c 128,-1,132
 1437 1641 1437 1641 1337 1672 c 1,133,134
 1171 1718 1171 1718 1009 1797 c 0,135,136
 918 1842 918 1842 816.5 1894 c 128,-1,137
 715 1946 715 1946 590 2017 c 1,138,139
 532 2052 532 2052 464.5 2091.5 c 128,-1,140
 397 2131 397 2131 318 2172 c 1,141,142
 258 2209 258 2209 200.5 2246.5 c 128,-1,143
 143 2284 143 2284 152 2322 c 128,-1,144
 161 2360 161 2360 196 2358 c 128,-1,145
 231 2356 231 2356 415.5 2360 c 128,-1,146
 600 2364 600 2364 738 2361 c 1,147,148
 793 2321 793 2321 736.5 2303 c 128,-1,149
 680 2285 680 2285 653 2258 c 0,150,151
 602 2205 602 2205 607.5 2174 c 128,-1,152
 613 2143 613 2143 624 2125.5 c 128,-1,153
 635 2108 635 2108 657.5 2088 c 128,-1,154
 680 2068 680 2068 769 2007 c 128,-1,155
 858 1946 858 1946 990 1878 c 1,156,157
 1108 1826 1108 1826 1176 1793.5 c 128,-1,158
 1244 1761 1244 1761 1396 1720 c 1,159,160
 1509 1698 1509 1698 1625.5 1693 c 128,-1,161
 1742 1688 1742 1688 1862 1727 c 1,162,163
 1946 1764 1946 1764 1980.5 1790 c 128,-1,164
 2015 1816 2015 1816 2057 1880 c 1,165,166
 2094 1942 2094 1942 2099.5 1984.5 c 128,-1,167
 2105 2027 2105 2027 2101 2083 c 1,168,169
 2098 2140 2098 2140 2087 2165.5 c 128,-1,170
 2076 2191 2076 2191 2058 2217.5 c 128,-1,171
 2040 2244 2040 2244 2012.5 2265.5 c 128,-1,172
 1985 2287 1985 2287 1928 2296 c 128,-1,173
 1871 2305 1871 2305 1815 2311 c 1,174,175
 1791 2316 1791 2316 1784.5 2331.5 c 128,-1,176
 1778 2347 1778 2347 1802 2361 c 1,116,117
EndSplineSet
EndChar

StartChar: D
Encoding: 68 68 39
Width: 2528
Flags: W
LayerCount: 2
Fore
SplineSet
926 3039 m 1,0,1
 996 3039 996 3039 1073 3037 c 128,-1,2
 1150 3035 1150 3035 1212 3025 c 1,3,4
 1255 3025 1255 3025 1307 2855.5 c 128,-1,5
 1359 2686 1359 2686 1431 2559 c 0,6,7
 1454 2517 1454 2517 1476 2510 c 0,8,9
 1495 2504 1495 2504 1505 2489 c 128,-1,10
 1515 2474 1515 2474 1485 2462 c 1,11,12
 1413 2450 1413 2450 1340.5 2451.5 c 128,-1,13
 1268 2453 1268 2453 1202 2462 c 1,14,15
 1140 2487 1140 2487 1100 2619.5 c 128,-1,16
 1060 2752 1060 2752 988 2929 c 1,17,18
 982 2939 982 2939 963 2956.5 c 128,-1,19
 944 2974 944 2974 919 2979 c 0,20,21
 886 2985 886 2985 881.5 3011 c 128,-1,22
 877 3037 877 3037 926 3039 c 1,0,1
1801 2361 m 1,23,24
 1879 2390 1879 2390 2064 2358 c 1,25,26
 2172 2330 2172 2330 2255.5 2285 c 128,-1,27
 2339 2240 2339 2240 2384 2127 c 1,28,29
 2414 2018 2414 2018 2404 1953.5 c 128,-1,30
 2394 1889 2394 1889 2332 1804 c 1,31,32
 2273 1733 2273 1733 2194 1696.5 c 128,-1,33
 2115 1660 2115 1660 2000 1636 c 1,34,35
 1886 1614 1886 1614 1814 1614.5 c 128,-1,36
 1742 1615 1742 1615 1659 1618 c 1,37,38
 1577 1622 1577 1622 1506.5 1631.5 c 128,-1,39
 1436 1641 1436 1641 1336 1672 c 1,40,41
 1170 1718 1170 1718 1008 1797 c 0,42,43
 917 1842 917 1842 815.5 1894 c 128,-1,44
 714 1946 714 1946 589 2017 c 1,45,46
 531 2052 531 2052 463.5 2091.5 c 128,-1,47
 396 2131 396 2131 317 2173 c 1,48,49
 257 2210 257 2210 199.5 2247.5 c 128,-1,50
 142 2285 142 2285 151 2323 c 128,-1,51
 160 2361 160 2361 195 2359 c 128,-1,52
 230 2357 230 2357 414.5 2360.5 c 128,-1,53
 599 2364 599 2364 737 2361 c 1,54,55
 792 2321 792 2321 735.5 2303 c 128,-1,56
 679 2285 679 2285 652 2258 c 0,57,58
 601 2205 601 2205 606.5 2174 c 128,-1,59
 612 2143 612 2143 623 2125.5 c 128,-1,60
 634 2108 634 2108 656.5 2088 c 128,-1,61
 679 2068 679 2068 768 2007 c 128,-1,62
 857 1946 857 1946 989 1878 c 1,63,64
 1107 1826 1107 1826 1175 1793.5 c 128,-1,65
 1243 1761 1243 1761 1395 1720 c 1,66,67
 1508 1698 1508 1698 1624.5 1693 c 128,-1,68
 1741 1688 1741 1688 1861 1727 c 1,69,70
 1945 1764 1945 1764 1979.5 1790 c 128,-1,71
 2014 1816 2014 1816 2056 1880 c 1,72,73
 2093 1942 2093 1942 2098.5 1984.5 c 128,-1,74
 2104 2027 2104 2027 2100 2083 c 1,75,76
 2097 2140 2097 2140 2086 2165.5 c 128,-1,77
 2075 2191 2075 2191 2057 2217.5 c 128,-1,78
 2039 2244 2039 2244 2011.5 2265.5 c 128,-1,79
 1984 2287 1984 2287 1927 2296 c 128,-1,80
 1870 2305 1870 2305 1814 2311 c 1,81,82
 1790 2316 1790 2316 1783.5 2331.5 c 128,-1,83
 1777 2347 1777 2347 1801 2361 c 1,23,24
2554 3851 m 1,84,85
 2586 3845 2586 3845 2582 3818.5 c 128,-1,86
 2578 3792 2578 3792 2542 3789 c 1,87,88
 2502 3775 2502 3775 2476.5 3685.5 c 128,-1,89
 2451 3596 2451 3596 2423 3497 c 0,90,91
 2357 3264 2357 3264 2302 3119 c 128,-1,92
 2247 2974 2247 2974 2198 2916.5 c 128,-1,93
 2149 2859 2149 2859 2080 2829 c 0,94,95
 1974 2783 1974 2783 1871.5 2761 c 128,-1,96
 1769 2739 1769 2739 1693 2739 c 1,97,98
 1731 2651 1731 2651 1818.5 2617 c 128,-1,99
 1906 2583 1906 2583 1869 2543 c 1,100,101
 1847 2521 1847 2521 1733.5 2599.5 c 128,-1,102
 1620 2678 1620 2678 1578 2755 c 1,103,104
 1578 2803 1578 2803 1617.5 2795 c 128,-1,105
 1657 2787 1657 2787 1703 2784 c 256,106,107
 1749 2781 1749 2781 1796.5 2789 c 128,-1,108
 1844 2797 1844 2797 1924 2838 c 0,109,110
 1964 2858 1964 2858 1998.5 2927 c 128,-1,111
 2033 2996 2033 2996 2061.5 3080.5 c 128,-1,112
 2090 3165 2090 3165 2109.5 3248 c 128,-1,113
 2129 3331 2129 3331 2160.5 3487 c 128,-1,114
 2192 3643 2192 3643 2215 3696 c 128,-1,115
 2238 3749 2238 3749 2280 3782 c 128,-1,116
 2322 3815 2322 3815 2360.5 3824.5 c 128,-1,117
 2399 3834 2399 3834 2445.5 3838.5 c 128,-1,118
 2492 3843 2492 3843 2554 3851 c 1,84,85
EndSplineSet
EndChar

StartChar: E
Encoding: 69 69 40
Width: 1177
Flags: W
LayerCount: 2
Fore
SplineSet
697 2826 m 1,0,1
 698 2898 698 2898 700 2963.5 c 128,-1,2
 702 3029 702 3029 702 3109 c 0,3,4
 702 3134 702 3134 721 3137 c 1,5,6
 871 3139 871 3139 1024 3139.5 c 128,-1,7
 1177 3140 1177 3140 1328 3142 c 1,8,9
 1345 3120 1345 3120 1328 3073 c 1,10,11
 1298 3066 1298 3066 1127 3066.5 c 128,-1,12
 956 3067 956 3067 831 3067 c 1,13,14
 830 2969 830 2969 833.5 2868 c 128,-1,15
 837 2767 837 2767 826 2766 c 1,16,17
 808 2762 808 2762 793 2759 c 128,-1,18
 778 2756 778 2756 700 2759 c 1,19,20
 617 2757 617 2757 510 2755 c 128,-1,21
 403 2753 403 2753 323 2753 c 1,22,23
 322 2654 322 2654 325.5 2552 c 128,-1,24
 329 2450 329 2450 318 2450 c 0,25,26
 286 2450 286 2450 250.5 2445.5 c 128,-1,27
 215 2441 215 2441 189 2450 c 0,28,29
 186 2450 186 2450 186 2469 c 1,30,31
 186 2469 186 2469 188 2470.5 c 128,-1,32
 190 2472 190 2472 190 2473 c 0,33,34
 190 2573 190 2573 192 2633 c 128,-1,35
 194 2693 194 2693 194 2795 c 0,36,37
 194 2820 194 2820 214 2823 c 1,38,39
 334 2824 334 2824 455.5 2824.5 c 128,-1,40
 577 2825 577 2825 697 2826 c 1,0,1
-30 2735 m 2,41,-1
 57 2735 l 2,42,43
 63 2735 63 2735 79.5 2734.5 c 128,-1,44
 96 2734 96 2734 101 2729 c 0,45,46
 107 2723 107 2723 99 2723 c 128,-1,47
 91 2723 91 2723 86 2690 c 2,48,-1
 77 2620 l 2,49,50
 71 2575 71 2575 35 2575 c 2,51,-1
 -50 2575 l 2,52,53
 -58 2575 -58 2575 -77 2576 c 128,-1,54
 -96 2577 -96 2577 -97 2585 c 1,55,56
 -97 2594 -97 2594 -90 2596.5 c 128,-1,57
 -83 2599 -83 2599 -81 2620 c 2,58,-1
 -72 2690 l 1,59,60
 -64 2735 -64 2735 -30 2735 c 2,41,-1
733 2257 m 1,61,62
 781 2256 781 2256 779.5 2228 c 128,-1,63
 778 2200 778 2200 745 2195 c 1,64,65
 689 2183 689 2183 672 2148 c 1,66,67
 598 1971 598 1971 558.5 1838.5 c 128,-1,68
 519 1706 519 1706 457 1681 c 1,69,70
 391 1672 391 1672 318 1670.5 c 128,-1,71
 245 1669 245 1669 175 1681 c 1,72,73
 145 1693 145 1693 154.5 1708 c 128,-1,74
 164 1723 164 1723 184 1729 c 1,75,76
 205 1734 205 1734 228 1777 c 0,77,78
 299 1905 299 1905 347 2065.5 c 128,-1,79
 395 2226 395 2226 448 2244 c 1,80,81
 518 2265 518 2265 590 2261 c 128,-1,82
 662 2257 662 2257 733 2257 c 1,61,62
EndSplineSet
EndChar

StartChar: F
Encoding: 70 70 41
Width: 2533
Flags: W
LayerCount: 2
Fore
SplineSet
1019 2708 m 1,0,1
 1089 2708 1089 2708 1165.5 2706 c 128,-1,2
 1242 2704 1242 2704 1304 2695 c 1,3,4
 1348 2695 1348 2695 1400 2541.5 c 128,-1,5
 1452 2388 1452 2388 1524 2271 c 0,6,7
 1548 2232 1548 2232 1568 2227 c 1,8,9
 1587 2221 1587 2221 1597 2207.5 c 128,-1,10
 1607 2194 1607 2194 1577 2183 c 1,11,12
 1506 2171 1506 2171 1433.5 2173 c 128,-1,13
 1361 2175 1361 2175 1295 2183 c 1,14,15
 1232 2206 1232 2206 1192.5 2326.5 c 128,-1,16
 1153 2447 1153 2447 1080 2609 c 1,17,18
 1074 2618 1074 2618 1055.5 2633.5 c 128,-1,19
 1037 2649 1037 2649 1011 2654 c 1,20,21
 978 2659 978 2659 974 2683 c 128,-1,22
 970 2707 970 2707 1019 2708 c 1,0,1
1801 2361 m 1,23,24
 1879 2390 1879 2390 2064 2358 c 1,25,26
 2172 2330 2172 2330 2255.5 2285 c 128,-1,27
 2339 2240 2339 2240 2384 2127 c 1,28,29
 2414 2018 2414 2018 2404 1953.5 c 128,-1,30
 2394 1889 2394 1889 2332 1804 c 1,31,32
 2273 1733 2273 1733 2194 1696.5 c 128,-1,33
 2115 1660 2115 1660 2000 1636 c 1,34,35
 1886 1614 1886 1614 1814 1614.5 c 128,-1,36
 1742 1615 1742 1615 1659 1618 c 1,37,38
 1577 1622 1577 1622 1506.5 1631.5 c 128,-1,39
 1436 1641 1436 1641 1336 1672 c 1,40,41
 1170 1718 1170 1718 1008 1797 c 0,42,43
 917 1842 917 1842 815.5 1894 c 128,-1,44
 714 1946 714 1946 589 2017 c 1,45,46
 531 2052 531 2052 463.5 2091.5 c 128,-1,47
 396 2131 396 2131 317 2173 c 1,48,49
 257 2210 257 2210 199.5 2247.5 c 128,-1,50
 142 2285 142 2285 151 2323 c 128,-1,51
 160 2361 160 2361 195 2359 c 128,-1,52
 230 2357 230 2357 414.5 2360.5 c 128,-1,53
 599 2364 599 2364 737 2361 c 1,54,55
 792 2321 792 2321 735.5 2303 c 128,-1,56
 679 2285 679 2285 652 2258 c 0,57,58
 601 2205 601 2205 606.5 2174 c 128,-1,59
 612 2143 612 2143 623 2125.5 c 128,-1,60
 634 2108 634 2108 656.5 2088 c 128,-1,61
 679 2068 679 2068 768 2007 c 128,-1,62
 857 1946 857 1946 989 1878 c 1,63,64
 1107 1826 1107 1826 1175 1793.5 c 128,-1,65
 1243 1761 1243 1761 1395 1720 c 1,66,67
 1508 1698 1508 1698 1624.5 1693 c 128,-1,68
 1741 1688 1741 1688 1861 1727 c 1,69,70
 1945 1764 1945 1764 1979.5 1790 c 128,-1,71
 2014 1816 2014 1816 2056 1880 c 1,72,73
 2093 1942 2093 1942 2098.5 1984.5 c 128,-1,74
 2104 2027 2104 2027 2100 2083 c 1,75,76
 2097 2140 2097 2140 2086 2165.5 c 128,-1,77
 2075 2191 2075 2191 2057 2217.5 c 128,-1,78
 2039 2244 2039 2244 2011.5 2265.5 c 128,-1,79
 1984 2287 1984 2287 1927 2296 c 128,-1,80
 1870 2305 1870 2305 1814 2311 c 1,81,82
 1790 2316 1790 2316 1783.5 2331.5 c 128,-1,83
 1777 2347 1777 2347 1801 2361 c 1,23,24
1976 3942 m 1,84,85
 2007 3937 2007 3937 2003 3913.5 c 128,-1,86
 1999 3890 1999 3890 1964 3887 c 1,87,88
 1925 3875 1925 3875 1900.5 3796 c 128,-1,89
 1876 3717 1876 3717 1849 3629 c 0,90,91
 1785 3423 1785 3423 1731.5 3295 c 128,-1,92
 1678 3167 1678 3167 1630.5 3116 c 128,-1,93
 1583 3065 1583 3065 1517 3039 c 0,94,95
 1414 2998 1414 2998 1314.5 2979 c 128,-1,96
 1215 2960 1215 2960 1142 2960 c 1,97,98
 1178 2881 1178 2881 1263 2851 c 128,-1,99
 1348 2821 1348 2821 1312 2786 c 1,100,101
 1291 2767 1291 2767 1181 2836.5 c 128,-1,102
 1071 2906 1071 2906 1030 2973 c 1,103,104
 1030 3016 1030 3016 1068.5 3009 c 128,-1,105
 1107 3002 1107 3002 1151 2999 c 1,106,107
 1196 2997 1196 2997 1242 3003.5 c 128,-1,108
 1288 3010 1288 3010 1366 3046 c 0,109,110
 1404 3064 1404 3064 1437.5 3125 c 128,-1,111
 1471 3186 1471 3186 1498.5 3261 c 128,-1,112
 1526 3336 1526 3336 1545 3409 c 128,-1,113
 1564 3482 1564 3482 1594.5 3620 c 128,-1,114
 1625 3758 1625 3758 1647.5 3805 c 128,-1,115
 1670 3852 1670 3852 1710.5 3881 c 128,-1,116
 1751 3910 1751 3910 1788 3918.5 c 128,-1,117
 1825 3927 1825 3927 1870.5 3931 c 128,-1,118
 1916 3935 1916 3935 1976 3942 c 1,84,85
EndSplineSet
EndChar

StartChar: G
Encoding: 71 71 42
Width: 2525
Flags: W
LayerCount: 2
Fore
SplineSet
1801 2361 m 1,0,1
 1879 2390 1879 2390 2064 2358 c 1,2,3
 2172 2330 2172 2330 2255.5 2285 c 128,-1,4
 2339 2240 2339 2240 2384 2127 c 1,5,6
 2414 2018 2414 2018 2404 1953.5 c 128,-1,7
 2394 1889 2394 1889 2332 1804 c 1,8,9
 2273 1733 2273 1733 2194 1696.5 c 128,-1,10
 2115 1660 2115 1660 2000 1636 c 1,11,12
 1886 1614 1886 1614 1814 1614.5 c 128,-1,13
 1742 1615 1742 1615 1659 1618 c 1,14,15
 1577 1622 1577 1622 1506.5 1631.5 c 128,-1,16
 1436 1641 1436 1641 1336 1672 c 1,17,18
 1170 1718 1170 1718 1008 1797 c 0,19,20
 917 1842 917 1842 815.5 1894 c 128,-1,21
 714 1946 714 1946 589 2017 c 1,22,23
 531 2052 531 2052 463.5 2091.5 c 128,-1,24
 396 2131 396 2131 317 2173 c 1,25,26
 257 2210 257 2210 199.5 2247.5 c 128,-1,27
 142 2285 142 2285 151 2323 c 128,-1,28
 160 2361 160 2361 195 2359 c 128,-1,29
 230 2357 230 2357 414.5 2360.5 c 128,-1,30
 599 2364 599 2364 737 2361 c 1,31,32
 792 2321 792 2321 735.5 2303 c 128,-1,33
 679 2285 679 2285 652 2258 c 0,34,35
 601 2205 601 2205 606.5 2174 c 128,-1,36
 612 2143 612 2143 623 2125.5 c 128,-1,37
 634 2108 634 2108 656.5 2088 c 128,-1,38
 679 2068 679 2068 768 2007 c 128,-1,39
 857 1946 857 1946 989 1878 c 1,40,41
 1107 1826 1107 1826 1175 1793.5 c 128,-1,42
 1243 1761 1243 1761 1395 1720 c 1,43,44
 1508 1698 1508 1698 1624.5 1693 c 128,-1,45
 1741 1688 1741 1688 1861 1727 c 1,46,47
 1945 1764 1945 1764 1979.5 1790 c 128,-1,48
 2014 1816 2014 1816 2056 1880 c 1,49,50
 2093 1942 2093 1942 2098.5 1984.5 c 128,-1,51
 2104 2027 2104 2027 2100 2083 c 1,52,53
 2097 2140 2097 2140 2086 2165.5 c 128,-1,54
 2075 2191 2075 2191 2057 2217.5 c 128,-1,55
 2039 2244 2039 2244 2011.5 2265.5 c 128,-1,56
 1984 2287 1984 2287 1927 2296 c 128,-1,57
 1870 2305 1870 2305 1814 2311 c 1,58,59
 1790 2316 1790 2316 1783.5 2331.5 c 128,-1,60
 1777 2347 1777 2347 1801 2361 c 1,0,1
2554 3851 m 1,61,62
 2586 3845 2586 3845 2582 3818.5 c 128,-1,63
 2578 3792 2578 3792 2542 3789 c 1,64,65
 2502 3775 2502 3775 2476.5 3685.5 c 128,-1,66
 2451 3596 2451 3596 2423 3497 c 0,67,68
 2357 3264 2357 3264 2302 3119 c 128,-1,69
 2247 2974 2247 2974 2198 2916.5 c 128,-1,70
 2149 2859 2149 2859 2080 2829 c 0,71,72
 1974 2783 1974 2783 1871.5 2761 c 128,-1,73
 1769 2739 1769 2739 1693 2739 c 1,74,75
 1731 2651 1731 2651 1818.5 2617 c 128,-1,76
 1906 2583 1906 2583 1869 2543 c 1,77,78
 1847 2521 1847 2521 1733.5 2599.5 c 128,-1,79
 1620 2678 1620 2678 1578 2755 c 1,80,81
 1578 2803 1578 2803 1617.5 2795 c 128,-1,82
 1657 2787 1657 2787 1703 2784 c 256,83,84
 1749 2781 1749 2781 1796.5 2789 c 128,-1,85
 1844 2797 1844 2797 1924 2838 c 0,86,87
 1964 2858 1964 2858 1998.5 2927 c 128,-1,88
 2033 2996 2033 2996 2061.5 3080.5 c 128,-1,89
 2090 3165 2090 3165 2109.5 3248 c 128,-1,90
 2129 3331 2129 3331 2160.5 3487 c 128,-1,91
 2192 3643 2192 3643 2215 3696 c 128,-1,92
 2238 3749 2238 3749 2280 3782 c 128,-1,93
 2322 3815 2322 3815 2360.5 3824.5 c 128,-1,94
 2399 3834 2399 3834 2445.5 3838.5 c 128,-1,95
 2492 3843 2492 3843 2554 3851 c 1,61,62
1324 3851 m 1,96,97
 1356 3845 1356 3845 1352 3818.5 c 128,-1,98
 1348 3792 1348 3792 1312 3789 c 1,99,100
 1272 3775 1272 3775 1246.5 3685.5 c 128,-1,101
 1221 3596 1221 3596 1193 3497 c 0,102,103
 1127 3264 1127 3264 1072 3119 c 128,-1,104
 1017 2974 1017 2974 968 2916.5 c 128,-1,105
 919 2859 919 2859 850 2829 c 0,106,107
 744 2783 744 2783 641.5 2761 c 128,-1,108
 539 2739 539 2739 463 2739 c 1,109,110
 501 2651 501 2651 588.5 2617 c 128,-1,111
 676 2583 676 2583 639 2543 c 1,112,113
 617 2521 617 2521 503.5 2599.5 c 128,-1,114
 390 2678 390 2678 348 2755 c 1,115,116
 348 2803 348 2803 387.5 2795 c 128,-1,117
 427 2787 427 2787 473 2784 c 256,118,119
 519 2781 519 2781 566.5 2789 c 128,-1,120
 614 2797 614 2797 694 2838 c 0,121,122
 734 2858 734 2858 768.5 2927 c 128,-1,123
 803 2996 803 2996 831.5 3080.5 c 128,-1,124
 860 3165 860 3165 879.5 3248 c 128,-1,125
 899 3331 899 3331 930.5 3487 c 128,-1,126
 962 3643 962 3643 985 3696 c 128,-1,127
 1008 3749 1008 3749 1050 3782 c 128,-1,128
 1092 3815 1092 3815 1130.5 3824.5 c 128,-1,129
 1169 3834 1169 3834 1215.5 3838.5 c 128,-1,130
 1262 3843 1262 3843 1324 3851 c 1,96,97
EndSplineSet
EndChar

StartChar: H
Encoding: 72 72 43
Width: 2948
Flags: W
LayerCount: 2
Fore
SplineSet
1239 2789 m 1,0,1
 1301 2789 1301 2789 1368 2787.5 c 128,-1,2
 1435 2786 1435 2786 1489 2779 c 1,3,4
 1527 2779 1527 2779 1570.5 2678.5 c 128,-1,5
 1614 2578 1614 2578 1672 2483 c 1,6,7
 1691 2449 1691 2449 1711 2446 c 1,8,9
 1726 2442 1726 2442 1735.5 2430 c 128,-1,10
 1745 2418 1745 2418 1718 2409 c 1,11,12
 1656 2399 1656 2399 1592 2401 c 128,-1,13
 1528 2403 1528 2403 1471 2409 c 1,14,15
 1417 2428 1417 2428 1386.5 2499 c 128,-1,16
 1356 2570 1356 2570 1293 2706 c 1,17,18
 1288 2713 1288 2713 1271 2729.5 c 128,-1,19
 1254 2746 1254 2746 1233 2749 c 0,20,21
 1203 2753 1203 2753 1200 2770.5 c 128,-1,22
 1197 2788 1197 2788 1239 2789 c 1,0,1
686 2789 m 1,23,24
 747 2789 747 2789 814.5 2787.5 c 128,-1,25
 882 2786 882 2786 936 2779 c 1,26,27
 974 2779 974 2779 1017 2678.5 c 128,-1,28
 1060 2578 1060 2578 1118 2483 c 1,29,30
 1137 2449 1137 2449 1157 2446 c 1,31,32
 1173 2442 1173 2442 1182 2430 c 128,-1,33
 1191 2418 1191 2418 1165 2409 c 1,34,35
 1102 2399 1102 2399 1038.5 2401 c 128,-1,36
 975 2403 975 2403 918 2409 c 1,37,38
 864 2428 864 2428 833.5 2499 c 128,-1,39
 803 2570 803 2570 740 2706 c 1,40,41
 734 2713 734 2713 717 2729.5 c 128,-1,42
 700 2746 700 2746 679 2749 c 0,43,44
 650 2753 650 2753 646.5 2770.5 c 128,-1,45
 643 2788 643 2788 686 2789 c 1,23,24
1801 2361 m 1,46,47
 1879 2390 1879 2390 2064 2358 c 1,48,49
 2172 2331 2172 2331 2255.5 2286 c 128,-1,50
 2339 2241 2339 2241 2384 2128 c 1,51,52
 2414 2019 2414 2019 2404 1954.5 c 128,-1,53
 2394 1890 2394 1890 2332 1805 c 1,54,55
 2273 1734 2273 1734 2194 1697 c 128,-1,56
 2115 1660 2115 1660 2000 1636 c 1,57,58
 1886 1614 1886 1614 1814 1614.5 c 128,-1,59
 1742 1615 1742 1615 1659 1618 c 1,60,61
 1577 1622 1577 1622 1506.5 1631.5 c 128,-1,62
 1436 1641 1436 1641 1336 1672 c 1,63,64
 1170 1718 1170 1718 1008 1797 c 0,65,66
 917 1842 917 1842 815.5 1894 c 128,-1,67
 714 1946 714 1946 589 2017 c 1,68,69
 531 2052 531 2052 463.5 2091.5 c 128,-1,70
 396 2131 396 2131 317 2172 c 1,71,72
 257 2209 257 2209 199.5 2246.5 c 128,-1,73
 142 2284 142 2284 151 2322 c 128,-1,74
 160 2360 160 2360 195 2358 c 128,-1,75
 230 2356 230 2356 414.5 2360 c 128,-1,76
 599 2364 599 2364 737 2361 c 1,77,78
 792 2321 792 2321 735.5 2303 c 128,-1,79
 679 2285 679 2285 652 2258 c 0,80,81
 601 2205 601 2205 606.5 2174 c 128,-1,82
 612 2143 612 2143 623 2125.5 c 128,-1,83
 634 2108 634 2108 656.5 2088 c 128,-1,84
 679 2068 679 2068 768 2007 c 128,-1,85
 857 1946 857 1946 989 1878 c 1,86,87
 1107 1826 1107 1826 1175 1793.5 c 128,-1,88
 1243 1761 1243 1761 1395 1720 c 1,89,90
 1508 1698 1508 1698 1624.5 1693 c 128,-1,91
 1741 1688 1741 1688 1861 1727 c 1,92,93
 1945 1764 1945 1764 1979.5 1790 c 128,-1,94
 2014 1816 2014 1816 2056 1880 c 1,95,96
 2093 1942 2093 1942 2098.5 1984.5 c 128,-1,97
 2104 2027 2104 2027 2100 2083 c 1,98,99
 2097 2140 2097 2140 2086 2165.5 c 128,-1,100
 2075 2191 2075 2191 2057 2217.5 c 128,-1,101
 2039 2244 2039 2244 2011.5 2265.5 c 128,-1,102
 1984 2287 1984 2287 1927 2296 c 128,-1,103
 1870 2305 1870 2305 1814 2311 c 1,104,105
 1790 2316 1790 2316 1783.5 2331.5 c 128,-1,106
 1777 2347 1777 2347 1801 2361 c 1,46,47
2771 3844 m 1,107,108
 2804 3838 2804 3838 2800 3810 c 128,-1,109
 2796 3782 2796 3782 2758 3779 c 1,110,111
 2716 3764 2716 3764 2689.5 3670.5 c 128,-1,112
 2663 3577 2663 3577 2633 3473 c 0,113,114
 2564 3229 2564 3229 2506.5 3077.5 c 128,-1,115
 2449 2926 2449 2926 2397.5 2865 c 128,-1,116
 2346 2804 2346 2804 2274 2773 c 0,117,118
 2163 2725 2163 2725 2055.5 2702 c 128,-1,119
 1948 2679 1948 2679 1869 2679 c 1,120,121
 1908 2586 1908 2586 2000 2550.5 c 128,-1,122
 2092 2515 2092 2515 2053 2473 c 1,123,124
 2030 2450 2030 2450 1911 2532.5 c 128,-1,125
 1792 2615 1792 2615 1748 2695 c 1,126,127
 1748 2746 1748 2746 1789.5 2737.5 c 128,-1,128
 1831 2729 1831 2729 1879 2726 c 256,129,130
 1927 2723 1927 2723 1977 2731 c 128,-1,131
 2027 2739 2027 2739 2111 2782 c 0,132,133
 2152 2803 2152 2803 2188.5 2875.5 c 128,-1,134
 2225 2948 2225 2948 2254.5 3036.5 c 128,-1,135
 2284 3125 2284 3125 2304.5 3212 c 128,-1,136
 2325 3299 2325 3299 2358.5 3462.5 c 128,-1,137
 2392 3626 2392 3626 2416 3681.5 c 128,-1,138
 2440 3737 2440 3737 2484 3771.5 c 128,-1,139
 2528 3806 2528 3806 2568 3816 c 128,-1,140
 2608 3826 2608 3826 2657 3831 c 128,-1,141
 2706 3836 2706 3836 2771 3844 c 1,107,108
1856 4102 m 1,142,143
 1887 4097 1887 4097 1883 4073.5 c 128,-1,144
 1879 4050 1879 4050 1844 4047 c 1,145,146
 1805 4035 1805 4035 1780.5 3956 c 128,-1,147
 1756 3877 1756 3877 1729 3789 c 0,148,149
 1665 3583 1665 3583 1611.5 3455 c 128,-1,150
 1558 3327 1558 3327 1510.5 3276 c 128,-1,151
 1463 3225 1463 3225 1397 3199 c 0,152,153
 1294 3158 1294 3158 1194.5 3139 c 128,-1,154
 1095 3120 1095 3120 1022 3120 c 1,155,156
 1058 3041 1058 3041 1143 3011 c 128,-1,157
 1228 2981 1228 2981 1192 2946 c 1,158,159
 1171 2927 1171 2927 1061 2996.5 c 128,-1,160
 951 3066 951 3066 910 3133 c 1,161,162
 910 3176 910 3176 948.5 3169 c 128,-1,163
 987 3162 987 3162 1031 3159 c 1,164,165
 1076 3157 1076 3157 1122 3163.5 c 128,-1,166
 1168 3170 1168 3170 1246 3206 c 0,167,168
 1284 3224 1284 3224 1317.5 3285 c 128,-1,169
 1351 3346 1351 3346 1378.5 3421 c 128,-1,170
 1406 3496 1406 3496 1425 3569 c 128,-1,171
 1444 3642 1444 3642 1474.5 3780 c 128,-1,172
 1505 3918 1505 3918 1527.5 3965 c 128,-1,173
 1550 4012 1550 4012 1590.5 4041 c 128,-1,174
 1631 4070 1631 4070 1668 4078.5 c 128,-1,175
 1705 4087 1705 4087 1750.5 4091 c 128,-1,176
 1796 4095 1796 4095 1856 4102 c 1,142,143
EndSplineSet
EndChar

StartChar: I
Encoding: 73 73 44
Width: 3333
Flags: W
LayerCount: 2
Fore
SplineSet
2357 2715 m 1,0,1
 2418 2715 2418 2715 2485.5 2713 c 128,-1,2
 2553 2711 2553 2711 2607 2701 c 1,3,4
 2645 2701 2645 2701 2695 2596.5 c 128,-1,5
 2745 2492 2745 2492 2803 2367 c 1,6,7
 2820 2324 2820 2324 2842 2319 c 1,8,9
 2857 2313 2857 2313 2866 2297.5 c 128,-1,10
 2875 2282 2875 2282 2849 2270 c 1,11,12
 2787 2258 2787 2258 2723 2260 c 128,-1,13
 2659 2262 2659 2262 2602 2270 c 1,14,15
 2548 2295 2548 2295 2511 2361.5 c 128,-1,16
 2474 2428 2474 2428 2411 2605 c 1,17,18
 2405 2616 2405 2616 2388.5 2637.5 c 128,-1,19
 2372 2659 2372 2659 2350 2663 c 0,20,21
 2322 2668 2322 2668 2318 2691 c 128,-1,22
 2314 2714 2314 2714 2357 2715 c 1,0,1
1804 2715 m 1,23,24
 1865 2715 1865 2715 1932.5 2713 c 128,-1,25
 2000 2711 2000 2711 2054 2701 c 1,26,27
 2092 2701 2092 2701 2141.5 2596.5 c 128,-1,28
 2191 2492 2191 2492 2249 2367 c 0,29,30
 2268 2324 2268 2324 2288 2319 c 1,31,32
 2304 2313 2304 2313 2313 2297.5 c 128,-1,33
 2322 2282 2322 2282 2296 2270 c 1,34,35
 2233 2258 2233 2258 2169.5 2260 c 128,-1,36
 2106 2262 2106 2262 2048 2270 c 1,37,38
 1994 2295 1994 2295 1957.5 2361.5 c 128,-1,39
 1921 2428 1921 2428 1858 2605 c 1,40,41
 1852 2616 1852 2616 1835 2637.5 c 128,-1,42
 1818 2659 1818 2659 1797 2663 c 0,43,44
 1768 2668 1768 2668 1764.5 2691 c 128,-1,45
 1761 2714 1761 2714 1804 2715 c 1,23,24
1152 2815 m 1,46,47
 1200 2813 1200 2813 1196.5 2789.5 c 128,-1,48
 1193 2766 1193 2766 1160 2761 c 0,49,50
 1134 2757 1134 2757 1115 2741 c 128,-1,51
 1096 2725 1096 2725 1091 2716 c 0,52,53
 1017 2557 1017 2557 977.5 2438 c 128,-1,54
 938 2319 938 2319 876 2297 c 1,55,56
 810 2290 810 2290 737 2287.5 c 128,-1,57
 664 2285 664 2285 594 2297 c 1,58,59
 564 2308 564 2308 573.5 2321.5 c 128,-1,60
 583 2335 583 2335 603 2340 c 0,61,62
 624 2346 624 2346 647 2384 c 0,63,64
 718 2498 718 2498 770 2650 c 128,-1,65
 822 2802 822 2802 867 2802 c 1,66,67
 928 2811 928 2811 1004.5 2813 c 128,-1,68
 1081 2815 1081 2815 1152 2815 c 1,46,47
1073 3287 m 1,69,70
 1073 3358 1073 3358 1075 3424 c 128,-1,71
 1077 3490 1077 3490 1077 3569 c 0,72,73
 1077 3595 1077 3595 1096 3598 c 1,74,75
 1246 3599 1246 3599 1399 3599.5 c 128,-1,76
 1552 3600 1552 3600 1703 3603 c 1,77,78
 1713 3590 1713 3590 1710.5 3569 c 128,-1,79
 1708 3548 1708 3548 1704 3534 c 1,80,81
 1672 3527 1672 3527 1501.5 3527 c 128,-1,82
 1331 3527 1331 3527 1206 3527 c 1,83,84
 1205 3429 1205 3429 1208.5 3328 c 128,-1,85
 1212 3227 1212 3227 1201 3226 c 0,86,87
 1183 3223 1183 3223 1168 3219.5 c 128,-1,88
 1153 3216 1153 3216 1075 3219 c 1,89,90
 992 3218 992 3218 885 3215.5 c 128,-1,91
 778 3213 778 3213 698 3213 c 1,92,93
 697 3115 697 3115 700.5 3013 c 128,-1,94
 704 2911 704 2911 693 2910 c 1,95,96
 661 2910 661 2910 625.5 2906 c 128,-1,97
 590 2902 590 2902 564 2910 c 0,98,99
 561 2910 561 2910 561 2930 c 1,100,101
 561 2930 561 2930 562.5 2931 c 128,-1,102
 564 2932 564 2932 564 2934 c 0,103,104
 564 3033 564 3033 566.5 3093.5 c 128,-1,105
 569 3154 569 3154 569 3256 c 0,106,107
 569 3281 569 3281 589 3284 c 1,108,109
 709 3284 709 3284 830 3285 c 128,-1,110
 951 3286 951 3286 1073 3287 c 1,69,70
1891 3561 m 2,111,-1
 1978 3561 l 2,112,113
 1985 3561 1985 3561 2001.5 3560.5 c 128,-1,114
 2018 3560 2018 3560 2023 3555 c 0,115,116
 2029 3549 2029 3549 2020.5 3548.5 c 128,-1,117
 2012 3548 2012 3548 2008 3515 c 2,118,-1
 1999 3446 l 2,119,120
 1993 3401 1993 3401 1957 3401 c 2,121,-1
 1870 3401 l 2,122,123
 1862 3401 1862 3401 1843 3402 c 128,-1,124
 1824 3403 1824 3403 1824 3411 c 0,125,126
 1823 3420 1823 3420 1830 3422.5 c 128,-1,127
 1837 3425 1837 3425 1840 3446 c 2,128,-1
 1849 3515 l 2,129,130
 1856 3561 1856 3561 1891 3561 c 2,111,-1
167.5 2127.5 m 128,-1,132
 178 2144 178 2144 191 2145.5 c 128,-1,133
 204 2147 204 2147 219 2138 c 128,-1,134
 234 2129 234 2129 256 2118 c 128,-1,135
 278 2107 278 2107 313 2100 c 128,-1,136
 348 2093 348 2093 411 2093 c 2,137,-1
 2758 2093 l 1,138,139
 2816 2094 2816 2094 2863 2084 c 128,-1,140
 2910 2074 2910 2074 2949 2053.5 c 128,-1,141
 2988 2033 2988 2033 3009.5 2016.5 c 128,-1,142
 3031 2000 3031 2000 3068.5 1961 c 128,-1,143
 3106 1922 3106 1922 3133 1884.5 c 128,-1,144
 3160 1847 3160 1847 3144 1812 c 1,145,146
 3128 1788 3128 1788 3106.5 1802 c 128,-1,147
 3085 1816 3085 1816 3056 1826.5 c 128,-1,148
 3027 1837 3027 1837 2993 1841 c 128,-1,149
 2959 1845 2959 1845 2888 1845 c 2,150,-1
 571 1845 l 1,151,152
 523 1846 523 1846 485 1852 c 128,-1,153
 447 1858 447 1858 425 1865 c 128,-1,154
 403 1872 403 1872 379 1884 c 128,-1,155
 355 1896 355 1896 327.5 1914 c 128,-1,156
 300 1932 300 1932 269 1963.5 c 128,-1,157
 238 1995 238 1995 206 2036.5 c 128,-1,158
 174 2078 174 2078 165.5 2094.5 c 128,-1,131
 157 2111 157 2111 167.5 2127.5 c 128,-1,132
EndSplineSet
EndChar

StartChar: J
Encoding: 74 74 45
Width: 2690
Flags: W
LayerCount: 2
Fore
SplineSet
931 2789 m 1,0,1
 993 2789 993 2789 1060.5 2787 c 128,-1,2
 1128 2785 1128 2785 1182 2776 c 1,3,4
 1220 2776 1220 2776 1263 2644.5 c 128,-1,5
 1306 2513 1306 2513 1364 2389 c 1,6,7
 1383 2346 1383 2346 1403 2340 c 0,8,9
 1419 2335 1419 2335 1428 2319.5 c 128,-1,10
 1437 2304 1437 2304 1411 2292 c 1,11,12
 1348 2280 1348 2280 1284.5 2281.5 c 128,-1,13
 1221 2283 1221 2283 1163 2292 c 1,14,15
 1109 2317 1109 2317 1078.5 2409.5 c 128,-1,16
 1048 2502 1048 2502 985 2680 c 1,17,18
 980 2690 980 2690 963 2711.5 c 128,-1,19
 946 2733 946 2733 925 2737 c 0,20,21
 896 2743 896 2743 892.5 2765.5 c 128,-1,22
 889 2788 889 2788 931 2789 c 1,0,1
1801 2361 m 1,23,24
 1879 2390 1879 2390 2064 2358 c 1,25,26
 2172 2331 2172 2331 2255.5 2286 c 128,-1,27
 2339 2241 2339 2241 2384 2128 c 1,28,29
 2414 2019 2414 2019 2404 1954.5 c 128,-1,30
 2394 1890 2394 1890 2332 1805 c 1,31,32
 2273 1734 2273 1734 2194 1697 c 128,-1,33
 2115 1660 2115 1660 2000 1636 c 1,34,35
 1886 1614 1886 1614 1814 1614.5 c 128,-1,36
 1742 1615 1742 1615 1659 1618 c 1,37,38
 1577 1622 1577 1622 1506.5 1631.5 c 128,-1,39
 1436 1641 1436 1641 1336 1672 c 1,40,41
 1170 1718 1170 1718 1008 1797 c 0,42,43
 917 1842 917 1842 815.5 1894 c 128,-1,44
 714 1946 714 1946 589 2017 c 1,45,46
 531 2052 531 2052 463.5 2091.5 c 128,-1,47
 396 2131 396 2131 317 2172 c 1,48,49
 257 2209 257 2209 199.5 2246.5 c 128,-1,50
 142 2284 142 2284 151 2322 c 128,-1,51
 160 2360 160 2360 195 2358 c 128,-1,52
 230 2356 230 2356 414.5 2360 c 128,-1,53
 599 2364 599 2364 737 2361 c 1,54,55
 792 2321 792 2321 735.5 2303 c 128,-1,56
 679 2285 679 2285 652 2258 c 0,57,58
 601 2205 601 2205 606.5 2174 c 128,-1,59
 612 2143 612 2143 623 2125.5 c 128,-1,60
 634 2108 634 2108 656.5 2088 c 128,-1,61
 679 2068 679 2068 768 2007 c 128,-1,62
 857 1946 857 1946 989 1878 c 1,63,64
 1107 1826 1107 1826 1175 1793.5 c 128,-1,65
 1243 1761 1243 1761 1395 1720 c 1,66,67
 1508 1698 1508 1698 1624.5 1693 c 128,-1,68
 1741 1688 1741 1688 1861 1727 c 1,69,70
 1945 1764 1945 1764 1979.5 1790 c 128,-1,71
 2014 1816 2014 1816 2056 1880 c 1,72,73
 2093 1942 2093 1942 2098.5 1984.5 c 128,-1,74
 2104 2027 2104 2027 2100 2083 c 1,75,76
 2097 2140 2097 2140 2086 2165.5 c 128,-1,77
 2075 2191 2075 2191 2057 2217.5 c 128,-1,78
 2039 2244 2039 2244 2011.5 2265.5 c 128,-1,79
 1984 2287 1984 2287 1927 2296 c 128,-1,80
 1870 2305 1870 2305 1814 2311 c 1,81,82
 1790 2316 1790 2316 1783.5 2331.5 c 128,-1,83
 1777 2347 1777 2347 1801 2361 c 1,23,24
2531 3844 m 1,84,85
 2564 3838 2564 3838 2560 3810 c 128,-1,86
 2556 3782 2556 3782 2518 3779 c 1,87,88
 2476 3764 2476 3764 2449.5 3670.5 c 128,-1,89
 2423 3577 2423 3577 2393 3473 c 0,90,91
 2324 3229 2324 3229 2266.5 3077.5 c 128,-1,92
 2209 2926 2209 2926 2157.5 2865 c 128,-1,93
 2106 2804 2106 2804 2034 2773 c 0,94,95
 1923 2725 1923 2725 1815.5 2702 c 128,-1,96
 1708 2679 1708 2679 1629 2679 c 1,97,98
 1668 2586 1668 2586 1760 2550.5 c 128,-1,99
 1852 2515 1852 2515 1813 2473 c 1,100,101
 1790 2450 1790 2450 1671 2532.5 c 128,-1,102
 1552 2615 1552 2615 1508 2695 c 1,103,104
 1508 2746 1508 2746 1549.5 2737.5 c 128,-1,105
 1591 2729 1591 2729 1639 2726 c 256,106,107
 1687 2723 1687 2723 1737 2731 c 128,-1,108
 1787 2739 1787 2739 1871 2782 c 0,109,110
 1912 2803 1912 2803 1948.5 2875.5 c 128,-1,111
 1985 2948 1985 2948 2014.5 3036.5 c 128,-1,112
 2044 3125 2044 3125 2064.5 3212 c 128,-1,113
 2085 3299 2085 3299 2118.5 3462.5 c 128,-1,114
 2152 3626 2152 3626 2176 3681.5 c 128,-1,115
 2200 3737 2200 3737 2244 3771.5 c 128,-1,116
 2288 3806 2288 3806 2328 3816 c 128,-1,117
 2368 3826 2368 3826 2417 3831 c 128,-1,118
 2466 3836 2466 3836 2531 3844 c 1,84,85
1766 4092 m 1,119,120
 1797 4087 1797 4087 1793 4063.5 c 128,-1,121
 1789 4040 1789 4040 1754 4037 c 1,122,123
 1715 4025 1715 4025 1690.5 3946 c 128,-1,124
 1666 3867 1666 3867 1639 3779 c 0,125,126
 1575 3573 1575 3573 1521.5 3445 c 128,-1,127
 1468 3317 1468 3317 1420.5 3266 c 128,-1,128
 1373 3215 1373 3215 1307 3189 c 0,129,130
 1204 3148 1204 3148 1104.5 3129 c 128,-1,131
 1005 3110 1005 3110 932 3110 c 1,132,133
 968 3031 968 3031 1053 3001 c 128,-1,134
 1138 2971 1138 2971 1102 2936 c 1,135,136
 1081 2917 1081 2917 971 2986.5 c 128,-1,137
 861 3056 861 3056 820 3123 c 1,138,139
 820 3166 820 3166 858.5 3159 c 128,-1,140
 897 3152 897 3152 941 3149 c 1,141,142
 986 3147 986 3147 1032 3153.5 c 128,-1,143
 1078 3160 1078 3160 1156 3196 c 0,144,145
 1194 3214 1194 3214 1227.5 3275 c 128,-1,146
 1261 3336 1261 3336 1288.5 3411 c 128,-1,147
 1316 3486 1316 3486 1335 3559 c 128,-1,148
 1354 3632 1354 3632 1384.5 3770 c 128,-1,149
 1415 3908 1415 3908 1437.5 3955 c 128,-1,150
 1460 4002 1460 4002 1500.5 4031 c 128,-1,151
 1541 4060 1541 4060 1578 4068.5 c 128,-1,152
 1615 4077 1615 4077 1660.5 4081 c 128,-1,153
 1706 4085 1706 4085 1766 4092 c 1,119,120
EndSplineSet
EndChar

StartChar: K
Encoding: 75 75 46
Width: 2533
Flags: W
LayerCount: 2
Fore
SplineSet
1089 2789 m 1,0,1
 1150 2789 1150 2789 1217.5 2787 c 128,-1,2
 1285 2785 1285 2785 1339 2776 c 1,3,4
 1377 2776 1377 2776 1420 2644.5 c 128,-1,5
 1463 2513 1463 2513 1521 2389 c 1,6,7
 1540 2346 1540 2346 1560 2340 c 0,8,9
 1576 2335 1576 2335 1585 2319.5 c 128,-1,10
 1594 2304 1594 2304 1568 2292 c 1,11,12
 1505 2280 1505 2280 1441.5 2281.5 c 128,-1,13
 1378 2283 1378 2283 1321 2292 c 1,14,15
 1266 2317 1266 2317 1236 2409.5 c 128,-1,16
 1206 2502 1206 2502 1143 2680 c 1,17,18
 1137 2690 1137 2690 1120 2711.5 c 128,-1,19
 1103 2733 1103 2733 1082 2737 c 0,20,21
 1053 2743 1053 2743 1049.5 2765.5 c 128,-1,22
 1046 2788 1046 2788 1089 2789 c 1,0,1
1804 2361 m 1,23,24
 1882 2390 1882 2390 2067 2358 c 1,25,26
 2175 2331 2175 2331 2258.5 2286 c 128,-1,27
 2342 2241 2342 2241 2387 2128 c 1,28,29
 2417 2019 2417 2019 2407 1954.5 c 128,-1,30
 2397 1890 2397 1890 2335 1805 c 1,31,32
 2276 1734 2276 1734 2197 1697 c 128,-1,33
 2118 1660 2118 1660 2003 1636 c 1,34,35
 1889 1614 1889 1614 1817 1614.5 c 128,-1,36
 1745 1615 1745 1615 1662 1618 c 1,37,38
 1580 1622 1580 1622 1509.5 1631.5 c 128,-1,39
 1439 1641 1439 1641 1339 1672 c 1,40,41
 1173 1718 1173 1718 1011 1797 c 0,42,43
 920 1842 920 1842 818.5 1894 c 128,-1,44
 717 1946 717 1946 592 2017 c 1,45,46
 534 2052 534 2052 466.5 2091.5 c 128,-1,47
 399 2131 399 2131 320 2172 c 1,48,49
 260 2209 260 2209 202.5 2246.5 c 128,-1,50
 145 2284 145 2284 154 2322 c 128,-1,51
 163 2360 163 2360 198 2358 c 128,-1,52
 233 2356 233 2356 417.5 2360 c 128,-1,53
 602 2364 602 2364 740 2361 c 1,54,55
 795 2321 795 2321 738.5 2303 c 128,-1,56
 682 2285 682 2285 655 2258 c 0,57,58
 604 2205 604 2205 609.5 2174 c 128,-1,59
 615 2143 615 2143 626 2125.5 c 128,-1,60
 637 2108 637 2108 659.5 2088 c 128,-1,61
 682 2068 682 2068 771 2007 c 128,-1,62
 860 1946 860 1946 992 1878 c 1,63,64
 1110 1826 1110 1826 1178 1793.5 c 128,-1,65
 1246 1761 1246 1761 1398 1720 c 1,66,67
 1511 1698 1511 1698 1627.5 1693 c 128,-1,68
 1744 1688 1744 1688 1864 1727 c 1,69,70
 1948 1764 1948 1764 1982.5 1790 c 128,-1,71
 2017 1816 2017 1816 2059 1880 c 1,72,73
 2096 1942 2096 1942 2101.5 1984.5 c 128,-1,74
 2107 2027 2107 2027 2103 2083 c 1,75,76
 2100 2140 2100 2140 2089 2165.5 c 128,-1,77
 2078 2191 2078 2191 2060 2217.5 c 128,-1,78
 2042 2244 2042 2244 2014.5 2265.5 c 128,-1,79
 1987 2287 1987 2287 1930 2296 c 128,-1,80
 1873 2305 1873 2305 1817 2311 c 1,81,82
 1793 2316 1793 2316 1786.5 2331.5 c 128,-1,83
 1780 2347 1780 2347 1804 2361 c 1,23,24
1114 3844 m 1,84,85
 1147 3838 1147 3838 1143 3810 c 128,-1,86
 1139 3782 1139 3782 1101 3779 c 1,87,88
 1059 3764 1059 3764 1032.5 3670.5 c 128,-1,89
 1006 3577 1006 3577 976 3473 c 0,90,91
 907 3229 907 3229 849.5 3077.5 c 128,-1,92
 792 2926 792 2926 740.5 2865 c 128,-1,93
 689 2804 689 2804 617 2773 c 0,94,95
 506 2725 506 2725 398.5 2702 c 128,-1,96
 291 2679 291 2679 212 2679 c 1,97,98
 251 2586 251 2586 343 2550.5 c 128,-1,99
 435 2515 435 2515 396 2473 c 1,100,101
 373 2450 373 2450 254 2532.5 c 128,-1,102
 135 2615 135 2615 91 2695 c 1,103,104
 91 2746 91 2746 132.5 2737.5 c 128,-1,105
 174 2729 174 2729 222 2726 c 256,106,107
 270 2723 270 2723 320 2731 c 128,-1,108
 370 2739 370 2739 454 2782 c 0,109,110
 495 2803 495 2803 531.5 2875.5 c 128,-1,111
 568 2948 568 2948 597.5 3036.5 c 128,-1,112
 627 3125 627 3125 647.5 3212 c 128,-1,113
 668 3299 668 3299 701.5 3462.5 c 128,-1,114
 735 3626 735 3626 759 3681.5 c 128,-1,115
 783 3737 783 3737 827 3771.5 c 128,-1,116
 871 3806 871 3806 911 3816 c 128,-1,117
 951 3826 951 3826 1000 3831 c 128,-1,118
 1049 3836 1049 3836 1114 3844 c 1,84,85
2069 4092 m 1,119,120
 2100 4087 2100 4087 2096 4063.5 c 128,-1,121
 2092 4040 2092 4040 2057 4037 c 1,122,123
 2018 4025 2018 4025 1993.5 3946 c 128,-1,124
 1969 3867 1969 3867 1942 3779 c 0,125,126
 1878 3573 1878 3573 1824.5 3445 c 128,-1,127
 1771 3317 1771 3317 1723.5 3266 c 128,-1,128
 1676 3215 1676 3215 1610 3189 c 0,129,130
 1507 3148 1507 3148 1407.5 3129 c 128,-1,131
 1308 3110 1308 3110 1235 3110 c 1,132,133
 1271 3031 1271 3031 1356 3001 c 128,-1,134
 1441 2971 1441 2971 1405 2936 c 1,135,136
 1384 2917 1384 2917 1274 2986.5 c 128,-1,137
 1164 3056 1164 3056 1123 3123 c 1,138,139
 1123 3166 1123 3166 1161.5 3159 c 128,-1,140
 1200 3152 1200 3152 1244 3149 c 1,141,142
 1289 3147 1289 3147 1335 3153.5 c 128,-1,143
 1381 3160 1381 3160 1459 3196 c 0,144,145
 1497 3214 1497 3214 1530.5 3275 c 128,-1,146
 1564 3336 1564 3336 1591.5 3411 c 128,-1,147
 1619 3486 1619 3486 1638 3559 c 128,-1,148
 1657 3632 1657 3632 1687.5 3770 c 128,-1,149
 1718 3908 1718 3908 1740.5 3955 c 128,-1,150
 1763 4002 1763 4002 1803.5 4031 c 128,-1,151
 1844 4060 1844 4060 1881 4068.5 c 128,-1,152
 1918 4077 1918 4077 1963.5 4081 c 128,-1,153
 2009 4085 2009 4085 2069 4092 c 1,119,120
EndSplineSet
EndChar

StartChar: L
Encoding: 76 76 47
Width: 2786
Flags: W
LayerCount: 2
Fore
SplineSet
1804 2361 m 1,0,1
 1882 2390 1882 2390 2067 2358 c 1,2,3
 2175 2331 2175 2331 2258.5 2286 c 128,-1,4
 2342 2241 2342 2241 2387 2128 c 1,5,6
 2417 2019 2417 2019 2407 1954.5 c 128,-1,7
 2397 1890 2397 1890 2335 1805 c 1,8,9
 2276 1734 2276 1734 2197 1697 c 128,-1,10
 2118 1660 2118 1660 2003 1636 c 1,11,12
 1889 1614 1889 1614 1817 1614.5 c 128,-1,13
 1745 1615 1745 1615 1662 1618 c 1,14,15
 1580 1622 1580 1622 1509.5 1631.5 c 128,-1,16
 1439 1641 1439 1641 1339 1672 c 1,17,18
 1173 1718 1173 1718 1011 1797 c 0,19,20
 920 1842 920 1842 818.5 1894 c 128,-1,21
 717 1946 717 1946 592 2017 c 1,22,23
 534 2052 534 2052 466.5 2091.5 c 128,-1,24
 399 2131 399 2131 320 2172 c 1,25,26
 260 2209 260 2209 202.5 2246.5 c 128,-1,27
 145 2284 145 2284 154 2322 c 128,-1,28
 163 2360 163 2360 198 2358 c 128,-1,29
 233 2356 233 2356 417.5 2360 c 128,-1,30
 602 2364 602 2364 740 2361 c 1,31,32
 795 2321 795 2321 738.5 2303 c 128,-1,33
 682 2285 682 2285 655 2258 c 0,34,35
 604 2205 604 2205 609.5 2174 c 128,-1,36
 615 2143 615 2143 626 2125.5 c 128,-1,37
 637 2108 637 2108 659.5 2088 c 128,-1,38
 682 2068 682 2068 771 2007 c 128,-1,39
 860 1946 860 1946 992 1878 c 1,40,41
 1110 1826 1110 1826 1178 1793.5 c 128,-1,42
 1246 1761 1246 1761 1398 1720 c 1,43,44
 1511 1698 1511 1698 1627.5 1693 c 128,-1,45
 1744 1688 1744 1688 1864 1727 c 1,46,47
 1948 1764 1948 1764 1982.5 1790 c 128,-1,48
 2017 1816 2017 1816 2059 1880 c 1,49,50
 2096 1942 2096 1942 2101.5 1984.5 c 128,-1,51
 2107 2027 2107 2027 2103 2083 c 1,52,53
 2100 2140 2100 2140 2089 2165.5 c 128,-1,54
 2078 2191 2078 2191 2060 2217.5 c 128,-1,55
 2042 2244 2042 2244 2014.5 2265.5 c 128,-1,56
 1987 2287 1987 2287 1930 2296 c 128,-1,57
 1873 2305 1873 2305 1817 2311 c 1,58,59
 1793 2316 1793 2316 1786.5 2331.5 c 128,-1,60
 1780 2347 1780 2347 1804 2361 c 1,0,1
2624 3844 m 1,61,62
 2657 3838 2657 3838 2653 3810 c 128,-1,63
 2649 3782 2649 3782 2611 3779 c 1,64,65
 2569 3764 2569 3764 2542.5 3670.5 c 128,-1,66
 2516 3577 2516 3577 2486 3473 c 0,67,68
 2417 3229 2417 3229 2359.5 3077.5 c 128,-1,69
 2302 2926 2302 2926 2250.5 2865 c 128,-1,70
 2199 2804 2199 2804 2127 2773 c 0,71,72
 2016 2725 2016 2725 1908.5 2702 c 128,-1,73
 1801 2679 1801 2679 1722 2679 c 1,74,75
 1761 2586 1761 2586 1853 2550.5 c 128,-1,76
 1945 2515 1945 2515 1906 2473 c 1,77,78
 1883 2450 1883 2450 1764 2532.5 c 128,-1,79
 1645 2615 1645 2615 1601 2695 c 1,80,81
 1601 2746 1601 2746 1642.5 2737.5 c 128,-1,82
 1684 2729 1684 2729 1732 2726 c 256,83,84
 1780 2723 1780 2723 1830 2731 c 128,-1,85
 1880 2739 1880 2739 1964 2782 c 0,86,87
 2005 2803 2005 2803 2041.5 2875.5 c 128,-1,88
 2078 2948 2078 2948 2107.5 3036.5 c 128,-1,89
 2137 3125 2137 3125 2157.5 3212 c 128,-1,90
 2178 3299 2178 3299 2211.5 3462.5 c 128,-1,91
 2245 3626 2245 3626 2269 3681.5 c 128,-1,92
 2293 3737 2293 3737 2337 3771.5 c 128,-1,93
 2381 3806 2381 3806 2421 3816 c 128,-1,94
 2461 3826 2461 3826 2510 3831 c 128,-1,95
 2559 3836 2559 3836 2624 3844 c 1,61,62
1854 3844 m 1,96,97
 1887 3838 1887 3838 1883 3810 c 128,-1,98
 1879 3782 1879 3782 1841 3779 c 1,99,100
 1799 3764 1799 3764 1772.5 3670.5 c 128,-1,101
 1746 3577 1746 3577 1716 3473 c 0,102,103
 1647 3229 1647 3229 1589.5 3077.5 c 128,-1,104
 1532 2926 1532 2926 1480.5 2865 c 128,-1,105
 1429 2804 1429 2804 1357 2773 c 0,106,107
 1246 2725 1246 2725 1138.5 2702 c 128,-1,108
 1031 2679 1031 2679 952 2679 c 1,109,110
 991 2586 991 2586 1083 2550.5 c 128,-1,111
 1175 2515 1175 2515 1136 2473 c 1,112,113
 1113 2450 1113 2450 994 2532.5 c 128,-1,114
 875 2615 875 2615 831 2695 c 1,115,116
 831 2746 831 2746 872.5 2737.5 c 128,-1,117
 914 2729 914 2729 962 2726 c 256,118,119
 1010 2723 1010 2723 1060 2731 c 128,-1,120
 1110 2739 1110 2739 1194 2782 c 0,121,122
 1235 2803 1235 2803 1271.5 2875.5 c 128,-1,123
 1308 2948 1308 2948 1337.5 3036.5 c 128,-1,124
 1367 3125 1367 3125 1387.5 3212 c 128,-1,125
 1408 3299 1408 3299 1441.5 3462.5 c 128,-1,126
 1475 3626 1475 3626 1499 3681.5 c 128,-1,127
 1523 3737 1523 3737 1567 3771.5 c 128,-1,128
 1611 3806 1611 3806 1651 3816 c 128,-1,129
 1691 3826 1691 3826 1740 3831 c 128,-1,130
 1789 3836 1789 3836 1854 3844 c 1,96,97
1114 3844 m 1,131,132
 1147 3838 1147 3838 1143 3810 c 128,-1,133
 1139 3782 1139 3782 1101 3779 c 1,134,135
 1059 3764 1059 3764 1032.5 3670.5 c 128,-1,136
 1006 3577 1006 3577 976 3473 c 0,137,138
 907 3229 907 3229 849.5 3077.5 c 128,-1,139
 792 2926 792 2926 740.5 2865 c 128,-1,140
 689 2804 689 2804 617 2773 c 0,141,142
 506 2725 506 2725 398.5 2702 c 128,-1,143
 291 2679 291 2679 212 2679 c 1,144,145
 251 2586 251 2586 343 2550.5 c 128,-1,146
 435 2515 435 2515 396 2473 c 1,147,148
 373 2450 373 2450 254 2532.5 c 128,-1,149
 135 2615 135 2615 91 2695 c 1,150,151
 91 2746 91 2746 132.5 2737.5 c 128,-1,152
 174 2729 174 2729 222 2726 c 256,153,154
 270 2723 270 2723 320 2731 c 128,-1,155
 370 2739 370 2739 454 2782 c 0,156,157
 495 2803 495 2803 531.5 2875.5 c 128,-1,158
 568 2948 568 2948 597.5 3036.5 c 128,-1,159
 627 3125 627 3125 647.5 3212 c 128,-1,160
 668 3299 668 3299 701.5 3462.5 c 128,-1,161
 735 3626 735 3626 759 3681.5 c 128,-1,162
 783 3737 783 3737 827 3771.5 c 128,-1,163
 871 3806 871 3806 911 3816 c 128,-1,164
 951 3826 951 3826 1000 3831 c 128,-1,165
 1049 3836 1049 3836 1114 3844 c 1,131,132
EndSplineSet
EndChar

StartChar: M
Encoding: 77 77 48
Width: 0
Flags: W
LayerCount: 2
Fore
SplineSet
-1394 3225 m 0,0,1
 -1394 3137 -1394 3137 -1488 3137 c 0,2,3
 -1586 3137 -1586 3137 -1586 3225 c 0,4,5
 -1586 3305 -1586 3305 -1488 3305 c 0,6,7
 -1394 3305 -1394 3305 -1394 3225 c 0,0,1
-919 3137 m 1,8,-1
 -979 3137 l 1,9,10
 -987 3326 -987 3326 -1147.5 3447 c 128,-1,11
 -1308 3568 -1308 3568 -1488 3568 c 0,12,13
 -1665 3568 -1665 3568 -1827 3445.5 c 128,-1,14
 -1989 3323 -1989 3323 -1998 3137 c 1,15,-1
 -2054 3137 l 1,16,17
 -2036 3366 -2036 3366 -1886.5 3554.5 c 128,-1,18
 -1737 3743 -1737 3743 -1488 3743 c 0,19,20
 -1240 3743 -1240 3743 -1088 3556 c 128,-1,21
 -936 3369 -936 3369 -919 3137 c 1,8,-1
-382 1970 m 0,22,23
 -380 1970 -380 1970 -380 1967 c 0,24,25
 -380 1965 -380 1965 -382 1965 c 0,26,27
 -385 1965 -385 1965 -385 1967 c 0,28,29
 -385 1970 -385 1970 -382 1970 c 0,22,23
EndSplineSet
EndChar

StartChar: N
Encoding: 78 78 49
Width: 2533
Flags: W
LayerCount: 2
Fore
SplineSet
1212 1720 m 1,0,1
 1191 1736 1191 1736 1209 1750.5 c 128,-1,2
 1227 1765 1227 1765 1254 1765 c 0,3,4
 1284 1765 1284 1765 1338 1819 c 128,-1,5
 1392 1873 1392 1873 1410 1952 c 1,6,7
 1438 2088 1438 2088 1269 2173 c 0,8,9
 1206 2204 1206 2204 1107 2229 c 128,-1,10
 1008 2254 1008 2254 912.5 2272 c 128,-1,11
 817 2290 817 2290 744 2301.5 c 128,-1,12
 671 2313 671 2313 659 2318 c 0,13,14
 633 2327 633 2327 639 2344.5 c 128,-1,15
 645 2362 645 2362 666 2362 c 0,16,17
 687 2361 687 2361 920 2328 c 128,-1,18
 1153 2295 1153 2295 1334 2224 c 0,19,20
 1442 2182 1442 2182 1507 2139 c 128,-1,21
 1572 2096 1572 2096 1626 2025 c 1,22,23
 1680 1952 1680 1952 1671.5 1879.5 c 128,-1,24
 1663 1807 1663 1807 1609 1768 c 0,25,26
 1560 1732 1560 1732 1496 1719 c 128,-1,27
 1432 1706 1432 1706 1374 1706 c 256,28,29
 1316 1706 1316 1706 1292.5 1706 c 128,-1,30
 1269 1706 1269 1706 1212 1720 c 1,0,1
1649 2475 m 1,31,-1
 1666 2408 l 2,32,33
 1668 2400 1668 2400 1686 2373.5 c 128,-1,34
 1704 2347 1704 2347 1704 2341 c 0,35,36
 1704 2334 1704 2334 1673 2328.5 c 128,-1,37
 1642 2323 1642 2323 1633 2323 c 2,38,-1
 1521 2323 l 2,39,40
 1500 2323 1500 2323 1479.5 2352 c 128,-1,41
 1459 2381 1459 2381 1454 2408 c 1,42,-1
 1438 2475 l 1,43,44
 1222 2476 1222 2476 1042.5 2492 c 128,-1,45
 863 2508 863 2508 787 2520 c 0,46,47
 501 2562 501 2562 434 2713 c 0,48,49
 419 2746 419 2746 381 2811.5 c 128,-1,50
 343 2877 343 2877 300.5 2943.5 c 128,-1,51
 258 3010 258 3010 220 3062.5 c 128,-1,52
 182 3115 182 3115 167 3122 c 1,53,54
 92 3147 92 3147 133 3175 c 1,55,56
 327 3192 327 3192 484 3180 c 1,57,58
 572 3175 572 3175 610.5 3084 c 128,-1,59
 649 2993 649 2993 688 2846 c 1,60,61
 725 2698 725 2698 782 2644.5 c 128,-1,62
 839 2591 839 2591 977 2557 c 0,63,64
 1120 2522 1120 2522 1432 2528 c 1,65,-1
 1409 2648 l 2,66,67
 1407 2657 1407 2657 1390.5 2671.5 c 128,-1,68
 1374 2686 1374 2686 1374 2694 c 0,69,70
 1374 2704 1374 2704 1404 2708 c 128,-1,71
 1434 2712 1434 2712 1446 2712 c 2,72,-1
 1558 2712 l 2,73,74
 1579 2712 1579 2712 1598.5 2684.5 c 128,-1,75
 1618 2657 1618 2657 1625 2625 c 2,76,-1
 1644 2528 l 1,77,78
 1767 2530 1767 2530 1811.5 2536.5 c 128,-1,79
 1856 2543 1856 2543 1908 2550 c 1,80,81
 1963 2543 1963 2543 1924 2504 c 1,82,83
 1906 2489 1906 2489 1848.5 2481.5 c 128,-1,84
 1791 2474 1791 2474 1649 2475 c 1,31,-1
1649 3150 m 1,85,-1
 1666 3083 l 2,86,87
 1668 3076 1668 3076 1686 3049 c 128,-1,88
 1704 3022 1704 3022 1704 3016 c 0,89,90
 1704 3009 1704 3009 1673 3003 c 128,-1,91
 1642 2997 1642 2997 1633 2997 c 2,92,-1
 1521 2997 l 2,93,94
 1500 2997 1500 2997 1479.5 3026.5 c 128,-1,95
 1459 3056 1459 3056 1454 3083 c 1,96,-1
 1438 3150 l 1,97,98
 1222 3150 1222 3150 1042.5 3166 c 128,-1,99
 863 3182 863 3182 787 3194 c 0,100,101
 500 3238 500 3238 434 3388 c 0,102,103
 419 3421 419 3421 381 3486.5 c 128,-1,104
 343 3552 343 3552 300.5 3618.5 c 128,-1,105
 258 3685 258 3685 220 3737.5 c 128,-1,106
 182 3790 182 3790 167 3797 c 1,107,108
 92 3822 92 3822 133 3850 c 1,109,110
 327 3867 327 3867 484 3855 c 1,111,112
 572 3850 572 3850 610.5 3759 c 128,-1,113
 649 3668 649 3668 688 3521 c 1,114,115
 725 3373 725 3373 782 3319.5 c 128,-1,116
 839 3266 839 3266 977 3232 c 1,117,118
 1113 3197 1113 3197 1432 3202 c 1,119,-1
 1409 3323 l 2,120,121
 1407 3332 1407 3332 1390.5 3346.5 c 128,-1,122
 1374 3361 1374 3361 1374 3368 c 0,123,124
 1374 3379 1374 3379 1404 3383 c 128,-1,125
 1434 3387 1434 3387 1446 3387 c 2,126,-1
 1558 3387 l 2,127,128
 1579 3387 1579 3387 1598.5 3359.5 c 128,-1,129
 1618 3332 1618 3332 1625 3301 c 2,130,-1
 1644 3203 l 1,131,132
 1767 3205 1767 3205 1811.5 3211.5 c 128,-1,133
 1856 3218 1856 3218 1908 3225 c 1,134,135
 1962 3218 1962 3218 1924 3178 c 1,136,137
 1906 3163 1906 3163 1848.5 3156 c 128,-1,138
 1791 3149 1791 3149 1649 3150 c 1,85,-1
1803 2081 m 1,139,140
 1881 2110 1881 2110 2066 2078 c 1,141,142
 2174 2051 2174 2051 2257.5 2006 c 128,-1,143
 2341 1961 2341 1961 2386 1848 c 1,144,145
 2416 1739 2416 1739 2406 1674.5 c 128,-1,146
 2396 1610 2396 1610 2334 1525 c 1,147,148
 2275 1454 2275 1454 2196 1417 c 128,-1,149
 2117 1380 2117 1380 2002 1356 c 1,150,151
 1888 1334 1888 1334 1816 1334.5 c 128,-1,152
 1744 1335 1744 1335 1661 1338 c 1,153,154
 1579 1342 1579 1342 1508.5 1351.5 c 128,-1,155
 1438 1361 1438 1361 1338 1392 c 1,156,157
 1172 1438 1172 1438 1010 1517 c 0,158,159
 919 1562 919 1562 817.5 1614 c 128,-1,160
 716 1666 716 1666 591 1737 c 1,161,162
 533 1772 533 1772 465.5 1811.5 c 128,-1,163
 398 1851 398 1851 319 1892 c 1,164,165
 259 1929 259 1929 201.5 1966.5 c 128,-1,166
 144 2004 144 2004 153 2042 c 128,-1,167
 162 2080 162 2080 197 2078 c 128,-1,168
 232 2076 232 2076 416.5 2080 c 128,-1,169
 601 2084 601 2084 739 2081 c 1,170,171
 794 2041 794 2041 737.5 2023 c 128,-1,172
 681 2005 681 2005 654 1978 c 0,173,174
 603 1925 603 1925 608.5 1894 c 128,-1,175
 614 1863 614 1863 625 1845.5 c 128,-1,176
 636 1828 636 1828 658.5 1808 c 128,-1,177
 681 1788 681 1788 770 1727 c 128,-1,178
 859 1666 859 1666 991 1598 c 1,179,180
 1109 1546 1109 1546 1177 1513.5 c 128,-1,181
 1245 1481 1245 1481 1397 1440 c 1,182,183
 1510 1418 1510 1418 1626.5 1413 c 128,-1,184
 1743 1408 1743 1408 1863 1447 c 1,185,186
 1947 1484 1947 1484 1981.5 1510 c 128,-1,187
 2016 1536 2016 1536 2058 1600 c 1,188,189
 2095 1662 2095 1662 2100.5 1704.5 c 128,-1,190
 2106 1747 2106 1747 2102 1803 c 1,191,192
 2099 1860 2099 1860 2088 1885.5 c 128,-1,193
 2077 1911 2077 1911 2059 1937.5 c 128,-1,194
 2041 1964 2041 1964 2013.5 1985.5 c 128,-1,195
 1986 2007 1986 2007 1929 2016 c 128,-1,196
 1872 2025 1872 2025 1816 2031 c 1,197,198
 1792 2036 1792 2036 1785.5 2051.5 c 128,-1,199
 1779 2067 1779 2067 1803 2081 c 1,139,140
EndSplineSet
EndChar

StartChar: O
Encoding: 79 79 50
Width: 3334
Flags: W
LayerCount: 2
Fore
SplineSet
911 3409 m 0,0,1
 911 3435 911 3435 931 3438 c 1,2,3
 1051 3439 1051 3439 1172.5 3440 c 128,-1,4
 1294 3441 1294 3441 1414 3442 c 1,5,6
 1415 3516 1415 3516 1415.5 3539 c 128,-1,7
 1416 3562 1416 3562 1416 3644 c 0,8,9
 1416 3670 1416 3670 1436 3674 c 1,10,11
 1586 3675 1586 3675 1738.5 3675.5 c 128,-1,12
 1891 3676 1891 3676 2042 3678 c 1,13,14
 2052 3665 2052 3665 2049.5 3643.5 c 128,-1,15
 2047 3622 2047 3622 2043 3607 c 1,16,17
 2012 3600 2012 3600 1841 3600 c 128,-1,18
 1670 3600 1670 3600 1545 3600 c 1,19,20
 1544 3498 1544 3498 1549 3438.5 c 128,-1,21
 1554 3379 1554 3379 1543 3379 c 1,22,23
 1525 3375 1525 3375 1510 3372 c 128,-1,24
 1495 3369 1495 3369 1417 3372 c 1,25,26
 1334 3370 1334 3370 1227 3367.5 c 128,-1,27
 1120 3365 1120 3365 1040 3365 c 1,28,29
 1040 3358 1040 3358 1040 3351 c 128,-1,30
 1040 3344 1040 3344 1040 3338 c 1,31,-1
 1040 3338 l 1,32,33
 1041 3143 1041 3143 1038 3143 c 0,34,35
 1020 3140 1020 3140 1005 3136.5 c 128,-1,36
 990 3133 990 3133 912 3136 c 1,37,38
 829 3135 829 3135 722 3132.5 c 128,-1,39
 615 3130 615 3130 535 3130 c 1,40,41
 533 2910 533 2910 531 2910 c 0,42,43
 499 2910 499 2910 463 2905.5 c 128,-1,44
 427 2901 427 2901 402 2910 c 1,45,46
 399 2910 399 2910 399 2930 c 1,47,48
 399 2930 399 2930 400.5 2931.5 c 128,-1,49
 402 2933 402 2933 402 2934 c 0,50,51
 402 3038 402 3038 404.5 3053.5 c 128,-1,52
 407 3069 407 3069 407 3174 c 0,53,54
 407 3200 407 3200 426 3203 c 1,55,56
 546 3204 546 3204 667.5 3204.5 c 128,-1,57
 789 3205 789 3205 910 3206 c 1,58,59
 910 3257 910 3257 910.5 3307.5 c 128,-1,60
 911 3358 911 3358 911 3409 c 0,0,1
2357 2715 m 1,61,62
 2418 2715 2418 2715 2485.5 2713 c 128,-1,63
 2553 2711 2553 2711 2607 2701 c 1,64,65
 2645 2701 2645 2701 2695 2596.5 c 128,-1,66
 2745 2492 2745 2492 2803 2367 c 1,67,68
 2820 2324 2820 2324 2842 2319 c 1,69,70
 2857 2313 2857 2313 2866 2297.5 c 128,-1,71
 2875 2282 2875 2282 2849 2270 c 1,72,73
 2787 2258 2787 2258 2723 2260 c 128,-1,74
 2659 2262 2659 2262 2602 2270 c 1,75,76
 2548 2295 2548 2295 2511 2361.5 c 128,-1,77
 2474 2428 2474 2428 2411 2605 c 1,78,79
 2405 2616 2405 2616 2388.5 2637.5 c 128,-1,80
 2372 2659 2372 2659 2350 2663 c 0,81,82
 2322 2668 2322 2668 2318 2691 c 128,-1,83
 2314 2714 2314 2714 2357 2715 c 1,61,62
1804 2715 m 1,84,85
 1865 2715 1865 2715 1932.5 2713 c 128,-1,86
 2000 2711 2000 2711 2054 2701 c 1,87,88
 2092 2701 2092 2701 2141.5 2596.5 c 128,-1,89
 2191 2492 2191 2492 2249 2367 c 0,90,91
 2268 2324 2268 2324 2288 2319 c 1,92,93
 2304 2313 2304 2313 2313 2297.5 c 128,-1,94
 2322 2282 2322 2282 2296 2270 c 1,95,96
 2233 2258 2233 2258 2169.5 2260 c 128,-1,97
 2106 2262 2106 2262 2048 2270 c 1,98,99
 1994 2295 1994 2295 1957.5 2361.5 c 128,-1,100
 1921 2428 1921 2428 1858 2605 c 1,101,102
 1852 2616 1852 2616 1835 2637.5 c 128,-1,103
 1818 2659 1818 2659 1797 2663 c 0,104,105
 1768 2668 1768 2668 1764.5 2691 c 128,-1,106
 1761 2714 1761 2714 1804 2715 c 1,84,85
1152 2815 m 1,107,108
 1200 2813 1200 2813 1196.5 2789.5 c 128,-1,109
 1193 2766 1193 2766 1160 2761 c 0,110,111
 1134 2757 1134 2757 1115 2741 c 128,-1,112
 1096 2725 1096 2725 1091 2716 c 0,113,114
 1017 2557 1017 2557 977.5 2438 c 128,-1,115
 938 2319 938 2319 876 2297 c 1,116,117
 810 2290 810 2290 737 2287.5 c 128,-1,118
 664 2285 664 2285 594 2297 c 1,119,120
 564 2308 564 2308 573.5 2321.5 c 128,-1,121
 583 2335 583 2335 603 2340 c 0,122,123
 624 2346 624 2346 647 2384 c 0,124,125
 718 2498 718 2498 770 2650 c 128,-1,126
 822 2802 822 2802 867 2802 c 1,127,128
 928 2811 928 2811 1004.5 2813 c 128,-1,129
 1081 2815 1081 2815 1152 2815 c 1,107,108
2231 3635 m 2,130,-1
 2318 3635 l 2,131,132
 2324 3635 2324 3635 2340.5 3634.5 c 128,-1,133
 2357 3634 2357 3634 2362 3630 c 0,134,135
 2368 3624 2368 3624 2360 3623.5 c 128,-1,136
 2352 3623 2352 3623 2347 3590 c 2,137,-1
 2338 3520 l 2,138,139
 2332 3476 2332 3476 2296 3476 c 2,140,-1
 2210 3476 l 2,141,142
 2202 3476 2202 3476 2183 3477 c 128,-1,143
 2164 3478 2164 3478 2164 3485 c 1,144,145
 2162 3494 2162 3494 2169.5 3496.5 c 128,-1,146
 2177 3499 2177 3499 2180 3520 c 2,147,-1
 2189 3590 l 2,148,149
 2194 3635 2194 3635 2231 3635 c 2,130,-1
167.5 2127.5 m 128,-1,151
 178 2144 178 2144 191 2145.5 c 128,-1,152
 204 2147 204 2147 219 2138 c 128,-1,153
 234 2129 234 2129 256 2118 c 128,-1,154
 278 2107 278 2107 313 2100 c 128,-1,155
 348 2093 348 2093 411 2093 c 2,156,-1
 2758 2093 l 1,157,158
 2816 2094 2816 2094 2863 2084 c 128,-1,159
 2910 2074 2910 2074 2949 2053.5 c 128,-1,160
 2988 2033 2988 2033 3009.5 2016.5 c 128,-1,161
 3031 2000 3031 2000 3068.5 1961 c 128,-1,162
 3106 1922 3106 1922 3133 1884.5 c 128,-1,163
 3160 1847 3160 1847 3144 1812 c 1,164,165
 3128 1788 3128 1788 3106.5 1802 c 128,-1,166
 3085 1816 3085 1816 3056 1826.5 c 128,-1,167
 3027 1837 3027 1837 2993 1841 c 128,-1,168
 2959 1845 2959 1845 2888 1845 c 2,169,-1
 571 1845 l 1,170,171
 523 1846 523 1846 485 1852 c 128,-1,172
 447 1858 447 1858 425 1865 c 128,-1,173
 403 1872 403 1872 379 1884 c 128,-1,174
 355 1896 355 1896 327.5 1914 c 128,-1,175
 300 1932 300 1932 269 1963.5 c 128,-1,176
 238 1995 238 1995 206 2036.5 c 128,-1,177
 174 2078 174 2078 165.5 2094.5 c 128,-1,150
 157 2111 157 2111 167.5 2127.5 c 128,-1,151
EndSplineSet
EndChar

StartChar: P
Encoding: 80 80 51
Width: 4509
Flags: W
LayerCount: 2
Fore
SplineSet
499 2288 m 1,0,1
 479 2303 479 2303 496.5 2316.5 c 128,-1,2
 514 2330 514 2330 540 2330 c 0,3,4
 569 2330 569 2330 620 2381.5 c 128,-1,5
 671 2433 671 2433 688 2509 c 1,6,7
 714 2637 714 2637 554 2718 c 0,8,9
 434 2778 434 2778 228.5 2810 c 128,-1,10
 23 2842 23 2842 0 2851 c 256,11,12
 -23 2860 -23 2860 -17 2876.5 c 128,-1,13
 -11 2893 -11 2893 7 2893 c 0,14,15
 26 2892 26 2892 235 2862.5 c 128,-1,16
 444 2833 444 2833 616 2767 c 0,17,18
 718 2727 718 2727 780 2686 c 128,-1,19
 842 2645 842 2645 894 2577 c 1,20,21
 945 2508 945 2508 936.5 2439.5 c 128,-1,22
 928 2371 928 2371 877 2334 c 0,23,24
 830 2299 830 2299 769.5 2287 c 128,-1,25
 709 2275 709 2275 654 2275 c 0,26,27
 598 2275 598 2275 576 2275 c 128,-1,28
 554 2275 554 2275 499 2288 c 1,0,1
3103 2715 m 1,29,30
 3165 2715 3165 2715 3232 2713 c 128,-1,31
 3299 2711 3299 2711 3353 2701 c 1,32,33
 3391 2701 3391 2701 3441 2596.5 c 128,-1,34
 3491 2492 3491 2492 3549 2367 c 0,35,36
 3568 2324 3568 2324 3588 2319 c 1,37,38
 3603 2313 3603 2313 3612.5 2297.5 c 128,-1,39
 3622 2282 3622 2282 3595 2270 c 1,40,41
 3533 2258 3533 2258 3469 2260 c 128,-1,42
 3405 2262 3405 2262 3348 2270 c 1,43,44
 3294 2295 3294 2295 3257 2361.5 c 128,-1,45
 3220 2428 3220 2428 3157 2605 c 1,46,47
 3152 2616 3152 2616 3135 2637.5 c 128,-1,48
 3118 2659 3118 2659 3097 2663 c 0,49,50
 3068 2668 3068 2668 3064.5 2691 c 128,-1,51
 3061 2714 3061 2714 3103 2715 c 1,29,30
3657 2715 m 1,52,53
 3718 2715 3718 2715 3785.5 2713 c 128,-1,54
 3853 2711 3853 2711 3907 2701 c 1,55,56
 3945 2701 3945 2701 3995 2596.5 c 128,-1,57
 4045 2492 4045 2492 4102 2367 c 0,58,59
 4121 2324 4121 2324 4141 2319 c 1,60,61
 4157 2313 4157 2313 4166 2297.5 c 128,-1,62
 4175 2282 4175 2282 4149 2270 c 1,63,64
 4086 2258 4086 2258 4022.5 2260 c 128,-1,65
 3959 2262 3959 2262 3902 2270 c 1,66,67
 3847 2295 3847 2295 3810.5 2361.5 c 128,-1,68
 3774 2428 3774 2428 3711 2605 c 1,69,70
 3705 2616 3705 2616 3688 2637.5 c 128,-1,71
 3671 2659 3671 2659 3650 2663 c 0,72,73
 3621 2668 3621 2668 3617.5 2691 c 128,-1,74
 3614 2714 3614 2714 3657 2715 c 1,52,53
543.5 2127.5 m 128,-1,76
 554 2144 554 2144 567 2145.5 c 128,-1,77
 580 2147 580 2147 595 2138 c 128,-1,78
 610 2129 610 2129 632 2118 c 128,-1,79
 654 2107 654 2107 689 2100 c 128,-1,80
 724 2093 724 2093 787 2093 c 2,81,-1
 3874 2093 l 1,82,83
 3932 2094 3932 2094 3979 2084 c 128,-1,84
 4026 2074 4026 2074 4065 2053.5 c 128,-1,85
 4104 2033 4104 2033 4125.5 2016.5 c 128,-1,86
 4147 2000 4147 2000 4184.5 1961 c 128,-1,87
 4222 1922 4222 1922 4249 1884.5 c 128,-1,88
 4276 1847 4276 1847 4260 1812 c 1,89,90
 4244 1788 4244 1788 4222.5 1802 c 128,-1,91
 4201 1816 4201 1816 4172 1826.5 c 128,-1,92
 4143 1837 4143 1837 4109 1841 c 128,-1,93
 4075 1845 4075 1845 4004 1845 c 2,94,-1
 947 1845 l 1,95,96
 899 1846 899 1846 861 1852 c 128,-1,97
 823 1858 823 1858 801 1865 c 128,-1,98
 779 1872 779 1872 755 1884 c 128,-1,99
 731 1896 731 1896 703.5 1914 c 128,-1,100
 676 1932 676 1932 645 1963.5 c 128,-1,101
 614 1995 614 1995 582 2036.5 c 128,-1,102
 550 2078 550 2078 541.5 2094.5 c 128,-1,75
 533 2111 533 2111 543.5 2127.5 c 128,-1,76
1499 2294 m 1,103,104
 1429 2268 1429 2268 1264 2297 c 1,105,106
 1167 2321 1167 2321 1092.5 2361.5 c 128,-1,107
 1018 2402 1018 2402 978 2503 c 1,108,109
 951 2600 951 2600 960 2657.5 c 128,-1,110
 969 2715 969 2715 1024 2791 c 1,111,112
 1077 2855 1077 2855 1147.5 2888 c 128,-1,113
 1218 2921 1218 2921 1321 2942 c 0,114,115
 1423 2962 1423 2962 1487 2961.5 c 128,-1,116
 1551 2961 1551 2961 1625 2958 c 256,117,118
 1699 2955 1699 2955 1762 2946.5 c 128,-1,119
 1825 2938 1825 2938 1914 2910 c 1,120,121
 2063 2869 2063 2869 2207 2798 c 0,122,123
 2289 2758 2289 2758 2379.5 2711.5 c 128,-1,124
 2470 2665 2470 2665 2582 2602 c 1,125,126
 2634 2571 2634 2571 2694 2535.5 c 128,-1,127
 2754 2500 2754 2500 2825 2463 c 1,128,129
 2878 2430 2878 2430 2929.5 2396.5 c 128,-1,130
 2981 2363 2981 2363 2973 2329 c 128,-1,131
 2965 2295 2965 2295 2934 2297 c 128,-1,132
 2903 2299 2903 2299 2738 2295.5 c 128,-1,133
 2573 2292 2573 2292 2449 2294 c 1,134,135
 2400 2330 2400 2330 2450.5 2346 c 128,-1,136
 2501 2362 2501 2362 2525 2386 c 0,137,138
 2571 2434 2571 2434 2566 2461.5 c 128,-1,139
 2561 2489 2561 2489 2551.5 2504.5 c 128,-1,140
 2542 2520 2542 2520 2521.5 2538 c 128,-1,141
 2501 2556 2501 2556 2421.5 2610.5 c 128,-1,142
 2342 2665 2342 2665 2224 2726 c 1,143,144
 2119 2773 2119 2773 2058 2802 c 128,-1,145
 1997 2831 1997 2831 1861 2867 c 1,146,147
 1760 2887 1760 2887 1656 2891.5 c 128,-1,148
 1552 2896 1552 2896 1445 2861 c 1,149,150
 1370 2828 1370 2828 1339 2804.5 c 128,-1,151
 1308 2781 1308 2781 1271 2724 c 1,152,153
 1238 2669 1238 2669 1233 2631 c 128,-1,154
 1228 2593 1228 2593 1231 2543 c 0,155,156
 1234 2492 1234 2492 1244 2469 c 128,-1,157
 1254 2446 1254 2446 1270 2422.5 c 128,-1,158
 1286 2399 1286 2399 1310.5 2380 c 128,-1,159
 1335 2361 1335 2361 1386 2352.5 c 128,-1,160
 1437 2344 1437 2344 1487 2339 c 1,161,162
 1508 2335 1508 2335 1514 2321 c 128,-1,163
 1520 2307 1520 2307 1499 2294 c 1,103,104
EndSplineSet
EndChar

StartChar: Q
Encoding: 81 81 52
Width: 379
Flags: W
LayerCount: 2
Fore
SplineSet
35 1940 m 1,0,1
 37 1940 37 1940 37 1938 c 256,2,3
 37 1936 37 1936 35 1936 c 1,4,5
 35 1936 35 1936 34.5 1936.5 c 128,-1,6
 34 1937 34 1937 34 1938 c 2,7,8
 34 1938 34 1938 34.5 1939 c 128,-1,9
 35 1940 35 1940 35 1940 c 1,0,1
-406 2950 m 1,10,11
 -256 2951 -256 2951 -103 2952 c 128,-1,12
 50 2953 50 2953 200 2955 c 1,13,14
 211 2941 211 2941 208.5 2918 c 128,-1,15
 206 2895 206 2895 201 2880 c 1,16,17
 170 2873 170 2873 -0.5 2873.5 c 128,-1,18
 -171 2874 -171 2874 -297 2874 c 1,19,20
 -298 2768 -298 2768 -293 2635 c 128,-1,21
 -288 2502 -288 2502 -299 2501 c 1,22,23
 -331 2501 -331 2501 -367 2496.5 c 128,-1,24
 -403 2492 -403 2492 -428 2501 c 1,25,26
 -431 2501 -431 2501 -431 2521 c 0,27,28
 -431 2522 -431 2522 -429.5 2523 c 128,-1,29
 -428 2524 -428 2524 -428 2526 c 0,30,31
 -428 2634 -428 2634 -426.5 2722.5 c 128,-1,32
 -425 2811 -425 2811 -425 2919 c 0,33,34
 -425 2947 -425 2947 -406 2950 c 1,10,11
389 2896 m 2,35,-1
 476 2896 l 2,36,37
 483 2896 483 2896 499 2895 c 128,-1,38
 515 2894 515 2894 521 2890 c 1,39,40
 527 2884 527 2884 518.5 2883.5 c 128,-1,41
 510 2883 510 2883 506 2850 c 2,42,-1
 497 2781 l 2,43,44
 491 2736 491 2736 455 2736 c 2,45,-1
 368 2736 l 2,46,47
 360 2736 360 2736 341 2737 c 128,-1,48
 322 2738 322 2738 322 2746 c 1,49,50
 320 2755 320 2755 327.5 2757.5 c 128,-1,51
 335 2760 335 2760 338 2781 c 2,52,-1
 347 2850 l 2,53,54
 354 2896 354 2896 389 2896 c 2,35,-1
EndSplineSet
EndChar

StartChar: R
Encoding: 82 82 53
Width: 1203
Flags: W
LayerCount: 2
Fore
SplineSet
733 2257 m 1,0,1
 781 2256 781 2256 779.5 2228 c 128,-1,2
 778 2200 778 2200 745 2195 c 1,3,4
 689 2183 689 2183 672 2148 c 1,5,6
 598 1971 598 1971 558.5 1838.5 c 128,-1,7
 519 1706 519 1706 457 1681 c 1,8,9
 391 1672 391 1672 318 1670.5 c 128,-1,10
 245 1669 245 1669 175 1681 c 1,11,12
 145 1693 145 1693 154.5 1708 c 128,-1,13
 164 1723 164 1723 184 1729 c 1,14,15
 205 1734 205 1734 228 1777 c 0,16,17
 299 1905 299 1905 347 2065.5 c 128,-1,18
 395 2226 395 2226 448 2244 c 1,19,20
 518 2265 518 2265 590 2261 c 128,-1,21
 662 2257 662 2257 733 2257 c 1,0,1
-231 2652 m 2,22,-1
 -143 2652 l 2,23,24
 -136 2652 -136 2652 -119.5 2651.5 c 128,-1,25
 -103 2651 -103 2651 -99 2647 c 0,26,27
 -93 2641 -93 2641 -100.5 2640.5 c 128,-1,28
 -108 2640 -108 2640 -114 2607 c 1,29,-1
 -123 2538 l 2,30,31
 -128 2493 -128 2493 -165 2493 c 2,32,-1
 -251 2493 l 2,33,34
 -259 2493 -259 2493 -278 2494 c 128,-1,35
 -297 2495 -297 2495 -298 2503 c 1,36,37
 -298 2512 -298 2512 -291 2514.5 c 128,-1,38
 -284 2517 -284 2517 -282 2538 c 2,39,-1
 -273 2607 l 1,40,41
 -266 2652 -266 2652 -231 2652 c 2,22,-1
541 2916 m 0,42,43
 541 2942 541 2942 560 2945 c 1,44,45
 680 2946 680 2946 801.5 2946.5 c 128,-1,46
 923 2947 923 2947 1044 2949 c 1,47,48
 1044 3023 1044 3023 1044.5 3045.5 c 128,-1,49
 1045 3068 1045 3068 1045 3151 c 0,50,51
 1045 3177 1045 3177 1065 3181 c 1,52,53
 1215 3182 1215 3182 1368 3182.5 c 128,-1,54
 1521 3183 1521 3183 1672 3186 c 1,55,56
 1688 3162 1688 3162 1672 3114 c 1,57,58
 1641 3107 1641 3107 1470 3107 c 128,-1,59
 1299 3107 1299 3107 1174 3107 c 1,60,61
 1173 3005 1173 3005 1178.5 2946 c 128,-1,62
 1184 2887 1184 2887 1173 2885 c 0,63,64
 1155 2882 1155 2882 1139.5 2878.5 c 128,-1,65
 1124 2875 1124 2875 1046 2879 c 1,66,67
 963 2877 963 2877 856 2874.5 c 128,-1,68
 749 2872 749 2872 670 2872 c 1,69,70
 668 2858 668 2858 670 2846 c 1,71,-1
 670 2846 l 1,72,73
 670 2650 670 2650 668 2650 c 0,74,75
 650 2647 650 2647 634.5 2643.5 c 128,-1,76
 619 2640 619 2640 541 2643 c 1,77,78
 458 2641 458 2641 351 2638.5 c 128,-1,79
 244 2636 244 2636 165 2636 c 1,80,81
 163 2417 163 2417 160 2417 c 0,82,83
 128 2417 128 2417 92 2412.5 c 128,-1,84
 56 2408 56 2408 31 2417 c 1,85,86
 28 2417 28 2417 28 2437 c 1,87,88
 28 2437 28 2437 29.5 2438 c 128,-1,89
 31 2439 31 2439 31 2441 c 0,90,91
 31 2545 31 2545 33.5 2560 c 128,-1,92
 36 2575 36 2575 36 2680 c 0,93,94
 36 2707 36 2707 55 2710 c 1,95,96
 175 2711 175 2711 296.5 2711.5 c 128,-1,97
 418 2712 418 2712 539 2714 c 1,98,99
 539 2764 539 2764 540 2814.5 c 128,-1,100
 541 2865 541 2865 541 2916 c 0,42,43
EndSplineSet
EndChar

StartChar: S
Encoding: 83 83 54
Width: 2533
Flags: W
LayerCount: 2
Fore
SplineSet
1801 2361 m 1,0,1
 1879 2390 1879 2390 2064 2358 c 1,2,3
 2172 2330 2172 2330 2255.5 2285 c 128,-1,4
 2339 2240 2339 2240 2384 2127 c 1,5,6
 2414 2018 2414 2018 2404 1953.5 c 128,-1,7
 2394 1889 2394 1889 2332 1804 c 1,8,9
 2273 1733 2273 1733 2194 1696.5 c 128,-1,10
 2115 1660 2115 1660 2000 1636 c 1,11,12
 1886 1614 1886 1614 1814 1614.5 c 128,-1,13
 1742 1615 1742 1615 1659 1618 c 1,14,15
 1577 1622 1577 1622 1506.5 1631.5 c 128,-1,16
 1436 1641 1436 1641 1336 1672 c 1,17,18
 1170 1718 1170 1718 1008 1797 c 0,19,20
 917 1842 917 1842 815.5 1894 c 128,-1,21
 714 1946 714 1946 589 2017 c 1,22,23
 531 2052 531 2052 463.5 2091.5 c 128,-1,24
 396 2131 396 2131 317 2173 c 1,25,26
 257 2210 257 2210 199.5 2247.5 c 128,-1,27
 142 2285 142 2285 151 2323 c 128,-1,28
 160 2361 160 2361 195 2359 c 128,-1,29
 230 2357 230 2357 414.5 2360.5 c 128,-1,30
 599 2364 599 2364 737 2361 c 1,31,32
 792 2321 792 2321 735.5 2303 c 128,-1,33
 679 2285 679 2285 652 2258 c 0,34,35
 601 2205 601 2205 606.5 2174 c 128,-1,36
 612 2143 612 2143 623 2125.5 c 128,-1,37
 634 2108 634 2108 656.5 2088 c 128,-1,38
 679 2068 679 2068 768 2007 c 128,-1,39
 857 1946 857 1946 989 1878 c 1,40,41
 1107 1826 1107 1826 1175 1793.5 c 128,-1,42
 1243 1761 1243 1761 1395 1720 c 1,43,44
 1508 1698 1508 1698 1624.5 1693 c 128,-1,45
 1741 1688 1741 1688 1861 1727 c 1,46,47
 1945 1764 1945 1764 1979.5 1790 c 128,-1,48
 2014 1816 2014 1816 2056 1880 c 1,49,50
 2093 1942 2093 1942 2098.5 1984.5 c 128,-1,51
 2104 2027 2104 2027 2100 2083 c 1,52,53
 2097 2140 2097 2140 2086 2165.5 c 128,-1,54
 2075 2191 2075 2191 2057 2217.5 c 128,-1,55
 2039 2244 2039 2244 2011.5 2265.5 c 128,-1,56
 1984 2287 1984 2287 1927 2296 c 128,-1,57
 1870 2305 1870 2305 1814 2311 c 1,58,59
 1790 2316 1790 2316 1783.5 2331.5 c 128,-1,60
 1777 2347 1777 2347 1801 2361 c 1,0,1
1361 3844 m 1,61,62
 1394 3838 1394 3838 1390 3810 c 128,-1,63
 1386 3782 1386 3782 1348 3779 c 1,64,65
 1306 3764 1306 3764 1279.5 3670.5 c 128,-1,66
 1253 3577 1253 3577 1223 3473 c 0,67,68
 1154 3229 1154 3229 1096.5 3077.5 c 128,-1,69
 1039 2926 1039 2926 987.5 2865 c 128,-1,70
 936 2804 936 2804 864 2773 c 0,71,72
 753 2725 753 2725 645.5 2702 c 128,-1,73
 538 2679 538 2679 459 2679 c 1,74,75
 498 2586 498 2586 590 2550.5 c 128,-1,76
 682 2515 682 2515 643 2473 c 1,77,78
 620 2450 620 2450 501 2532.5 c 128,-1,79
 382 2615 382 2615 338 2695 c 1,80,81
 338 2746 338 2746 379.5 2737.5 c 128,-1,82
 421 2729 421 2729 469 2726 c 256,83,84
 517 2723 517 2723 567 2731 c 128,-1,85
 617 2739 617 2739 701 2782 c 0,86,87
 742 2803 742 2803 778.5 2875.5 c 128,-1,88
 815 2948 815 2948 844.5 3036.5 c 128,-1,89
 874 3125 874 3125 894.5 3212 c 128,-1,90
 915 3299 915 3299 948.5 3462.5 c 128,-1,91
 982 3626 982 3626 1006 3681.5 c 128,-1,92
 1030 3737 1030 3737 1074 3771.5 c 128,-1,93
 1118 3806 1118 3806 1158 3816 c 128,-1,94
 1198 3826 1198 3826 1247 3831 c 128,-1,95
 1296 3836 1296 3836 1361 3844 c 1,61,62
EndSplineSet
EndChar

StartChar: T
Encoding: 84 84 55
Width: 3334
Flags: W
LayerCount: 2
Fore
SplineSet
2357 2715 m 1,0,1
 2418 2715 2418 2715 2485.5 2713 c 128,-1,2
 2553 2711 2553 2711 2607 2701 c 1,3,4
 2645 2701 2645 2701 2695 2596.5 c 128,-1,5
 2745 2492 2745 2492 2803 2367 c 1,6,7
 2820 2324 2820 2324 2842 2319 c 1,8,9
 2857 2313 2857 2313 2866 2297.5 c 128,-1,10
 2875 2282 2875 2282 2849 2270 c 1,11,12
 2787 2258 2787 2258 2723 2260 c 128,-1,13
 2659 2262 2659 2262 2602 2270 c 1,14,15
 2548 2295 2548 2295 2511 2361.5 c 128,-1,16
 2474 2428 2474 2428 2411 2605 c 1,17,18
 2405 2616 2405 2616 2388.5 2637.5 c 128,-1,19
 2372 2659 2372 2659 2350 2663 c 0,20,21
 2322 2668 2322 2668 2318 2691 c 128,-1,22
 2314 2714 2314 2714 2357 2715 c 1,0,1
1804 2715 m 1,23,24
 1865 2715 1865 2715 1932.5 2713 c 128,-1,25
 2000 2711 2000 2711 2054 2701 c 1,26,27
 2092 2701 2092 2701 2141.5 2596.5 c 128,-1,28
 2191 2492 2191 2492 2249 2367 c 0,29,30
 2268 2324 2268 2324 2288 2319 c 1,31,32
 2304 2313 2304 2313 2313 2297.5 c 128,-1,33
 2322 2282 2322 2282 2296 2270 c 1,34,35
 2233 2258 2233 2258 2169.5 2260 c 128,-1,36
 2106 2262 2106 2262 2048 2270 c 1,37,38
 1994 2295 1994 2295 1957.5 2361.5 c 128,-1,39
 1921 2428 1921 2428 1858 2605 c 1,40,41
 1852 2616 1852 2616 1835 2637.5 c 128,-1,42
 1818 2659 1818 2659 1797 2663 c 0,43,44
 1768 2668 1768 2668 1764.5 2691 c 128,-1,45
 1761 2714 1761 2714 1804 2715 c 1,23,24
1152 2815 m 1,46,47
 1200 2813 1200 2813 1196.5 2789.5 c 128,-1,48
 1193 2766 1193 2766 1160 2761 c 0,49,50
 1134 2757 1134 2757 1115 2741 c 128,-1,51
 1096 2725 1096 2725 1091 2716 c 0,52,53
 1017 2557 1017 2557 977.5 2438 c 128,-1,54
 938 2319 938 2319 876 2297 c 1,55,56
 810 2290 810 2290 737 2287.5 c 128,-1,57
 664 2285 664 2285 594 2297 c 1,58,59
 564 2308 564 2308 573.5 2321.5 c 128,-1,60
 583 2335 583 2335 603 2340 c 0,61,62
 624 2346 624 2346 647 2384 c 0,63,64
 718 2498 718 2498 770 2650 c 128,-1,65
 822 2802 822 2802 867 2802 c 1,66,67
 928 2811 928 2811 1004.5 2813 c 128,-1,68
 1081 2815 1081 2815 1152 2815 c 1,46,47
712 3298 m 1,69,70
 860 3298 860 3298 1008 3300.5 c 128,-1,71
 1156 3303 1156 3303 1305 3305 c 1,72,73
 1320 3287 1320 3287 1305 3247 c 1,74,75
 1275 3241 1275 3241 1108.5 3241 c 128,-1,76
 942 3241 942 3241 819 3241 c 1,77,78
 818 3146 818 3146 819 3075 c 128,-1,79
 820 3004 820 3004 820 2910 c 1,80,81
 788 2910 788 2910 753 2906 c 128,-1,82
 718 2902 718 2902 693 2910 c 1,83,84
 693 3012 693 3012 693 3089 c 128,-1,85
 693 3166 693 3166 693 3270 c 0,86,87
 693 3294 693 3294 712 3298 c 1,69,70
167.5 2127.5 m 128,-1,89
 178 2144 178 2144 191 2145.5 c 128,-1,90
 204 2147 204 2147 219 2138 c 128,-1,91
 234 2129 234 2129 256 2118 c 128,-1,92
 278 2107 278 2107 313 2100 c 128,-1,93
 348 2093 348 2093 411 2093 c 2,94,-1
 2758 2093 l 1,95,96
 2816 2094 2816 2094 2863 2084 c 128,-1,97
 2910 2074 2910 2074 2949 2053.5 c 128,-1,98
 2988 2033 2988 2033 3009.5 2016.5 c 128,-1,99
 3031 2000 3031 2000 3068.5 1961 c 128,-1,100
 3106 1922 3106 1922 3133 1884.5 c 128,-1,101
 3160 1847 3160 1847 3144 1812 c 1,102,103
 3128 1788 3128 1788 3106.5 1802 c 128,-1,104
 3085 1816 3085 1816 3056 1826.5 c 128,-1,105
 3027 1837 3027 1837 2993 1841 c 128,-1,106
 2959 1845 2959 1845 2888 1845 c 2,107,-1
 571 1845 l 1,108,109
 523 1846 523 1846 485 1852 c 128,-1,110
 447 1858 447 1858 425 1865 c 128,-1,111
 403 1872 403 1872 379 1884 c 128,-1,112
 355 1896 355 1896 327.5 1914 c 128,-1,113
 300 1932 300 1932 269 1963.5 c 128,-1,114
 238 1995 238 1995 206 2036.5 c 128,-1,115
 174 2078 174 2078 165.5 2094.5 c 128,-1,88
 157 2111 157 2111 167.5 2127.5 c 128,-1,89
EndSplineSet
EndChar

StartChar: U
Encoding: 85 85 56
Width: 3333
Flags: W
LayerCount: 2
Fore
SplineSet
2357 2715 m 1,0,1
 2418 2715 2418 2715 2485.5 2713 c 128,-1,2
 2553 2711 2553 2711 2607 2701 c 1,3,4
 2645 2701 2645 2701 2695 2596.5 c 128,-1,5
 2745 2492 2745 2492 2803 2367 c 1,6,7
 2820 2324 2820 2324 2842 2319 c 1,8,9
 2857 2313 2857 2313 2866 2297.5 c 128,-1,10
 2875 2282 2875 2282 2849 2270 c 1,11,12
 2787 2258 2787 2258 2723 2260 c 128,-1,13
 2659 2262 2659 2262 2602 2270 c 1,14,15
 2548 2295 2548 2295 2511 2361.5 c 128,-1,16
 2474 2428 2474 2428 2411 2605 c 1,17,18
 2405 2616 2405 2616 2388.5 2637.5 c 128,-1,19
 2372 2659 2372 2659 2350 2663 c 0,20,21
 2322 2668 2322 2668 2318 2691 c 128,-1,22
 2314 2714 2314 2714 2357 2715 c 1,0,1
1804 2715 m 1,23,24
 1865 2715 1865 2715 1932.5 2713 c 128,-1,25
 2000 2711 2000 2711 2054 2701 c 1,26,27
 2092 2701 2092 2701 2141.5 2596.5 c 128,-1,28
 2191 2492 2191 2492 2249 2367 c 0,29,30
 2268 2324 2268 2324 2288 2319 c 1,31,32
 2304 2313 2304 2313 2313 2297.5 c 128,-1,33
 2322 2282 2322 2282 2296 2270 c 1,34,35
 2233 2258 2233 2258 2169.5 2260 c 128,-1,36
 2106 2262 2106 2262 2048 2270 c 1,37,38
 1994 2295 1994 2295 1957.5 2361.5 c 128,-1,39
 1921 2428 1921 2428 1858 2605 c 1,40,41
 1852 2616 1852 2616 1835 2637.5 c 128,-1,42
 1818 2659 1818 2659 1797 2663 c 0,43,44
 1768 2668 1768 2668 1764.5 2691 c 128,-1,45
 1761 2714 1761 2714 1804 2715 c 1,23,24
1152 2815 m 1,46,47
 1200 2813 1200 2813 1196.5 2789.5 c 128,-1,48
 1193 2766 1193 2766 1160 2761 c 0,49,50
 1134 2757 1134 2757 1115 2741 c 128,-1,51
 1096 2725 1096 2725 1091 2716 c 0,52,53
 1017 2557 1017 2557 977.5 2438 c 128,-1,54
 938 2319 938 2319 876 2297 c 1,55,56
 810 2290 810 2290 737 2287.5 c 128,-1,57
 664 2285 664 2285 594 2297 c 1,58,59
 564 2308 564 2308 573.5 2321.5 c 128,-1,60
 583 2335 583 2335 603 2340 c 0,61,62
 624 2346 624 2346 647 2384 c 0,63,64
 718 2498 718 2498 770 2650 c 128,-1,65
 822 2802 822 2802 867 2802 c 1,66,67
 928 2811 928 2811 1004.5 2813 c 128,-1,68
 1081 2815 1081 2815 1152 2815 c 1,46,47
712 3298 m 1,69,70
 860 3298 860 3298 1008 3300.5 c 128,-1,71
 1156 3303 1156 3303 1305 3305 c 1,72,73
 1320 3287 1320 3287 1305 3247 c 1,74,75
 1275 3241 1275 3241 1108.5 3241 c 128,-1,76
 942 3241 942 3241 819 3241 c 1,77,78
 818 3146 818 3146 819 3075 c 128,-1,79
 820 3004 820 3004 820 2910 c 1,80,81
 788 2910 788 2910 753 2906 c 128,-1,82
 718 2902 718 2902 693 2910 c 1,83,84
 693 3012 693 3012 693 3089 c 128,-1,85
 693 3166 693 3166 693 3270 c 0,86,87
 693 3294 693 3294 712 3298 c 1,69,70
1507 3258 m 2,88,-1
 1595 3258 l 2,89,90
 1601 3258 1601 3258 1617.5 3257.5 c 128,-1,91
 1634 3257 1634 3257 1639 3253 c 0,92,93
 1645 3247 1645 3247 1636.5 3246.5 c 128,-1,94
 1628 3246 1628 3246 1624 3213 c 2,95,-1
 1615 3144 l 2,96,97
 1609 3099 1609 3099 1573 3099 c 2,98,-1
 1487 3099 l 2,99,100
 1478 3099 1478 3099 1459 3100 c 128,-1,101
 1440 3101 1440 3101 1440 3109 c 0,102,103
 1439 3117 1439 3117 1446 3120 c 128,-1,104
 1453 3123 1453 3123 1456 3144 c 2,105,-1
 1465 3213 l 1,106,107
 1472 3258 1472 3258 1507 3258 c 2,88,-1
167.5 2127.5 m 128,-1,109
 178 2144 178 2144 191 2145.5 c 128,-1,110
 204 2147 204 2147 219 2138 c 128,-1,111
 234 2129 234 2129 256 2118 c 128,-1,112
 278 2107 278 2107 313 2100 c 128,-1,113
 348 2093 348 2093 411 2093 c 2,114,-1
 2758 2093 l 1,115,116
 2816 2094 2816 2094 2863 2084 c 128,-1,117
 2910 2074 2910 2074 2949 2053.5 c 128,-1,118
 2988 2033 2988 2033 3009.5 2016.5 c 128,-1,119
 3031 2000 3031 2000 3068.5 1961 c 128,-1,120
 3106 1922 3106 1922 3133 1884.5 c 128,-1,121
 3160 1847 3160 1847 3144 1812 c 1,122,123
 3128 1788 3128 1788 3106.5 1802 c 128,-1,124
 3085 1816 3085 1816 3056 1826.5 c 128,-1,125
 3027 1837 3027 1837 2993 1841 c 128,-1,126
 2959 1845 2959 1845 2888 1845 c 2,127,-1
 571 1845 l 1,128,129
 523 1846 523 1846 485 1852 c 128,-1,130
 447 1858 447 1858 425 1865 c 128,-1,131
 403 1872 403 1872 379 1884 c 128,-1,132
 355 1896 355 1896 327.5 1914 c 128,-1,133
 300 1932 300 1932 269 1963.5 c 128,-1,134
 238 1995 238 1995 206 2036.5 c 128,-1,135
 174 2078 174 2078 165.5 2094.5 c 128,-1,108
 157 2111 157 2111 167.5 2127.5 c 128,-1,109
EndSplineSet
EndChar

StartChar: V
Encoding: 86 86 57
Width: 2533
Flags: W
LayerCount: 2
Fore
SplineSet
1841 3319 m 1,0,-1
 1859 3241 l 1,1,2
 1860 3232 1860 3232 1881 3201 c 128,-1,3
 1902 3170 1902 3170 1902 3162 c 256,4,5
 1902 3154 1902 3154 1867.5 3147.5 c 128,-1,6
 1833 3141 1833 3141 1822 3141 c 2,7,-1
 1697 3141 l 2,8,9
 1673 3141 1673 3141 1651 3176 c 128,-1,10
 1629 3211 1629 3211 1623 3241 c 2,11,-1
 1606 3320 l 1,12,13
 1366 3320 1366 3320 1166 3339 c 128,-1,14
 966 3358 966 3358 882 3372 c 0,15,16
 564 3422 564 3422 491 3597 c 0,17,18
 474 3636 474 3636 431.5 3712.5 c 128,-1,19
 389 3789 389 3789 341.5 3867 c 128,-1,20
 294 3945 294 3945 252 4006.5 c 128,-1,21
 210 4068 210 4068 194 4076 c 1,22,23
 110 4105 110 4105 156 4139 c 1,24,25
 369 4157 369 4157 546 4144 c 1,26,27
 644 4138 644 4138 686.5 4032 c 128,-1,28
 729 3926 729 3926 772 3753 c 0,29,30
 814 3580 814 3580 877 3517.5 c 128,-1,31
 940 3455 940 3455 1093 3415 c 1,32,33
 1245 3374 1245 3374 1599 3381 c 1,34,-1
 1574 3522 l 1,35,36
 1571 3532 1571 3532 1553 3549 c 128,-1,37
 1535 3566 1535 3566 1535 3575 c 0,38,39
 1535 3587 1535 3587 1568 3591.5 c 128,-1,40
 1601 3596 1601 3596 1614 3596 c 2,41,-1
 1739 3596 l 2,42,43
 1762 3596 1762 3596 1783.5 3564 c 128,-1,44
 1805 3532 1805 3532 1813 3496 c 1,45,-1
 1834 3382 l 1,46,47
 1971 3383 1971 3383 2020.5 3391 c 128,-1,48
 2070 3399 2070 3399 2128 3407 c 1,49,50
 2150 3404 2150 3404 2154.5 3386 c 128,-1,51
 2159 3368 2159 3368 2145 3353 c 1,52,53
 2125 3335 2125 3335 2061.5 3326.5 c 128,-1,54
 1998 3318 1998 3318 1841 3319 c 1,0,-1
1149 2305 m 1,55,56
 1128 2320 1128 2320 1146.5 2334.5 c 128,-1,57
 1165 2349 1165 2349 1192 2349 c 0,58,59
 1222 2349 1222 2349 1276 2403 c 128,-1,60
 1330 2457 1330 2457 1347 2536 c 0,61,62
 1376 2671 1376 2671 1207 2756 c 1,63,64
 1143 2787 1143 2787 1044.5 2812 c 128,-1,65
 946 2837 946 2837 850.5 2855.5 c 128,-1,66
 755 2874 755 2874 681.5 2885.5 c 128,-1,67
 608 2897 608 2897 596 2902 c 0,68,69
 571 2911 571 2911 577 2928.5 c 128,-1,70
 583 2946 583 2946 604 2946 c 256,71,72
 625 2946 625 2946 857.5 2912.5 c 128,-1,73
 1090 2879 1090 2879 1272 2808 c 0,74,75
 1380 2766 1380 2766 1445 2723 c 128,-1,76
 1510 2680 1510 2680 1564 2608 c 256,77,78
 1618 2536 1618 2536 1609 2463.5 c 128,-1,79
 1600 2391 1600 2391 1546 2352 c 1,80,81
 1498 2316 1498 2316 1433.5 2303 c 128,-1,82
 1369 2290 1369 2290 1311 2290 c 256,83,84
 1253 2290 1253 2290 1230 2290 c 128,-1,85
 1207 2290 1207 2290 1149 2305 c 1,55,56
706 2489 m 1,86,87
 628 2460 628 2460 443 2492 c 1,88,89
 335 2519 335 2519 251.5 2564 c 128,-1,90
 168 2609 168 2609 123 2722 c 1,91,92
 93 2831 93 2831 103 2895.5 c 128,-1,93
 113 2960 113 2960 175 3045 c 1,94,95
 234 3116 234 3116 313 3153 c 128,-1,96
 392 3190 392 3190 507 3214 c 1,97,98
 621 3236 621 3236 693 3235.5 c 128,-1,99
 765 3235 765 3235 848 3232 c 1,100,101
 930 3228 930 3228 1000.5 3218.5 c 128,-1,102
 1071 3209 1071 3209 1171 3178 c 1,103,104
 1337 3132 1337 3132 1499 3053 c 0,105,106
 1590 3008 1590 3008 1691.5 2956 c 128,-1,107
 1793 2904 1793 2904 1918 2833 c 1,108,109
 1976 2798 1976 2798 2043.5 2758.5 c 128,-1,110
 2111 2719 2111 2719 2190 2678 c 1,111,112
 2250 2641 2250 2641 2307.5 2603.5 c 128,-1,113
 2365 2566 2365 2566 2356 2528 c 128,-1,114
 2347 2490 2347 2490 2312 2492 c 128,-1,115
 2277 2494 2277 2494 2092.5 2490 c 128,-1,116
 1908 2486 1908 2486 1770 2489 c 1,117,118
 1715 2529 1715 2529 1771.5 2547 c 128,-1,119
 1828 2565 1828 2565 1855 2592 c 0,120,121
 1906 2645 1906 2645 1900.5 2676 c 128,-1,122
 1895 2707 1895 2707 1884 2724.5 c 128,-1,123
 1873 2742 1873 2742 1850.5 2762 c 128,-1,124
 1828 2782 1828 2782 1739 2843 c 128,-1,125
 1650 2904 1650 2904 1518 2972 c 1,126,127
 1400 3024 1400 3024 1332 3056.5 c 128,-1,128
 1264 3089 1264 3089 1112 3130 c 1,129,130
 999 3152 999 3152 882.5 3157 c 128,-1,131
 766 3162 766 3162 646 3123 c 1,132,133
 562 3086 562 3086 527.5 3060 c 128,-1,134
 493 3034 493 3034 451 2970 c 1,135,136
 414 2908 414 2908 408.5 2865.5 c 128,-1,137
 403 2823 403 2823 407 2767 c 1,138,139
 410 2710 410 2710 421 2684.5 c 128,-1,140
 432 2659 432 2659 450 2632.5 c 128,-1,141
 468 2606 468 2606 495.5 2584.5 c 128,-1,142
 523 2563 523 2563 580 2554 c 128,-1,143
 637 2545 637 2545 693 2539 c 1,144,145
 717 2534 717 2534 723.5 2518.5 c 128,-1,146
 730 2503 730 2503 706 2489 c 1,86,87
1802 2361 m 1,147,148
 1880 2390 1880 2390 2065 2358 c 1,149,150
 2173 2331 2173 2331 2256.5 2286 c 128,-1,151
 2340 2241 2340 2241 2385 2128 c 1,152,153
 2415 2019 2415 2019 2405 1954.5 c 128,-1,154
 2395 1890 2395 1890 2333 1805 c 1,155,156
 2274 1734 2274 1734 2195 1697 c 128,-1,157
 2116 1660 2116 1660 2001 1636 c 1,158,159
 1887 1614 1887 1614 1815 1614.5 c 128,-1,160
 1743 1615 1743 1615 1660 1618 c 1,161,162
 1578 1622 1578 1622 1507.5 1631.5 c 128,-1,163
 1437 1641 1437 1641 1337 1672 c 1,164,165
 1171 1718 1171 1718 1009 1797 c 0,166,167
 918 1842 918 1842 816.5 1894 c 128,-1,168
 715 1946 715 1946 590 2017 c 1,169,170
 532 2052 532 2052 464.5 2091.5 c 128,-1,171
 397 2131 397 2131 318 2172 c 1,172,173
 258 2209 258 2209 200.5 2246.5 c 128,-1,174
 143 2284 143 2284 152 2322 c 128,-1,175
 161 2360 161 2360 196 2358 c 128,-1,176
 231 2356 231 2356 415.5 2360 c 128,-1,177
 600 2364 600 2364 738 2361 c 1,178,179
 793 2321 793 2321 736.5 2303 c 128,-1,180
 680 2285 680 2285 653 2258 c 0,181,182
 602 2205 602 2205 607.5 2174 c 128,-1,183
 613 2143 613 2143 624 2125.5 c 128,-1,184
 635 2108 635 2108 657.5 2088 c 128,-1,185
 680 2068 680 2068 769 2007 c 128,-1,186
 858 1946 858 1946 990 1878 c 1,187,188
 1108 1826 1108 1826 1176 1793.5 c 128,-1,189
 1244 1761 1244 1761 1396 1720 c 1,190,191
 1509 1698 1509 1698 1625.5 1693 c 128,-1,192
 1742 1688 1742 1688 1862 1727 c 1,193,194
 1946 1764 1946 1764 1980.5 1790 c 128,-1,195
 2015 1816 2015 1816 2057 1880 c 1,196,197
 2094 1942 2094 1942 2099.5 1984.5 c 128,-1,198
 2105 2027 2105 2027 2101 2083 c 1,199,200
 2098 2140 2098 2140 2087 2165.5 c 128,-1,201
 2076 2191 2076 2191 2058 2217.5 c 128,-1,202
 2040 2244 2040 2244 2012.5 2265.5 c 128,-1,203
 1985 2287 1985 2287 1928 2296 c 128,-1,204
 1871 2305 1871 2305 1815 2311 c 1,205,206
 1791 2316 1791 2316 1784.5 2331.5 c 128,-1,207
 1778 2347 1778 2347 1802 2361 c 1,147,148
EndSplineSet
EndChar

StartChar: W
Encoding: 87 87 58
Width: 1171
Flags: W
LayerCount: 2
Fore
SplineSet
733 2257 m 1,0,1
 781 2256 781 2256 779.5 2228 c 128,-1,2
 778 2200 778 2200 745 2195 c 1,3,4
 689 2183 689 2183 672 2148 c 1,5,6
 598 1971 598 1971 558.5 1838.5 c 128,-1,7
 519 1706 519 1706 457 1681 c 1,8,9
 391 1672 391 1672 318 1670.5 c 128,-1,10
 245 1669 245 1669 175 1681 c 1,11,12
 145 1693 145 1693 154.5 1708 c 128,-1,13
 164 1723 164 1723 184 1729 c 1,14,15
 205 1734 205 1734 228 1777 c 0,16,17
 299 1905 299 1905 347 2065.5 c 128,-1,18
 395 2226 395 2226 448 2244 c 1,19,20
 518 2265 518 2265 590 2261 c 128,-1,21
 662 2257 662 2257 733 2257 c 1,0,1
404 2950 m 1,22,23
 554 2951 554 2951 707 2952 c 128,-1,24
 860 2953 860 2953 1010 2955 c 1,25,26
 1021 2941 1021 2941 1018.5 2918 c 128,-1,27
 1016 2895 1016 2895 1011 2880 c 1,28,29
 980 2873 980 2873 809.5 2873.5 c 128,-1,30
 639 2874 639 2874 513 2874 c 1,31,32
 512 2768 512 2768 517 2635 c 128,-1,33
 522 2502 522 2502 511 2501 c 1,34,35
 479 2501 479 2501 443 2496.5 c 128,-1,36
 407 2492 407 2492 382 2501 c 1,37,38
 379 2501 379 2501 379 2521 c 0,39,40
 379 2522 379 2522 380.5 2523 c 128,-1,41
 382 2524 382 2524 382 2526 c 0,42,43
 382 2634 382 2634 383.5 2722.5 c 128,-1,44
 385 2811 385 2811 385 2919 c 0,45,46
 385 2947 385 2947 404 2950 c 1,22,23
1199 2896 m 2,47,-1
 1286 2896 l 2,48,49
 1293 2896 1293 2896 1309 2895 c 128,-1,50
 1325 2894 1325 2894 1331 2890 c 1,51,52
 1337 2884 1337 2884 1328.5 2883.5 c 128,-1,53
 1320 2883 1320 2883 1316 2850 c 2,54,-1
 1307 2781 l 2,55,56
 1301 2736 1301 2736 1265 2736 c 2,57,-1
 1178 2736 l 2,58,59
 1170 2736 1170 2736 1151 2737 c 128,-1,60
 1132 2738 1132 2738 1132 2746 c 1,61,62
 1130 2755 1130 2755 1137.5 2757.5 c 128,-1,63
 1145 2760 1145 2760 1148 2781 c 2,64,-1
 1157 2850 l 2,65,66
 1164 2896 1164 2896 1199 2896 c 2,47,-1
EndSplineSet
EndChar

StartChar: X
Encoding: 88 88 59
Width: 2533
Flags: W
LayerCount: 2
Fore
SplineSet
1212 1997 m 1,0,1
 1191 2013 1191 2013 1209 2027 c 128,-1,2
 1227 2041 1227 2041 1254 2041 c 0,3,4
 1284 2041 1284 2041 1338 2095.5 c 128,-1,5
 1392 2150 1392 2150 1410 2229 c 1,6,7
 1438 2364 1438 2364 1269 2449 c 0,8,9
 1206 2480 1206 2480 1107 2505 c 128,-1,10
 1008 2530 1008 2530 912.5 2548 c 128,-1,11
 817 2566 817 2566 744 2577.5 c 128,-1,12
 671 2589 671 2589 659 2594 c 0,13,14
 633 2604 633 2604 639 2621.5 c 128,-1,15
 645 2639 645 2639 666 2639 c 0,16,17
 687 2638 687 2638 920 2605 c 128,-1,18
 1153 2572 1153 2572 1334 2501 c 0,19,20
 1442 2458 1442 2458 1507 2415 c 128,-1,21
 1572 2372 1572 2372 1626 2301 c 0,22,23
 1680 2229 1680 2229 1671.5 2156.5 c 128,-1,24
 1663 2084 1663 2084 1609 2045 c 0,25,26
 1560 2009 1560 2009 1496 1996 c 128,-1,27
 1432 1983 1432 1983 1374 1983 c 256,28,29
 1316 1983 1316 1983 1292.5 1983 c 128,-1,30
 1269 1983 1269 1983 1212 1997 c 1,0,1
1842 2766 m 1,31,-1
 1860 2688 l 1,32,33
 1861 2679 1861 2679 1882 2648 c 128,-1,34
 1903 2617 1903 2617 1903 2609 c 0,35,36
 1903 2600 1903 2600 1868.5 2593.5 c 128,-1,37
 1834 2587 1834 2587 1823 2587 c 2,38,-1
 1698 2587 l 2,39,40
 1674 2587 1674 2587 1652 2622 c 128,-1,41
 1630 2657 1630 2657 1624 2688 c 2,42,-1
 1607 2766 l 1,43,44
 1367 2767 1367 2767 1167 2785.5 c 128,-1,45
 967 2804 967 2804 883 2818 c 1,46,47
 727 2842 727 2842 626 2904 c 128,-1,48
 525 2966 525 2966 492 3044 c 0,49,50
 475 3083 475 3083 432.5 3159.5 c 128,-1,51
 390 3236 390 3236 342.5 3314 c 128,-1,52
 295 3392 295 3392 253 3453.5 c 128,-1,53
 211 3515 211 3515 195 3523 c 1,54,55
 110 3551 110 3551 157 3585 c 1,56,57
 260 3594 260 3594 354.5 3596 c 128,-1,58
 449 3598 449 3598 547 3590 c 1,59,60
 645 3584 645 3584 687.5 3478 c 128,-1,61
 730 3372 730 3372 773 3200 c 1,62,63
 815 3026 815 3026 878 2964 c 128,-1,64
 941 2902 941 2902 1094 2862 c 1,65,66
 1249 2820 1249 2820 1600 2827 c 1,67,-1
 1575 2968 l 1,68,69
 1572 2978 1572 2978 1554 2995.5 c 128,-1,70
 1536 3013 1536 3013 1536 3022 c 0,71,72
 1536 3034 1536 3034 1569 3038.5 c 128,-1,73
 1602 3043 1602 3043 1615 3043 c 2,74,-1
 1740 3043 l 2,75,76
 1763 3043 1763 3043 1784.5 3011 c 128,-1,77
 1806 2979 1806 2979 1814 2942 c 1,78,-1
 1835 2828 l 1,79,80
 1972 2830 1972 2830 2021.5 2837.5 c 128,-1,81
 2071 2845 2071 2845 2129 2853 c 1,82,83
 2151 2850 2151 2850 2155.5 2832 c 128,-1,84
 2160 2814 2160 2814 2146 2799 c 1,85,86
 2126 2782 2126 2782 2062.5 2773.5 c 128,-1,87
 1999 2765 1999 2765 1842 2766 c 1,31,-1
1803 2361 m 1,88,89
 1881 2390 1881 2390 2066 2358 c 1,90,91
 2174 2331 2174 2331 2257.5 2286 c 128,-1,92
 2341 2241 2341 2241 2386 2128 c 1,93,94
 2416 2019 2416 2019 2406 1954.5 c 128,-1,95
 2396 1890 2396 1890 2334 1805 c 1,96,97
 2275 1734 2275 1734 2196 1697 c 128,-1,98
 2117 1660 2117 1660 2002 1636 c 1,99,100
 1888 1614 1888 1614 1816 1614.5 c 128,-1,101
 1744 1615 1744 1615 1661 1618 c 1,102,103
 1579 1622 1579 1622 1508.5 1631.5 c 128,-1,104
 1438 1641 1438 1641 1338 1672 c 1,105,106
 1172 1718 1172 1718 1010 1797 c 0,107,108
 919 1842 919 1842 817.5 1894 c 128,-1,109
 716 1946 716 1946 591 2017 c 1,110,111
 533 2052 533 2052 465.5 2091.5 c 128,-1,112
 398 2131 398 2131 319 2172 c 1,113,114
 259 2209 259 2209 201.5 2246.5 c 128,-1,115
 144 2284 144 2284 153 2322 c 128,-1,116
 162 2360 162 2360 197 2358 c 128,-1,117
 232 2356 232 2356 416.5 2360 c 128,-1,118
 601 2364 601 2364 739 2361 c 1,119,120
 794 2321 794 2321 737.5 2303 c 128,-1,121
 681 2285 681 2285 654 2258 c 0,122,123
 603 2205 603 2205 608.5 2174 c 128,-1,124
 614 2143 614 2143 625 2125.5 c 128,-1,125
 636 2108 636 2108 658.5 2088 c 128,-1,126
 681 2068 681 2068 770 2007 c 128,-1,127
 859 1946 859 1946 991 1878 c 1,128,129
 1109 1826 1109 1826 1177 1793.5 c 128,-1,130
 1245 1761 1245 1761 1397 1720 c 1,131,132
 1510 1698 1510 1698 1626.5 1693 c 128,-1,133
 1743 1688 1743 1688 1863 1727 c 1,134,135
 1947 1764 1947 1764 1981.5 1790 c 128,-1,136
 2016 1816 2016 1816 2058 1880 c 1,137,138
 2095 1942 2095 1942 2100.5 1984.5 c 128,-1,139
 2106 2027 2106 2027 2102 2083 c 1,140,141
 2099 2140 2099 2140 2088 2165.5 c 128,-1,142
 2077 2191 2077 2191 2059 2217.5 c 128,-1,143
 2041 2244 2041 2244 2013.5 2265.5 c 128,-1,144
 1986 2287 1986 2287 1929 2296 c 128,-1,145
 1872 2305 1872 2305 1816 2311 c 1,146,147
 1792 2316 1792 2316 1785.5 2331.5 c 128,-1,148
 1779 2347 1779 2347 1803 2361 c 1,88,89
EndSplineSet
EndChar

StartChar: Y
Encoding: 89 89 60
Width: 3333
Flags: W
LayerCount: 2
Fore
SplineSet
911 3409 m 0,0,1
 911 3435 911 3435 931 3438 c 1,2,3
 1051 3439 1051 3439 1172.5 3440 c 128,-1,4
 1294 3441 1294 3441 1414 3442 c 1,5,6
 1415 3516 1415 3516 1415.5 3539 c 128,-1,7
 1416 3562 1416 3562 1416 3644 c 0,8,9
 1416 3670 1416 3670 1436 3674 c 1,10,11
 1586 3675 1586 3675 1738.5 3675.5 c 128,-1,12
 1891 3676 1891 3676 2042 3678 c 1,13,14
 2052 3665 2052 3665 2049.5 3643.5 c 128,-1,15
 2047 3622 2047 3622 2043 3607 c 1,16,17
 2012 3600 2012 3600 1841 3600 c 128,-1,18
 1670 3600 1670 3600 1545 3600 c 1,19,20
 1544 3498 1544 3498 1549 3438.5 c 128,-1,21
 1554 3379 1554 3379 1543 3379 c 1,22,23
 1525 3375 1525 3375 1510 3372 c 128,-1,24
 1495 3369 1495 3369 1417 3372 c 1,25,26
 1334 3370 1334 3370 1227 3367.5 c 128,-1,27
 1120 3365 1120 3365 1040 3365 c 1,28,29
 1040 3358 1040 3358 1040 3351 c 128,-1,30
 1040 3344 1040 3344 1040 3338 c 1,31,-1
 1040 3338 l 1,32,33
 1041 3143 1041 3143 1038 3143 c 0,34,35
 1020 3140 1020 3140 1005 3136.5 c 128,-1,36
 990 3133 990 3133 912 3136 c 1,37,38
 829 3135 829 3135 722 3132.5 c 128,-1,39
 615 3130 615 3130 535 3130 c 1,40,41
 533 2910 533 2910 531 2910 c 0,42,43
 499 2910 499 2910 463 2905.5 c 128,-1,44
 427 2901 427 2901 402 2910 c 1,45,46
 399 2910 399 2910 399 2930 c 1,47,48
 399 2930 399 2930 400.5 2931.5 c 128,-1,49
 402 2933 402 2933 402 2934 c 0,50,51
 402 3038 402 3038 404.5 3053.5 c 128,-1,52
 407 3069 407 3069 407 3174 c 0,53,54
 407 3200 407 3200 426 3203 c 1,55,56
 546 3204 546 3204 667.5 3204.5 c 128,-1,57
 789 3205 789 3205 910 3206 c 1,58,59
 910 3257 910 3257 910.5 3307.5 c 128,-1,60
 911 3358 911 3358 911 3409 c 0,0,1
2357 2715 m 1,61,62
 2418 2715 2418 2715 2485.5 2713 c 128,-1,63
 2553 2711 2553 2711 2607 2701 c 1,64,65
 2645 2701 2645 2701 2695 2596.5 c 128,-1,66
 2745 2492 2745 2492 2803 2367 c 1,67,68
 2820 2324 2820 2324 2842 2319 c 1,69,70
 2857 2313 2857 2313 2866 2297.5 c 128,-1,71
 2875 2282 2875 2282 2849 2270 c 1,72,73
 2787 2258 2787 2258 2723 2260 c 128,-1,74
 2659 2262 2659 2262 2602 2270 c 1,75,76
 2548 2295 2548 2295 2511 2361.5 c 128,-1,77
 2474 2428 2474 2428 2411 2605 c 1,78,79
 2405 2616 2405 2616 2388.5 2637.5 c 128,-1,80
 2372 2659 2372 2659 2350 2663 c 0,81,82
 2322 2668 2322 2668 2318 2691 c 128,-1,83
 2314 2714 2314 2714 2357 2715 c 1,61,62
1804 2715 m 1,84,85
 1865 2715 1865 2715 1932.5 2713 c 128,-1,86
 2000 2711 2000 2711 2054 2701 c 1,87,88
 2092 2701 2092 2701 2141.5 2596.5 c 128,-1,89
 2191 2492 2191 2492 2249 2367 c 0,90,91
 2268 2324 2268 2324 2288 2319 c 1,92,93
 2304 2313 2304 2313 2313 2297.5 c 128,-1,94
 2322 2282 2322 2282 2296 2270 c 1,95,96
 2233 2258 2233 2258 2169.5 2260 c 128,-1,97
 2106 2262 2106 2262 2048 2270 c 1,98,99
 1994 2295 1994 2295 1957.5 2361.5 c 128,-1,100
 1921 2428 1921 2428 1858 2605 c 1,101,102
 1852 2616 1852 2616 1835 2637.5 c 128,-1,103
 1818 2659 1818 2659 1797 2663 c 0,104,105
 1768 2668 1768 2668 1764.5 2691 c 128,-1,106
 1761 2714 1761 2714 1804 2715 c 1,84,85
1152 2815 m 1,107,108
 1200 2813 1200 2813 1196.5 2789.5 c 128,-1,109
 1193 2766 1193 2766 1160 2761 c 0,110,111
 1134 2757 1134 2757 1115 2741 c 128,-1,112
 1096 2725 1096 2725 1091 2716 c 0,113,114
 1017 2557 1017 2557 977.5 2438 c 128,-1,115
 938 2319 938 2319 876 2297 c 1,116,117
 810 2290 810 2290 737 2287.5 c 128,-1,118
 664 2285 664 2285 594 2297 c 1,119,120
 564 2308 564 2308 573.5 2321.5 c 128,-1,121
 583 2335 583 2335 603 2340 c 0,122,123
 624 2346 624 2346 647 2384 c 0,124,125
 718 2498 718 2498 770 2650 c 128,-1,126
 822 2802 822 2802 867 2802 c 1,127,128
 928 2811 928 2811 1004.5 2813 c 128,-1,129
 1081 2815 1081 2815 1152 2815 c 1,107,108
167.5 2127.5 m 128,-1,131
 178 2144 178 2144 191 2145.5 c 128,-1,132
 204 2147 204 2147 219 2138 c 128,-1,133
 234 2129 234 2129 256 2118 c 128,-1,134
 278 2107 278 2107 313 2100 c 128,-1,135
 348 2093 348 2093 411 2093 c 2,136,-1
 2758 2093 l 1,137,138
 2816 2094 2816 2094 2863 2084 c 128,-1,139
 2910 2074 2910 2074 2949 2053.5 c 128,-1,140
 2988 2033 2988 2033 3009.5 2016.5 c 128,-1,141
 3031 2000 3031 2000 3068.5 1961 c 128,-1,142
 3106 1922 3106 1922 3133 1884.5 c 128,-1,143
 3160 1847 3160 1847 3144 1812 c 1,144,145
 3128 1788 3128 1788 3106.5 1802 c 128,-1,146
 3085 1816 3085 1816 3056 1826.5 c 128,-1,147
 3027 1837 3027 1837 2993 1841 c 128,-1,148
 2959 1845 2959 1845 2888 1845 c 2,149,-1
 571 1845 l 1,150,151
 523 1846 523 1846 485 1852 c 128,-1,152
 447 1858 447 1858 425 1865 c 128,-1,153
 403 1872 403 1872 379 1884 c 128,-1,154
 355 1896 355 1896 327.5 1914 c 128,-1,155
 300 1932 300 1932 269 1963.5 c 128,-1,156
 238 1995 238 1995 206 2036.5 c 128,-1,157
 174 2078 174 2078 165.5 2094.5 c 128,-1,130
 157 2111 157 2111 167.5 2127.5 c 128,-1,131
EndSplineSet
EndChar

